<svg xmlns="http://www.w3.org/2000/svg" width="58" height="57" viewBox="19.5 20.5 58 57"><path fill="#FFF" d="M30.96 23.984a1.157 1.157 0 0 0-.962.317l-5.692 5.696c-.5.498-.366 1.423.259 2.047l16.952 16.955-16.952 16.952c-.625.625-.759 1.543-.259 2.045l5.692 5.694c.503.505 1.427.433 2.049-.189L49 56.545l16.956 16.956c.623.622 1.545.694 2.047.189l5.695-5.694c.498-.502.365-1.42-.26-2.045L56.486 48.999l16.951-16.955c.625-.624.758-1.549.26-2.047l-5.695-5.696c-.502-.498-1.424-.365-2.047.257L49 41.515 32.047 24.559c-.312-.314-.718-.535-1.087-.575z"/></svg>