<svg xmlns="http://www.w3.org/2000/svg" width="55.5" height="56.5" viewBox="0 0 55.5 56.5"><path fill="#00BD9C" d="M44.5 56.5H11c-6.065 0-11-4.936-11-11V11C0 4.935 4.935 0 11 0h33.5c6.066 0 11 4.935 11 11v34.5c0 6.064-4.934 11-11 11zM11 2c-4.963 0-9 4.038-9 9v34.5c0 4.963 4.037 9 9 9h33.5c4.963 0 9-4.037 9-9V11c0-4.962-4.037-9-9-9H11z"/><path fill="#00BD9C" d="M20.887 28.643c0-4.209.818-7.356 2.454-9.441 1.636-2.085 4.055-3.127 7.259-3.127 1.104 0 1.973.093 2.606.278v2.095c-.752-.244-1.61-.366-2.578-.366-2.295 0-4.048.715-5.259 2.146s-1.875 3.679-1.992 6.746h.176c1.074-1.68 2.773-2.52 5.097-2.52 1.925 0 3.44.581 4.549 1.743 1.109 1.162 1.662 2.738 1.662 4.73 0 2.228-.607 3.979-1.822 5.252-1.217 1.274-2.859 1.912-4.93 1.912-2.217 0-3.975-.833-5.273-2.498-1.298-1.663-1.949-3.982-1.949-6.95zm7.193 7.382c1.387 0 2.463-.438 3.23-1.312.766-.874 1.148-2.137 1.148-3.787 0-1.416-.355-2.529-1.068-3.339-.714-.81-1.777-1.216-3.194-1.216a5.39 5.39 0 0 0-2.417.542 4.466 4.466 0 0 0-1.75 1.494c-.434.635-.652 1.294-.652 1.978 0 1.007.195 1.943.586 2.812.391.868.945 1.557 1.663 2.063.719.51 1.536.765 2.454.765z"/></svg>