<svg xmlns="http://www.w3.org/2000/svg" width="55.5" height="56.5" viewBox="0 0 55.5 56.5"><path fill="#00BD9C" d="M44.5 56.5H11c-6.065 0-11-4.936-11-11V11C0 4.935 4.935 0 11 0h33.5c6.064 0 11 4.935 11 11v34.5c0 6.064-4.936 11-11 11zM11 2c-4.963 0-9 4.038-9 9v34.5c0 4.963 4.037 9 9 9h33.5c4.963 0 9-4.037 9-9V11c0-4.962-4.037-9-9-9H11z"/><path fill="#00BD9C" d="M33.91 21.421c0 1.367-.385 2.485-1.15 3.354-.766.869-1.854 1.45-3.26 1.743v.117c1.719.215 2.994.762 3.824 1.641.83.879 1.244 2.033 1.244 3.458 0 2.041-.707 3.609-2.123 4.709-1.416 1.099-3.428 1.647-6.036 1.647-1.133 0-2.17-.086-3.113-.257s-1.858-.473-2.747-.9v-2.314a13.36 13.36 0 0 0 2.966 1.048c1.049.239 2.043.358 2.981.358 3.701 0 5.551-1.449 5.551-4.351 0-2.598-2.041-3.897-6.123-3.897h-2.109v-2.095h2.139c1.67 0 2.993-.369 3.97-1.106.977-.737 1.465-1.76 1.465-3.069 0-1.045-.359-1.865-1.076-2.461-.719-.596-1.692-.894-2.922-.894-.938 0-1.821.127-2.651.381-.83.254-1.777.723-2.842 1.406l-1.23-1.641c.879-.693 1.892-1.238 3.04-1.633s2.356-.593 3.625-.593c2.08 0 3.697.476 4.85 1.428 1.15.953 1.727 2.261 1.727 3.921z"/></svg>