<svg xmlns="http://www.w3.org/2000/svg" width="55.5" height="56.5" viewBox="0 0 55.5 56.5"><path fill="#00BD9C" d="M44.5 56.5H11c-6.065 0-11-4.936-11-11V11C0 4.935 4.935 0 11 0h33.5c6.064 0 11 4.935 11 11v34.5c0 6.064-4.936 11-11 11zM11 2c-4.963 0-9 4.038-9 9v34.5c0 4.963 4.037 9 9 9h33.5c4.963 0 9-4.037 9-9V11c0-4.962-4.037-9-9-9H11z"/><path fill="#00BD9C" d="M27.728 16.075c1.954 0 3.502.454 4.645 1.362 1.143.908 1.713 2.163 1.713 3.765 0 1.055-.326 2.017-.98 2.886-.653.869-1.698 1.66-3.135 2.373 1.738.83 2.973 1.702 3.705 2.615s1.1 1.97 1.1 3.171c0 1.776-.621 3.196-1.86 4.256-1.24 1.06-2.938 1.59-5.098 1.59-2.285 0-4.043-.501-5.273-1.502s-1.846-2.42-1.846-4.256c0-2.451 1.494-4.36 4.482-5.727-1.348-.762-2.314-1.584-2.9-2.468a5.251 5.251 0 0 1-.879-2.966c0-1.553.574-2.791 1.722-3.713s2.68-1.386 4.604-1.386zm-4.629 16.318c0 1.172.408 2.086 1.224 2.74.816.654 1.96.98 3.435.98 1.455 0 2.588-.342 3.398-1.025.81-.683 1.217-1.621 1.217-2.812 0-.946-.381-1.789-1.143-2.525-.763-.736-2.09-1.453-3.984-2.146-1.455.625-2.51 1.316-3.164 2.073s-.983 1.66-.983 2.715zm4.599-14.341c-1.221 0-2.178.293-2.871.879-.693.586-1.039 1.367-1.039 2.344 0 .898.287 1.67.863 2.314.576.644 1.641 1.289 3.193 1.934 1.396-.586 2.386-1.216 2.966-1.89.582-.674.871-1.46.871-2.358 0-.986-.354-1.77-1.062-2.351s-1.681-.872-2.921-.872z"/></svg>