<svg xmlns="http://www.w3.org/2000/svg" width="55.5" height="56.5" viewBox="0 0 55.5 56.5"><path fill="#00BD9C" d="M44.5 56.5H11c-6.065 0-11-4.936-11-11V11C0 4.935 4.935 0 11 0h33.5c6.064 0 11 4.935 11 11v34.5c0 6.064-4.936 11-11 11zM11 2c-4.963 0-9 4.038-9 9v34.5c0 4.963 4.037 9 9 9h33.5c4.963 0 9-4.037 9-9V11c0-4.962-4.037-9-9-9H11z"/><path fill="#00BD9C" d="M35.727 32.877h-3.179v4.922h-2.33v-4.922H19.803v-2.125L29.97 16.265h2.577v14.399h3.179v2.213zm-5.509-2.213v-7.119c0-1.396.05-2.974.146-4.731h-.116c-.47.938-.908 1.714-1.317 2.329l-6.695 9.521h7.982z"/></svg>