<svg xmlns="http://www.w3.org/2000/svg" width="55.5" height="56.5" viewBox="0 0 55.5 56.5"><path fill="#00BD9C" d="M44.5 56.5H11c-6.065 0-11-4.936-11-11V11C0 4.935 4.935 0 11 0h33.5c6.064 0 11 4.935 11 11v34.5c0 6.064-4.936 11-11 11zM11 2c-4.963 0-9 4.038-9 9v34.5c0 4.963 4.037 9 9 9h33.5c4.963 0 9-4.037 9-9V11c0-4.962-4.037-9-9-9H11z"/><path fill="#00BD9C" d="M27.333 24.717c2.255 0 4.03.559 5.325 1.677 1.294 1.118 1.939 2.649 1.939 4.592 0 2.217-.705 3.955-2.115 5.215-1.412 1.26-3.356 1.891-5.837 1.891-2.412 0-4.253-.387-5.522-1.158V34.59c.684.439 1.533.784 2.549 1.033s2.017.373 3.003.373c1.72 0 3.054-.404 4.007-1.215.951-.812 1.428-1.982 1.428-3.516 0-2.99-1.83-4.483-5.493-4.483-.928 0-2.168.142-3.721.425l-1.26-.806.806-10.02h10.65v2.241h-8.57l-.542 6.431a17.153 17.153 0 0 1 3.353-.336z"/></svg>