<svg xmlns="http://www.w3.org/2000/svg" width="55.5" height="56.5" viewBox="0 0 55.5 56.5"><path fill="#00BD9C" d="M44.5 56.5H11c-6.065 0-11-4.936-11-11V11C0 4.935 4.935 0 11 0h33.5c6.064 0 11 4.935 11 11v34.5c0 6.064-4.936 11-11 11zM11 2c-4.963 0-9 4.038-9 9v34.5c0 4.963 4.037 9 9 9h33.5c4.963 0 9-4.037 9-9V11c0-4.962-4.037-9-9-9H11z"/><path fill="#00BD9C" d="M29.646 37.799h-2.374V22.535c0-1.27.039-2.471.117-3.604-.205.205-.435.42-.688.645-.253.225-1.416 1.177-3.486 2.856l-1.289-1.67 5.669-4.38h2.05v21.417z"/></svg>