<svg xmlns="http://www.w3.org/2000/svg" width="55.5" height="56.5" viewBox="0 0 55.5 56.5"><path fill="#00BD9C" d="M44.5 56.5H11c-6.065 0-11-4.936-11-11V11C0 4.935 4.935 0 11 0h33.5c6.064 0 11 4.935 11 11v34.5c0 6.064-4.936 11-11 11zM11 2c-4.963 0-9 4.038-9 9v34.5c0 4.963 4.037 9 9 9h33.5c4.963 0 9-4.037 9-9V11c0-4.962-4.037-9-9-9H11z"/><g fill="#00BD9C"><path d="M21.07 37.799h-2.373V22.535c0-1.27.039-2.471.117-3.604-.205.205-.435.42-.688.645-.253.225-1.416 1.177-3.486 2.856l-1.289-1.67 5.669-4.38h2.051l-.001 21.417zM43.409 27.061c0 3.701-.583 6.464-1.751 8.291-1.166 1.826-2.951 2.74-5.354 2.74-2.306 0-4.059-.936-5.26-2.806s-1.802-4.612-1.802-8.225c0-3.73.581-6.499 1.743-8.306 1.162-1.807 2.935-2.71 5.316-2.71 2.324 0 4.09.942 5.295 2.827 1.211 1.885 1.813 4.615 1.813 8.189zm-11.704 0c0 3.115.365 5.382 1.1 6.804.732 1.421 1.898 2.131 3.5 2.131 1.621 0 2.795-.721 3.523-2.16.727-1.439 1.091-3.699 1.091-6.775 0-3.076-.364-5.33-1.091-6.76-.729-1.431-1.902-2.146-3.523-2.146-1.602 0-2.769.706-3.5 2.117-.733 1.411-1.1 3.674-1.1 6.789z"/></g></svg>