<svg xmlns="http://www.w3.org/2000/svg" width="55.5" height="56.5" viewBox="0 0 55.5 56.5"><path fill="#00BD9C" d="M44.5 56.5H11c-6.065 0-11-4.936-11-11V11C0 4.935 4.935 0 11 0h33.5c6.064 0 11 4.935 11 11v34.5c0 6.064-4.936 11-11 11zM11 2c-4.963 0-9 4.038-9 9v34.5c0 4.963 4.037 9 9 9h33.5c4.963 0 9-4.037 9-9V11c0-4.962-4.037-9-9-9H11z"/><path fill="#00BD9C" d="M34.716 37.799H20.638v-2.096l5.64-5.668c1.719-1.739 2.852-2.979 3.399-3.721.548-.742.957-1.465 1.23-2.168a6.24 6.24 0 0 0 .409-2.271c0-1.143-.348-2.048-1.041-2.717-.692-.669-1.653-1.003-2.884-1.003-.889 0-1.731.146-2.527.438-.796.293-1.682.825-2.659 1.597l-1.289-1.655c1.973-1.641 4.121-2.461 6.445-2.461 2.012 0 3.588.515 4.731 1.545 1.143 1.03 1.715 2.415 1.715 4.153 0 1.357-.381 2.7-1.143 4.028-.762 1.328-2.188 3.008-4.277 5.039L23.7 35.426v.117h11.016v2.256z"/></svg>