<svg xmlns="http://www.w3.org/2000/svg" width="55.5" height="56.5" viewBox="0 0 55.5 56.5"><path fill="#00BD9C" d="M44.5 56.5H11c-6.065 0-11-4.936-11-11V11C0 4.935 4.935 0 11 0h33.5c6.064 0 11 4.935 11 11v34.5c0 6.064-4.936 11-11 11zM11 2c-4.963 0-9 4.038-9 9v34.5c0 4.963 4.037 9 9 9h33.5c4.963 0 9-4.037 9-9V11c0-4.962-4.037-9-9-9H11z"/><path fill="#00BD9C" d="M34.715 25.523c0 8.379-3.242 12.569-9.727 12.569-1.133 0-2.031-.098-2.695-.293v-2.096c.781.254 1.67.381 2.666.381 2.344 0 4.114-.725 5.311-2.175 1.197-1.45 1.849-3.675 1.955-6.672h-.176a5.21 5.21 0 0 1-2.139 1.853c-.889.426-1.889.637-3.002.637-1.895 0-3.398-.565-4.512-1.699-1.114-1.133-1.67-2.715-1.67-4.746 0-2.227.622-3.984 1.867-5.273 1.245-1.289 2.883-1.934 4.914-1.934 1.455 0 2.728.374 3.816 1.121 1.088.747 1.926 1.836 2.512 3.267.586 1.431.88 3.117.88 5.06zm-7.207-7.368c-1.396 0-2.475.449-3.236 1.348-.761.899-1.143 2.148-1.143 3.75 0 1.406.352 2.512 1.055 3.318s1.771 1.208 3.207 1.208c.888 0 1.707-.181 2.455-.542.746-.361 1.334-.854 1.764-1.479.431-.625.646-1.279.646-1.963 0-1.025-.198-1.973-.601-2.842-.4-.869-.959-1.553-1.678-2.051-.718-.498-1.541-.747-2.469-.747z"/></svg>