<svg id="Layer_1" xmlns="http://www.w3.org/2000/svg" viewBox="-242 535 269 255"><style>.Graphic_x0020_Style{fill:#fff;stroke:#000;stroke-miterlimit:10}.st0,.st1{fill:#fff}.st1{fill-opacity:.2;stroke:#ce1e46;stroke-width:10}.st2{fill:#ce1e46}.st3{display:none}.st4{display:inline}.st5{fill:none;stroke:#000;stroke-miterlimit:10}</style><path class="st0" d="M20 646.4c-.1-4.6-2.1-7.7-4.9-10-.2-.8-.5-1.5-1.1-2.2-2-2.2-4.1-4.3-6.4-6.2.3-.9.4-1.9.2-2.9-1.8-6.8-10.8-11.4-16-15.4-6.8-5.2-13.8-10.3-20.8-15.3-1.8-1.3-3.6-1-5 0-.7-.6-1.3-1.3-2-1.9-1.9-2.2-4.1-4.3-6.4-6.1-5-4.6-10.1-9-15.5-13-3.7-2.8-7.5-5.4-10.9-8.6-3-2.9-5.9-5.9-9.3-8.3-8-5.6-17.7-9.1-26.5-13.1-2.7-1.2-5.2-.3-6.5 1.5-.8.1-1.5.3-2.3.7-.5.2-.9.5-1.4.9-.2-.2-.4-.5-.6-.7-3.6-3.9-8.9.1-8.4 4.4-.6 1.4-1.3 2.7-2.1 4-1.4-.9-3.2-1.1-4.9 0-3.7 2.3-6.6 5.3-9.4 8.5-.1 0-.2.1-.3.1-1.8-.9-4.2-.9-5.9.6-3.7 3.4-7 7.1-9.8 11.2-3 2.8-6.3 5.4-9.6 7.9-.9-.3-1.8-.3-2.7-.1-8.2 2.3-14.5 7.6-18.2 14.8-1 0-2-.1-3.1.3-4 1.5-6.3 6.1-7 10.4-2.1-3-6.6-2.5-8.5.8-.1.1-.3.2-.4.3-3.8 3.8-7.5 7.7-10.9 11.8-6.7.2-12.5 7.7-13.2 14.6-1.3 1-2.3 2.6-2.5 4.2-.9 6.8 3.1 12.9 8.2 17.9-2.1.8-3.6 3.1-3.1 5.9 1.7 10.1 5.8 19.3 11.9 27.5 1.7 6.6 3.4 13.1 5.4 19.6-.5 1-.7 2.2-.4 3.5 1.9 7.4 4 14.8 6.2 22.1 1.2 3.9 2 9.4 4.2 13.4-.9 5.5 1.5 11 5.3 15.1.7.7 1.4 1.4 2.2 2.1-.2 2.5.1 5.1.7 7.8.7 2.8 3.5 4 6.2 3.5.2 0 .4-.1.6-.1 0 2.4 0 4.9-.2 7.4-.2 2.6 2.4 5.1 5 5 11-.4 22.1.8 33.1-.2 4.1-.4 8.1-1.1 12.1-2.1 1.2.7 2.5 1.4 3.9 1.9.5.2 1.1.3 1.7.2.7.5 1.6.7 2.6.7l45.8-2.5c3.4-.2 9.2-.2 11.5-3l34.8.6c1.5.7 3.2.7 4.5-.3 2.1-.8 3-3 2.9-5.1.3-.4.7-.8 1.3-1.2 1.5-1.2 1.8-2.8 1.4-4.3 1.8-.8 3.2-2.3 4.3-4.6 2.2-4.7 2.2-10.9 3-16 .3-1.8.5-3.5.8-5.3 1.6-.1 3.2-.3 4.8-.4 4.1-.3 5.9-4 4.3-7.5-1.1-2.5-2.3-4.8-3.6-7.1 1.9-.5 3.6-2 3.8-4.6.1-1.3.1-2.7.3-4 1.6-.7 2.9-2.1 3.1-4.3.4-3.7.9-7.4 1.4-11 1.8-.3 3.4-1.3 3.7-3.5 1.1-8.1 2.3-16.2 3.4-24.3 0-.3.1-.7.1-1.1 1.3-.5 2.5-1.5 3-3.1 1.3-4 2-8.1 2.2-12.3 1.4-.6 2.7-1.8 3.2-3.6 2.7-3 3.6-7.3 1.6-10.9 0 0 0-.1-.1-.1 2.5.2 5.3-1.7 5.2-4.9zm-52.5 119c-.8-.3-1.5-.5-2-.7h2.3c-.1.2-.2.4-.3.7z" id="Layer_3"/><title>Reject.JS No.5</title><path class="st1" d="M-122.3 534.7c3-2.1 7.8-2.1 10.8 0L7.4 621.3c2.9 2.1 4.5 6.8 3.4 10.3l-45.5 140.1c-1.1 3.5-5 6.4-8.7 6.4h-147c-3.7 0-7.6-2.9-8.8-6.4l-45.4-140.1c-1.1-3.5.4-8.2 3.4-10.3l118.9-86.6z" transform="translate(10 10)"/><path class="st2" d="M-117 539.7c.4 0 .7 1.6.7 3.7V558c0 2-.3 3.7-.7 3.7-.4 0-.7-1.6-.7-3.7v-14.6c0-2.1.3-3.7.7-3.7zM-237.8 628.4c.1-.4 1.8-.2 3.7.4l13.9 4.5c1.9.6 3.4 1.4 3.3 1.8-.1.4-1.8.2-3.7-.4l-13.9-4.5c-2-.6-3.4-1.4-3.3-1.8zM3.8 628.4c.1.4-1.3 1.2-3.3 1.8l-13.9 4.5c-1.9.6-3.6.8-3.7.4-.1-.4 1.3-1.2 3.3-1.8l13.9-4.5c2-.6 3.6-.8 3.7-.4zM-55.4 753c.3-.2 1.6.9 2.7 2.5l8.6 11.8c1.2 1.6 1.9 3.1 1.6 3.4-.3.2-1.6-.9-2.7-2.5l-8.6-11.8c-1.3-1.6-2-3.1-1.6-3.4zM-178.5 753c.3.2-.4 1.8-1.6 3.4l-8.6 11.8c-1.2 1.6-2.4 2.8-2.7 2.5-.3-.2.4-1.8 1.6-3.4l8.6-11.8c1.1-1.6 2.4-2.7 2.7-2.5zM-111.8 681.3c8.8 0 13.8-5.6 13.8-13.7 0-8-5-13.7-13.8-13.7s-13.7 5.7-13.7 13.7c0 8.2 4.9 13.7 13.7 13.7zm0-6.7c-3.8 0-5.6-3.1-5.6-7 0-3.8 1.8-6.9 5.6-6.9 4 0 5.7 3.1 5.7 6.9 0 3.9-1.7 7-5.7 7zm-13.6 18.9H-98v-6.9h-27.4v6.9zm-53.7 1.4h21.5v-7.3h-6.7v-29.3l22.8 36.6h7.5v-43.4h6.7v-7.3h-21.5v7.3h6.7v27.7l-21.4-35h-15.6v7.3h6.7v36.1h-6.7v7.3zm105.7 11.7c10.5 0 18.6-6.3 18.6-17 0-10-7.2-16.5-16.7-16.5-4.4 0-7.7 1.3-10.2 2.8 1.2-3.9 1.8-8.3 2-12.9 3.7.1 9.8 1.3 14.1 1.3 5.9 0 8.5-2.3 8.5-5.9 0-1-.1-1.9-.5-3.1h-29.3c-.1 10.3-1.5 18.8-3.6 26.8l6.4 2.9c1.8-2.3 5.4-4.8 10.2-4.8 5.6 0 9.6 3.5 9.6 9.6s-4 9.5-10.2 9.5c-2.7 0-5.2-.7-6.9-1.8.3-.7.4-1.4.4-2.1 0-3-2.2-5.3-5.4-5.3-3.3 0-5.4 2.3-5.4 5.4 0 6.4 9.1 11.1 18.4 11.1zm-104.8-80.8v-6.1h2.9c2.6 0 4 .8 4 3 0 2.1-1.5 3.1-4 3.1h-2.9zm8.2 7.4l-4-6.7c2.3-.3 3.7-1.6 3.7-3.9 0-2.8-1.9-3.9-4.8-3.9h-4.2v14.5h1v-6.7h3.1l3.9 6.7h1.3zm3.1 0h8.1v-.9h-7.1V626h5.8v-.9h-5.8v-5.5h6.9v-.9h-7.9v14.5zm10.1-1.8c.7 1.3 2 2.1 3.5 2.1 2.6 0 3.7-1.9 3.7-4.2v-10.5h-1v10.5c0 2.3-.9 3.4-2.6 3.4-1.2 0-2-.5-2.8-1.7l-.8.4zm11.3 1.8h8.2v-.9h-7.2V626h5.8v-.9h-5.8v-5.5h6.9v-.9h-8v14.5h.1zm10.4-7.2c0 4.6 2.5 7.5 6.1 7.5 1.8 0 3.1-.8 4.3-2.1l-.7-.6c-1 1.2-2.1 1.8-3.6 1.8-3.1 0-5-2.6-5-6.6s1.9-6.6 5.1-6.6c1.3 0 2.3.6 3.1 1.5l.6-.7c-.7-.9-2-1.7-3.7-1.7-3.7 0-6.2 2.9-6.2 7.5zm15.9 7.2h1v-13.6h4.6v-.9h-10.2v.9h4.6v13.6zm5.6-.7c0 .7.4 1 1 1 .4 0 .9-.4.9-1 0-.7-.4-1-.9-1-.6 0-1 .3-1 1zm4.2-1.1c.7 1.3 1.9 2.1 3.5 2.1 2.6 0 3.7-1.9 3.7-4.2v-10.5h-1v10.5c0 2.3-.9 3.4-2.6 3.4-1.2 0-2-.5-2.8-1.7l-.8.4zm10.3-.1c1.1 1.2 2.8 2.2 4.9 2.2 2.8 0 4.6-1.7 4.6-3.9 0-2.3-1.4-3.1-3.1-3.9l-2.2-1c-1-.5-2.5-1.1-2.5-2.8 0-1.6 1.3-2.6 3.2-2.6 1.5 0 2.6.6 3.4 1.5l.6-.7c-.9-.9-2.3-1.7-4-1.7-2.4 0-4.2 1.5-4.2 3.5 0 2.2 1.7 3.1 3 3.7l2.2 1c1.4.7 2.6 1.2 2.6 3s-1.4 2.9-3.6 2.9c-1.7 0-3.2-.7-4.2-2l-.7.8zm2.7 99.9h8.6v-.9h-4.8c-.8 0-1.6.1-2.4.1 3.9-4.2 6.4-6.8 6.4-9.6 0-2.3-1.4-3.9-3.9-3.9-1.7 0-2.9.9-3.9 2l.6.6c.9-1 2-1.8 3.3-1.8 2.1 0 3.1 1.4 3.1 3.1 0 2.4-2.3 5-6.9 9.7l-.1.7zm14.9.3c2.7 0 4.2-2.7 4.2-7.4 0-4.6-1.5-7.2-4.2-7.2-2.6 0-4.2 2.6-4.2 7.2 0 4.7 1.5 7.4 4.2 7.4zm0-.9c-1.9 0-3.1-2.2-3.1-6.5 0-4.2 1.2-6.4 3.1-6.4 2 0 3.2 2.1 3.2 6.4s-1.2 6.5-3.2 6.5zm7.1.6h7.3v-.9h-3.1v-13.2h-.8c-.7.4-1.5.7-2.7.9v.7h2.6v11.6h-3.3v.9zm9.3-1.6c.9.9 2.2 1.9 4.4 1.9 2.3 0 4.5-1.7 4.5-4.7 0-3.1-1.9-4.5-4.2-4.5-1 0-1.8.3-2.5.7l.4-5h5.6v-.9h-6.4l-.5 6.6.7.4c.9-.6 1.5-1 2.6-1 2 0 3.4 1.3 3.4 3.6s-1.7 3.8-3.5 3.8c-1.9 0-3-.9-3.9-1.7l-.6.8z" transform="translate(10 10)"/><g id="Layer_2" class="st3"><g class="st4"><path class="st0" d="M-122.6 579.9c-5.2 3.6-10.3 7.2-15.3 11.1-.4-.2-.7-.4-1.1-.5-1.3-.3-2.7-.2-3.9.5-.4.2-.7.5-1.1.7-1.1.7-1.9 1.7-2.3 3-.2.8-.2 1.9.1 2.8-1.3 1-2.6 2.1-3.9 3.2-5 4.1 2.1 11.1 7.1 7.1 8.2-6.8 16.7-13.2 25.5-19.2 5.2-3.6.2-12.3-5.1-8.7z"/><path class="st0" d="M18.5 640.8c-6.4-9.9-15.7-17.3-26.8-20.9-1.3-4.3-4.5-6.4-8.3-8.7-1.4-.8-2.8-1.7-4.2-2.5-.2-.5-.6-1-1.1-1.4-3.1-2.5-6.3-4.9-9.6-7.3-.1-1-.6-2.1-1.7-3-2.3-1.9-4.7-3.7-7-5.4-.4-.9-1-1.7-2.1-2.3l-12-7.2c-2.2-1.3-4.4-.7-5.8.7.7-1.5.8-3.3-.2-4.6-7.1-9.3-15.8-17.2-26.2-22.7-3.8-2-9.8-5.8-14.3-3.8-.8-1.7-2.8-3-4.8-3-1.6-2.6-5.3-3.7-7.8-1.1l-1.7 1.7c-1.2.5-2.3 1.1-3.5 1.6-1.4-.4-3.1-.1-4.6 1.4l-2 2c-.6.6-1.1 1.3-1.3 2l-.2.2c-.3.2-.7.4-1 .7-2.7 2.3-5.4 4.6-8.2 6.8-1.4-.3-3 .1-4.3 1.2-.7.6-1.4 1.3-2.1 2-1 .1-2.1.5-3.2 1.5-5.3 4.8-11 9.1-17.1 13-.8.1-1.5.3-2.3.9-1.3.9-2.6 1.8-3.8 2.8-1.4 1-2.1 2.3-2.2 3.7 0 .1-.1.1-.1.2-1.6-1.3-3.8-1.8-5.7-.6-4.4 2.8-7.9 6.3-10.7 10.8-.4.6-.6 1.2-.6 1.8-2.1 2-4.2 4.1-6.3 6.1-.3-.1-.6-.2-.9-.2 1.5-9.7 3.1-19.3 5-28.9.4 1.2.8 2.4 1.2 3.5 2.1 6 11.8 3.4 9.6-2.7-2.9-8.2-4.9-16.6-6.2-25.2-.8-5-8.6-4.6-9.6 0-4.6 20-8.2 40.1-11.1 60.4-.7 1.1-1.4 2.2-2 3.3-1-.1-2 0-3 .5-9.1 4.8-15.5 12.5-19.3 22-.8 2 .1 3.9 1.7 5.1-.6 1.3-.6 2.8.2 4.4 2 4 4.1 7.9 6.1 11.9-.7 1.5-.7 3.4 0 5 .3.6.6 1.3.9 1.9-1.8 1.3-2.8 3.7-1.2 6.3 1.7 2.7 3.5 5.4 5.3 8.1 0 0 0 .1.1.1-.1.6 0 1.3.2 2 1.3 5 3.2 9.9 5.5 14.4 0 2 .4 4.2.9 6.3 6.5 26.4 15.9 52.1 27.4 76.7 1 2 3.6 2.8 5.6 2.3.4-.1.7-.2 1.1-.3-.1 1.2.3 2.4 1.4 3.5 3 3.2 7 3 9.9 1 4-.1 8.1-.1 12.1-.2.5 1 1 2.1 1.5 3.2 2.1 4.2 7.7 2.5 9.1-1.2.4-.9.6-1.8.9-2.7 2.8 1.8 6.8 1.9 10.2.6.5-.2 1-.4 1.4-.7.6 1.2 1.6 2.1 2.9 2.6 1.1.4 2.1.9 3.2 1.3 2.2.9 4.7-.6 5.8-2.6.9-.2 1.9-.3 2.8-.5 2.3 1.7 6 1.8 7.3-1.3 1.8-.3 3.6-.6 5.5-.8.7 1.5 2.1 2.5 4.3 2.3 5.6-.5 11.3-1 17-1.4 1.9 1.7 5.3 1.6 7.3-.4 13.7-.7 27.5-.9 41.3-.5 3.6.1 6.3-4.5 4.4-7.5 1.7-.5 3.1-1.9 3.7-3.5 1.8-4.8 2.3-9.7 2.7-14.6.6-1.6 1.1-3.2 1.5-4.5 2.6-7.7 4.4-15.7 6.2-23.6 2 .5 4.2-.1 5.2-2.3 2.5-5.3 3.2-10.3 2.4-16 1.3-1.8 2.6-3.7 3.9-5.5 3.3-1.5 5.2-4.9 4.9-8.5-.1-1.4-.6-2.5-1.4-3.3.9-5.3 2-10.6 3.3-15.9v-.1c.8-1.2.9-2.4.6-3.6 1.7-3.2 3.3-6.4 4.9-9.6.9-1.8.7-3.6-.1-4.9 1-.8 2-1.6 2.9-2.5 1.7-1.4 1.9-3.5 1.1-5.2.1-.1.1-.2.2-.3 1.2-1.9.7-4.1-.6-5.7.2-.2.3-.4.4-.7 4.1-.1 7.5-4.4 5.2-7.9zm-199.4 103.8c-.2 0-.4-.1-.6-.1-.2-.6-.4-1.1-.6-1.7.7.4 1.4.5 2.1.6l-.9 1.2zm22.5 6.5c-.1-.3-.2-.5-.3-.8.3 0 .5-.1.8-.1-.2.3-.4.6-.5.9zm2.2-134.5c-.1-.3-.3-.5-.5-.8-.2-.6-.5-1.1-.9-1.5.1-.1.2-.2.3-.2.3.7.9 1.3 1.4 1.8-.1.2-.2.4-.3.7zm57.2 159c.5-.2.9-.5 1.3-.8l.2-.2c.1.3.3.5.5.7-.6.1-1.3.2-2 .3zm85.5-115.1c.5-.1 1.1-.1 1.6-.2-.2.2-.4.5-.5.7-.5 0-.9.1-1.4.3 0-.2.1-.5.3-.8zm-3.9 50.2l.6.6-2.4 3.3 1.8-3.9z"/></g><g class="st4"><path class="st0" d="M-122.6 579.9c-5.2 3.6-10.3 7.2-15.3 11.1-.4-.2-.7-.4-1.1-.5-1.3-.3-2.7-.2-3.9.5-.4.2-.7.5-1.1.7-1.1.7-1.9 1.7-2.3 3-.2.8-.2 1.9.1 2.8-1.3 1-2.6 2.1-3.9 3.2-5 4.1 2.1 11.1 7.1 7.1 8.2-6.8 16.7-13.2 25.5-19.2 5.2-3.6.2-12.3-5.1-8.7z"/><path d="M18.5 640.8c-6.4-9.9-15.7-17.3-26.8-20.9-1.3-4.3-4.5-6.4-8.3-8.7-1.4-.8-2.8-1.7-4.2-2.5-.2-.5-.6-1-1.1-1.4-3.1-2.5-6.3-4.9-9.6-7.3-.1-1-.6-2.1-1.7-3-2.3-1.9-4.7-3.7-7-5.4-.4-.9-1-1.7-2.1-2.3l-12-7.2c-2.2-1.3-4.4-.7-5.8.7.7-1.5.8-3.3-.2-4.6-7.1-9.3-15.8-17.2-26.2-22.7-3.8-2-9.8-5.8-14.3-3.8-.8-1.7-2.8-3-4.8-3-1.6-2.6-5.3-3.7-7.8-1.1l-1.7 1.7c-1.2.5-2.3 1.1-3.5 1.6-1.4-.4-3.1-.1-4.6 1.4l-2 2c-.6.6-1.1 1.3-1.3 2l-.2.2c-.3.2-.7.4-1 .7-2.7 2.3-5.4 4.6-8.2 6.8-1.4-.3-3 .1-4.3 1.2-.7.6-1.4 1.3-2.1 2-1 .1-2.1.5-3.2 1.5-5.3 4.8-11 9.1-17.1 13-.8.1-1.5.3-2.3.9-1.3.9-2.6 1.8-3.8 2.8-1.4 1-2.1 2.3-2.2 3.7 0 .1-.1.1-.1.2-1.6-1.3-3.8-1.8-5.7-.6-4.4 2.8-7.9 6.3-10.7 10.8-.4.6-.6 1.2-.6 1.8-2.1 2-4.2 4.1-6.3 6.1-.3-.1-.6-.2-.9-.2 1.5-9.7 3.1-19.3 5-28.9.4 1.2.8 2.4 1.2 3.5 2.1 6 11.8 3.4 9.6-2.7-2.9-8.2-4.9-16.6-6.2-25.2-.8-5-8.6-4.6-9.6 0-4.6 20-8.2 40.1-11.1 60.4-.7 1.1-1.4 2.2-2 3.3-1-.1-2 0-3 .5-9.1 4.8-15.5 12.5-19.3 22-.8 2 .1 3.9 1.7 5.1-.6 1.3-.6 2.8.2 4.4 2 4 4.1 7.9 6.1 11.9-.7 1.5-.7 3.4 0 5 .3.6.6 1.3.9 1.9-1.8 1.3-2.8 3.7-1.2 6.3 1.7 2.7 3.5 5.4 5.3 8.1 0 0 0 .1.1.1-.1.6 0 1.3.2 2 1.3 5 3.2 9.9 5.5 14.4 0 2 .4 4.2.9 6.3 6.5 26.4 15.9 52.1 27.4 76.7 1 2 3.6 2.8 5.6 2.3.4-.1.7-.2 1.1-.3-.1 1.2.3 2.4 1.4 3.5 3 3.2 7 3 9.9 1 4-.1 8.1-.1 12.1-.2.5 1 1 2.1 1.5 3.2 2.1 4.2 7.7 2.5 9.1-1.2.4-.9.6-1.8.9-2.7 2.8 1.8 6.8 1.9 10.2.6.5-.2 1-.4 1.4-.7.6 1.2 1.6 2.1 2.9 2.6 1.1.4 2.1.9 3.2 1.3 2.2.9 4.7-.6 5.8-2.6.9-.2 1.9-.3 2.8-.5 2.3 1.7 6 1.8 7.3-1.3 1.8-.3 3.6-.6 5.5-.8.7 1.5 2.1 2.5 4.3 2.3 5.6-.5 11.3-1 17-1.4 1.9 1.7 5.3 1.6 7.3-.4 13.7-.7 27.5-.9 41.3-.5 3.6.1 6.3-4.5 4.4-7.5 1.7-.5 3.1-1.9 3.7-3.5 1.8-4.8 2.3-9.7 2.7-14.6.6-1.6 1.1-3.2 1.5-4.5 2.6-7.7 4.4-15.7 6.2-23.6 2 .5 4.2-.1 5.2-2.3 2.5-5.3 3.2-10.3 2.4-16 1.3-1.8 2.6-3.7 3.9-5.5 3.3-1.5 5.2-4.9 4.9-8.5-.1-1.4-.6-2.5-1.4-3.3.9-5.3 2-10.6 3.3-15.9v-.1c.8-1.2.9-2.4.6-3.6 1.7-3.2 3.3-6.4 4.9-9.6.9-1.8.7-3.6-.1-4.9 1-.8 2-1.6 2.9-2.5 1.7-1.4 1.9-3.5 1.1-5.2.1-.1.1-.2.2-.3 1.2-1.9.7-4.1-.6-5.7.2-.2.3-.4.4-.7 4.1-.1 7.5-4.4 5.2-7.9zm-199.4 103.8c-.2 0-.4-.1-.6-.1-.2-.6-.4-1.1-.6-1.7.7.4 1.4.5 2.1.6l-.9 1.2zm22.5 6.5c-.1-.3-.2-.5-.3-.8.3 0 .5-.1.8-.1-.2.3-.4.6-.5.9zm2.2-134.5c-.1-.3-.3-.5-.5-.8-.2-.6-.5-1.1-.9-1.5.1-.1.2-.2.3-.2.3.7.9 1.3 1.4 1.8-.1.2-.2.4-.3.7zm57.2 159c.5-.2.9-.5 1.3-.8l.2-.2c.1.3.3.5.5.7-.6.1-1.3.2-2 .3zm85.5-115.1c.5-.1 1.1-.1 1.6-.2-.2.2-.4.5-.5.7-.5 0-.9.1-1.4.3 0-.2.1-.5.3-.8zm-3.9 50.2l.6.6-2.4 3.3 1.8-3.9z"/></g><g class="st4"><path class="st5" d="M-122.6 579.9c-5.2 3.6-10.3 7.2-15.3 11.1-.4-.2-.7-.4-1.1-.5-1.3-.3-2.7-.2-3.9.5-.4.2-.7.5-1.1.7-1.1.7-1.9 1.7-2.3 3-.2.8-.2 1.9.1 2.8-1.3 1-2.6 2.1-3.9 3.2-5 4.1 2.1 11.1 7.1 7.1 8.2-6.8 16.7-13.2 25.5-19.2 5.2-3.6.2-12.3-5.1-8.7z"/><path class="st5" d="M18.5 640.8c-6.4-9.9-15.7-17.3-26.8-20.9-1.3-4.3-4.5-6.4-8.3-8.7-1.4-.8-2.8-1.7-4.2-2.5-.2-.5-.6-1-1.1-1.4-3.1-2.5-6.3-4.9-9.6-7.3-.1-1-.6-2.1-1.7-3-2.3-1.9-4.7-3.7-7-5.4-.4-.9-1-1.7-2.1-2.3l-12-7.2c-2.2-1.3-4.4-.7-5.8.7.7-1.5.8-3.3-.2-4.6-7.1-9.3-15.8-17.2-26.2-22.7-3.8-2-9.8-5.8-14.3-3.8-.8-1.7-2.8-3-4.8-3-1.6-2.6-5.3-3.7-7.8-1.1l-1.7 1.7c-1.2.5-2.3 1.1-3.5 1.6-1.4-.4-3.1-.1-4.6 1.4l-2 2c-.6.6-1.1 1.3-1.3 2l-.2.2c-.3.2-.7.4-1 .7-2.7 2.3-5.4 4.6-8.2 6.8-1.4-.3-3 .1-4.3 1.2-.7.6-1.4 1.3-2.1 2-1 .1-2.1.5-3.2 1.5-5.3 4.8-11 9.1-17.1 13-.8.1-1.5.3-2.3.9-1.3.9-2.6 1.8-3.8 2.8-1.4 1-2.1 2.3-2.2 3.7 0 .1-.1.1-.1.2-1.6-1.3-3.8-1.8-5.7-.6-4.4 2.8-7.9 6.3-10.7 10.8-.4.6-.6 1.2-.6 1.8-2.1 2-4.2 4.1-6.3 6.1-.3-.1-.6-.2-.9-.2 1.5-9.7 3.1-19.3 5-28.9.4 1.2.8 2.4 1.2 3.5 2.1 6 11.8 3.4 9.6-2.7-2.9-8.2-4.9-16.6-6.2-25.2-.8-5-8.6-4.6-9.6 0-4.6 20-8.2 40.1-11.1 60.4-.7 1.1-1.4 2.2-2 3.3-1-.1-2 0-3 .5-9.1 4.8-15.5 12.5-19.3 22-.8 2 .1 3.9 1.7 5.1-.6 1.3-.6 2.8.2 4.4 2 4 4.1 7.9 6.1 11.9-.7 1.5-.7 3.4 0 5 .3.6.6 1.3.9 1.9-1.8 1.3-2.8 3.7-1.2 6.3 1.7 2.7 3.5 5.4 5.3 8.1 0 0 0 .1.1.1-.1.6 0 1.3.2 2 1.3 5 3.2 9.9 5.5 14.4 0 2 .4 4.2.9 6.3 6.5 26.4 15.9 52.1 27.4 76.7 1 2 3.6 2.8 5.6 2.3.4-.1.7-.2 1.1-.3-.1 1.2.3 2.4 1.4 3.5 3 3.2 7 3 9.9 1 4-.1 8.1-.1 12.1-.2.5 1 1 2.1 1.5 3.2 2.1 4.2 7.7 2.5 9.1-1.2.4-.9.6-1.8.9-2.7 2.8 1.8 6.8 1.9 10.2.6.5-.2 1-.4 1.4-.7.6 1.2 1.6 2.1 2.9 2.6 1.1.4 2.1.9 3.2 1.3 2.2.9 4.7-.6 5.8-2.6.9-.2 1.9-.3 2.8-.5 2.3 1.7 6 1.8 7.3-1.3 1.8-.3 3.6-.6 5.5-.8.7 1.5 2.1 2.5 4.3 2.3 5.6-.5 11.3-1 17-1.4 1.9 1.7 5.3 1.6 7.3-.4 13.7-.7 27.5-.9 41.3-.5 3.6.1 6.3-4.5 4.4-7.5 1.7-.5 3.1-1.9 3.7-3.5 1.8-4.8 2.3-9.7 2.7-14.6.6-1.6 1.1-3.2 1.5-4.5 2.6-7.7 4.4-15.7 6.2-23.6 2 .5 4.2-.1 5.2-2.3 2.5-5.3 3.2-10.3 2.4-16 1.3-1.8 2.6-3.7 3.9-5.5 3.3-1.5 5.2-4.9 4.9-8.5-.1-1.4-.6-2.5-1.4-3.3.9-5.3 2-10.6 3.3-15.9v-.1c.8-1.2.9-2.4.6-3.6 1.7-3.2 3.3-6.4 4.9-9.6.9-1.8.7-3.6-.1-4.9 1-.8 2-1.6 2.9-2.5 1.7-1.4 1.9-3.5 1.1-5.2.1-.1.1-.2.2-.3 1.2-1.9.7-4.1-.6-5.7.2-.2.3-.4.4-.7 4.1-.1 7.5-4.4 5.2-7.9zm-199.4 103.8c-.2 0-.4-.1-.6-.1-.2-.6-.4-1.1-.6-1.7.7.4 1.4.5 2.1.6l-.9 1.2zm22.5 6.5c-.1-.3-.2-.5-.3-.8.3 0 .5-.1.8-.1-.2.3-.4.6-.5.9zm2.2-134.5c-.1-.3-.3-.5-.5-.8-.2-.6-.5-1.1-.9-1.5.1-.1.2-.2.3-.2.3.7.9 1.3 1.4 1.8-.1.2-.2.4-.3.7zm57.2 159c.5-.2.9-.5 1.3-.8l.2-.2c.1.3.3.5.5.7-.6.1-1.3.2-2 .3zm85.5-115.1c.5-.1 1.1-.1 1.6-.2-.2.2-.4.5-.5.7-.5 0-.9.1-1.4.3 0-.2.1-.5.3-.8zm-3.9 50.2l.6.6-2.4 3.3 1.8-3.9z"/></g></g></svg>