<svg id="Layer_1" xmlns="http://www.w3.org/2000/svg" viewBox="-67.9 269.1 266 255"><style>.st0{fill:#fff;fill-opacity:.2;stroke:#ce1e46;stroke-width:10}.st1{fill:#ce1e46}</style><title>Reject.JS No.5</title><path class="st0" d="M49.7 265.7c3-2.1 7.8-2.1 10.8 0l118.9 86.6c2.9 2.1 4.5 6.8 3.4 10.3l-45.5 140.1c-1.1 3.5-5 6.4-8.7 6.4h-147c-3.7 0-7.6-2.9-8.8-6.4l-45.4-140.1c-1.1-3.5.4-8.2 3.4-10.3l118.9-86.6z" transform="translate(10 10)"/><path class="st1" d="M55 270.7c.4 0 .7 1.6.7 3.7V289c0 2-.3 3.7-.7 3.7-.4 0-.7-1.6-.7-3.7v-14.6c0-2.1.3-3.7.7-3.7zM-65.8 359.4c.1-.4 1.8-.2 3.7.4l13.9 4.5c1.9.6 3.4 1.4 3.3 1.8-.1.4-1.8.2-3.7-.4l-13.9-4.5c-2-.6-3.4-1.4-3.3-1.8zM175.8 359.4c.1.4-1.3 1.2-3.3 1.8l-13.9 4.5c-1.9.6-3.6.8-3.7.4-.1-.4 1.3-1.2 3.3-1.8l13.9-4.5c2-.6 3.6-.8 3.7-.4zM116.6 484c.3-.2 1.6.9 2.7 2.5l8.6 11.8c1.2 1.6 1.9 3.1 1.6 3.4-.3.2-1.6-.9-2.7-2.5l-8.6-11.8c-1.3-1.6-2-3.1-1.6-3.4zM-6.5 484c.3.2-.4 1.8-1.6 3.4l-8.6 11.8c-1.2 1.6-2.4 2.8-2.7 2.5-.3-.2.4-1.8 1.6-3.4l8.6-11.8c1.1-1.6 2.4-2.7 2.7-2.5zM60.2 412.3c8.8 0 13.8-5.6 13.8-13.7 0-8-5-13.7-13.8-13.7s-13.7 5.7-13.7 13.7c0 8.2 4.9 13.7 13.7 13.7zm0-6.7c-3.8 0-5.6-3.1-5.6-7 0-3.8 1.8-6.9 5.6-6.9 4 0 5.7 3.1 5.7 6.9 0 3.9-1.7 7-5.7 7zm-13.6 18.9H74v-6.9H46.6v6.9zm-53.7 1.4h21.5v-7.3H7.7v-29.3l22.8 36.6H38v-43.4h6.7v-7.3H23.2v7.3h6.7v27.7l-21.4-35H-7.1v7.3h6.7v36.1h-6.7v7.3zm105.7 11.7c10.5 0 18.6-6.3 18.6-17 0-10-7.2-16.5-16.7-16.5-4.4 0-7.7 1.3-10.2 2.8 1.2-3.9 1.8-8.3 2-12.9 3.7.1 9.8 1.3 14.1 1.3 5.9 0 8.5-2.3 8.5-5.9 0-1-.1-1.9-.5-3.1H85.1c-.1 10.3-1.5 18.8-3.6 26.8l6.4 2.9c1.8-2.3 5.4-4.8 10.2-4.8 5.6 0 9.6 3.5 9.6 9.6s-4 9.5-10.2 9.5c-2.7 0-5.2-.7-6.9-1.8.3-.7.4-1.4.4-2.1 0-3-2.2-5.3-5.4-5.3-3.3 0-5.4 2.3-5.4 5.4 0 6.4 9.1 11.1 18.4 11.1zM-6.2 356.8v-6.1h2.9c2.6 0 4 .8 4 3 0 2.1-1.5 3.1-4 3.1h-2.9zm8.2 7.4l-4-6.7c2.3-.3 3.7-1.6 3.7-3.9 0-2.8-1.9-3.9-4.8-3.9h-4.2v14.5h1v-6.7h3.1l3.9 6.7H2zm3.1 0h8.1v-.9H6.1V357h5.8v-.9H6.1v-5.5H13v-.9H5.1v14.5zm10.1-1.8c.7 1.3 2 2.1 3.5 2.1 2.6 0 3.7-1.9 3.7-4.2v-10.5h-1v10.5c0 2.3-.9 3.4-2.6 3.4-1.2 0-2-.5-2.8-1.7l-.8.4zm11.3 1.8h8.2v-.9h-7.2V357h5.8v-.9h-5.8v-5.5h6.9v-.9h-8v14.5zm10.4-7.2c0 4.6 2.5 7.5 6.1 7.5 1.8 0 3.1-.8 4.3-2.1l-.7-.6c-1 1.2-2.1 1.8-3.6 1.8-3.1 0-5-2.6-5-6.6 0-4 1.9-6.6 5.1-6.6 1.3 0 2.3.6 3.1 1.5l.6-.7c-.7-.9-2-1.7-3.7-1.7-3.7 0-6.2 2.9-6.2 7.5zm15.9 7.2h1v-13.6h4.6v-.9H48.2v.9h4.6v13.6zm5.6-.7c0 .7.4 1 1 1 .4 0 .9-.4.9-1 0-.7-.4-1-.9-1-.6 0-1 .3-1 1zm4.2-1.1c.7 1.3 1.9 2.1 3.5 2.1 2.6 0 3.7-1.9 3.7-4.2v-10.5h-1v10.5c0 2.3-.9 3.4-2.6 3.4-1.2 0-2-.5-2.8-1.7l-.8.4zm10.3-.1c1.1 1.2 2.8 2.2 4.9 2.2 2.8 0 4.6-1.7 4.6-3.9 0-2.3-1.4-3.1-3.1-3.9l-2.2-1c-1-.5-2.5-1.1-2.5-2.8 0-1.6 1.3-2.6 3.2-2.6 1.5 0 2.6.6 3.4 1.5l.6-.7c-.9-.9-2.3-1.7-4-1.7-2.4 0-4.2 1.5-4.2 3.5 0 2.2 1.7 3.1 3 3.7l2.2 1c1.4.7 2.6 1.2 2.6 3s-1.4 2.9-3.6 2.9c-1.7 0-3.2-.7-4.2-2l-.7.8zm2.7 99.9h8.6v-.9h-4.8c-.8 0-1.6.1-2.4.1 3.9-4.2 6.4-6.8 6.4-9.6 0-2.3-1.4-3.9-3.9-3.9-1.7 0-2.9.9-3.9 2l.6.6c.9-1 2-1.8 3.3-1.8 2.1 0 3.1 1.4 3.1 3.1 0 2.4-2.3 5-6.9 9.7v.7zm14.9.3c2.7 0 4.2-2.7 4.2-7.4 0-4.6-1.5-7.2-4.2-7.2-2.6 0-4.2 2.6-4.2 7.2 0 4.7 1.5 7.4 4.2 7.4zm0-.9c-1.9 0-3.1-2.2-3.1-6.5 0-4.2 1.2-6.4 3.1-6.4 2 0 3.2 2.1 3.2 6.4 0 4.3-1.2 6.5-3.2 6.5zm7.1.6h7.3v-.9h-3.1v-13.2h-.8c-.7.4-1.5.7-2.7.9v.7h2.6v11.6h-3.3v.9zm9.3-1.6c.9.9 2.2 1.9 4.4 1.9 2.3 0 4.5-1.7 4.5-4.7 0-3.1-1.9-4.5-4.2-4.5-1 0-1.8.3-2.5.7l.4-5h5.6v-.9h-6.4l-.5 6.6.7.4c.9-.6 1.5-1 2.6-1 2 0 3.4 1.3 3.4 3.6s-1.7 3.8-3.5 3.8c-1.9 0-3-.9-3.9-1.7l-.6.8z" transform="translate(10 10)"/></svg>