<svg xmlns="http://www.w3.org/2000/svg" width="53.5" height="54.5" viewBox="0 0 53.5 54.5"><path fill="#00BD9C" d="M0 10C0 4.477 4.477 0 10 0h33.5c5.523 0 10 4.477 10 10v34.5c0 5.523-4.477 10-10 10H10c-5.523 0-10-4.477-10-10V10z"/><path fill="#FFF" d="M33.716 37.799H19.638v-2.096l5.64-5.668c1.719-1.739 2.852-2.979 3.399-3.721.548-.742.957-1.465 1.23-2.168a6.24 6.24 0 0 0 .409-2.271c0-1.143-.348-2.048-1.041-2.717-.692-.669-1.653-1.003-2.884-1.003-.889 0-1.731.146-2.527.438-.796.293-1.682.825-2.659 1.597l-1.289-1.655c1.973-1.641 4.121-2.461 6.445-2.461 2.012 0 3.588.515 4.731 1.545 1.143 1.03 1.715 2.415 1.715 4.153 0 1.357-.381 2.7-1.143 4.028-.762 1.328-2.188 3.008-4.277 5.039L22.7 35.426v.117h11.016v2.256z"/></svg>