<svg xmlns="http://www.w3.org/2000/svg" width="53.5" height="54.5" viewBox="0 0 53.5 54.5"><path fill="#00BD9C" d="M0 10C0 4.477 4.477 0 10 0h33.5c5.523 0 10 4.477 10 10v34.5c0 5.523-4.477 10-10 10H10c-5.523 0-10-4.477-10-10V10z"/><path fill="#FFF" d="M32.91 21.421c0 1.367-.385 2.485-1.15 3.354-.766.869-1.854 1.45-3.26 1.743v.117c1.719.215 2.994.762 3.824 1.641.83.88 1.244 2.033 1.244 3.459 0 2.041-.707 3.609-2.123 4.709-1.416 1.099-3.428 1.647-6.036 1.647-1.133 0-2.17-.086-3.113-.257s-1.858-.473-2.747-.9V34.62a13.36 13.36 0 0 0 2.966 1.048c1.049.239 2.043.358 2.981.358 3.702 0 5.551-1.449 5.551-4.351 0-2.598-2.041-3.897-6.123-3.897h-2.109v-2.094h2.139c1.67 0 2.994-.369 3.97-1.106.977-.737 1.465-1.76 1.465-3.069 0-1.045-.359-1.865-1.076-2.461-.719-.596-1.692-.894-2.922-.894-.938 0-1.821.127-2.651.381-.83.254-1.777.723-2.842 1.406l-1.23-1.641c.879-.693 1.892-1.238 3.04-1.633s2.356-.593 3.625-.593c2.08 0 3.697.476 4.85 1.428 1.15.951 1.727 2.259 1.727 3.919z"/></svg>