<svg xmlns="http://www.w3.org/2000/svg" width="53.5" height="54.5" viewBox="568.001 393.5 53.5 54.5"><path fill="#00BD9C" d="M568.001 403.5c0-5.523 4.477-10 10-10h33.5c5.522 0 10 4.477 10 10V438c0 5.523-4.478 10-10 10h-33.5c-5.523 0-10-4.477-10-10v-34.5z"/><path fill="#FFF" d="M594.333 418.217c2.256 0 4.031.559 5.325 1.677s1.94 2.648 1.94 4.592c0 2.217-.705 3.955-2.116 5.215s-3.356 1.891-5.837 1.891c-2.412 0-4.253-.387-5.521-1.158v-2.344c.684.439 1.532.785 2.549 1.033 1.016.25 2.017.373 3.003.373 1.719 0 3.054-.404 4.006-1.215s1.428-1.982 1.428-3.516c0-2.989-1.83-4.483-5.493-4.483-.928 0-2.168.142-3.721.425l-1.26-.806.806-10.02h10.65v2.241h-8.57l-.542 6.431a17.153 17.153 0 0 1 3.353-.336z"/></svg>