<svg xmlns="http://www.w3.org/2000/svg" width="53.5" height="54.5" viewBox="0 0 53.5 54.5"><path fill="#00BD9C" d="M0 10C0 4.477 4.477 0 10 0h33.5c5.523 0 10 4.477 10 10v34.5c0 5.523-4.477 10-10 10H10c-5.523 0-10-4.477-10-10V10z"/><path fill="#FFF" d="M19.887 28.643c0-4.208.818-7.354 2.454-9.439 1.636-2.085 4.055-3.127 7.259-3.127 1.104 0 1.973.093 2.606.278v2.095c-.752-.244-1.61-.366-2.578-.366-2.295 0-4.048.715-5.259 2.146s-1.875 3.679-1.992 6.746h.176c1.074-1.68 2.773-2.52 5.097-2.52 1.925 0 3.44.581 4.549 1.743 1.109 1.162 1.662 2.739 1.662 4.731 0 2.227-.607 3.978-1.822 5.252-1.217 1.273-2.859 1.911-4.93 1.911-2.217 0-3.975-.833-5.273-2.498s-1.949-3.984-1.949-6.952zm7.193 7.382c1.387 0 2.463-.438 3.23-1.312.766-.874 1.148-2.137 1.148-3.787 0-1.416-.355-2.528-1.068-3.339-.714-.81-1.777-1.216-3.194-1.216a5.39 5.39 0 0 0-2.417.542 4.466 4.466 0 0 0-1.75 1.494c-.435.634-.652 1.294-.652 1.978 0 1.007.195 1.943.586 2.812.391.868.945 1.557 1.663 2.063.719.51 1.536.765 2.454.765z"/></svg>