<svg xmlns="http://www.w3.org/2000/svg" width="53.5" height="54.5" viewBox="0 0 53.5 54.5"><path fill="#00BD9C" d="M0 10C0 4.477 4.477 0 10 0h33.5c5.523 0 10 4.477 10 10v34.5c0 5.523-4.477 10-10 10H10c-5.523 0-10-4.477-10-10V10z"/><path fill="#FFF" d="M33.715 25.523c0 8.379-3.242 12.569-9.727 12.569-1.133 0-2.031-.098-2.695-.293v-2.096c.781.254 1.67.381 2.666.381 2.344 0 4.114-.725 5.311-2.175 1.197-1.45 1.849-3.675 1.955-6.672h-.176a5.21 5.21 0 0 1-2.139 1.853c-.889.426-1.889.637-3.002.637-1.895 0-3.398-.565-4.512-1.699-1.113-1.132-1.67-2.714-1.67-4.745 0-2.227.622-3.984 1.867-5.273 1.245-1.289 2.883-1.934 4.914-1.934 1.455 0 2.728.374 3.816 1.121 1.088.747 1.926 1.836 2.512 3.267.586 1.43.88 3.116.88 5.059zm-7.207-7.368c-1.396 0-2.475.449-3.236 1.348-.761.899-1.143 2.148-1.143 3.75 0 1.406.352 2.512 1.055 3.318s1.771 1.208 3.207 1.208c.888 0 1.707-.181 2.455-.542.746-.361 1.334-.854 1.764-1.479.431-.625.646-1.279.646-1.963 0-1.025-.198-1.973-.601-2.842-.4-.869-.959-1.553-1.678-2.051-.718-.498-1.541-.747-2.469-.747z"/></svg>