<svg xmlns="http://www.w3.org/2000/svg" width="67.497" height="61.497" viewBox="0 0 67.497 61.497"><path fill="#5FA9DD" d="M60.544 15.4a21.313 21.313 0 0 1-6.127 1.68 10.69 10.69 0 0 0 4.69-5.902 21.333 21.333 0 0 1-6.774 2.588 10.655 10.655 0 0 0-7.787-3.369c-5.892 0-10.668 4.776-10.668 10.667 0 .836.094 1.65.276 2.431-8.866-.445-16.727-4.692-21.988-11.146a10.618 10.618 0 0 0-1.444 5.363c0 3.701 1.883 6.966 4.746 8.879a10.626 10.626 0 0 1-4.833-1.334l-.001.134c0 5.168 3.678 9.48 8.558 10.461a10.724 10.724 0 0 1-4.818.183 10.68 10.68 0 0 0 9.965 7.408 21.403 21.403 0 0 1-13.249 4.566c-.861 0-1.71-.051-2.544-.148a30.199 30.199 0 0 0 16.352 4.792c19.623 0 30.352-16.255 30.352-30.352 0-.462-.01-.923-.031-1.379a21.624 21.624 0 0 0 5.325-5.522z"/></svg>