<?xml version="1.0" encoding="utf-8"?>
<!-- Generator: Adobe Illustrator 16.2.1, SVG Export Plug-In . SVG Version: 6.00 Build 0)  -->
<!DOCTYPE svg PUBLIC "-//W3C//DTD SVG 1.1//EN" "http://www.w3.org/Graphics/SVG/1.1/DTD/svg11.dtd">
<svg version="1.1" id="Icon" xmlns="http://www.w3.org/2000/svg" xmlns:xlink="http://www.w3.org/1999/xlink" x="0px" y="0px"
	 width="58px" height="57px" viewBox="19.5 20.5 58 57" enable-background="new 19.5 20.5 58 57" xml:space="preserve">
<path id="rect11874_3_" fill="#FFFFFF" d="M30.96,23.984c-0.368-0.04-0.708,0.067-0.962,0.317l-5.692,5.696
	c-0.5,0.498-0.366,1.423,0.259,2.047l16.952,16.955L24.565,65.951c-0.625,0.625-0.759,1.543-0.259,2.045l5.692,5.694
	c0.503,0.505,1.427,0.433,2.049-0.189L49,56.545l16.956,16.956c0.623,0.622,1.545,0.694,2.047,0.189l5.695-5.694
	c0.498-0.502,0.365-1.42-0.26-2.045L56.486,48.999l16.951-16.955c0.625-0.624,0.758-1.549,0.26-2.047l-5.695-5.696
	c-0.502-0.498-1.424-0.365-2.047,0.257L49,41.515L32.047,24.559C31.735,24.245,31.329,24.024,30.96,23.984z"/>
</svg>
