<?xml version="1.0" encoding="utf-8"?>
<!-- Generator: Adobe Illustrator 16.2.1, SVG Export Plug-In . SVG Version: 6.00 Build 0)  -->
<!DOCTYPE svg PUBLIC "-//W3C//DTD SVG 1.1//EN" "http://www.w3.org/Graphics/SVG/1.1/DTD/svg11.dtd">
<svg version="1.1" id="Layer_1" xmlns="http://www.w3.org/2000/svg" xmlns:xlink="http://www.w3.org/1999/xlink" x="0px" y="0px"
	 width="55.5px" height="56.5px" viewBox="0 0 55.5 56.5" enable-background="new 0 0 55.5 56.5" xml:space="preserve">
<path fill="none" stroke="#00BD9C" stroke-width="2" stroke-miterlimit="10" d="M45.232,28.25"/>
<path fill="#00BD9C" d="M44.5,56.5H11c-6.065,0-11-4.936-11-11V11C0,4.935,4.935,0,11,0h33.5c6.064,0,11,4.935,11,11v34.5
	C55.5,51.564,50.564,56.5,44.5,56.5z M11,2c-4.963,0-9,4.038-9,9v34.5c0,4.963,4.037,9,9,9h33.5c4.963,0,9-4.037,9-9V11
	c0-4.962-4.037-9-9-9H11z"/>
<g>
	<path fill="#00BD9C" d="M21.07,37.799h-2.373V22.535c0-1.27,0.039-2.471,0.117-3.604c-0.205,0.205-0.435,0.42-0.688,0.645
		c-0.253,0.225-1.416,1.177-3.486,2.856l-1.289-1.67l5.669-4.38h2.051L21.07,37.799L21.07,37.799z"/>
	<path fill="#00BD9C" d="M43.409,27.061c0,3.701-0.583,6.464-1.751,8.291c-1.166,1.826-2.951,2.74-5.354,2.74
		c-2.306,0-4.059-0.936-5.26-2.806s-1.802-4.612-1.802-8.225c0-3.73,0.581-6.499,1.743-8.306c1.162-1.807,2.935-2.71,5.316-2.71
		c2.324,0,4.09,0.942,5.295,2.827C42.807,20.757,43.409,23.487,43.409,27.061z M31.705,27.061c0,3.115,0.365,5.382,1.1,6.804
		c0.732,1.421,1.898,2.131,3.5,2.131c1.621,0,2.795-0.721,3.523-2.16c0.727-1.439,1.091-3.699,1.091-6.775
		c0-3.076-0.364-5.33-1.091-6.76c-0.729-1.431-1.902-2.146-3.523-2.146c-1.602,0-2.769,0.706-3.5,2.117
		C32.072,21.683,31.705,23.946,31.705,27.061z"/>
</g>
</svg>
