<?xml version="1.0" encoding="utf-8"?>
<!-- Generator: Adobe Illustrator 16.2.1, SVG Export Plug-In . SVG Version: 6.00 Build 0)  -->
<!DOCTYPE svg PUBLIC "-//W3C//DTD SVG 1.1//EN" "http://www.w3.org/Graphics/SVG/1.1/DTD/svg11.dtd">
<svg version="1.1" id="Layer_1" xmlns="http://www.w3.org/2000/svg" xmlns:xlink="http://www.w3.org/1999/xlink" x="0px" y="0px"
	 width="55.5px" height="56.5px" viewBox="0 0 55.5 56.5" enable-background="new 0 0 55.5 56.5" xml:space="preserve">
<path fill="#00BD9C" d="M44.5,56.5H11c-6.065,0-11-4.936-11-11V11C0,4.935,4.935,0,11,0h33.5c6.064,0,11,4.935,11,11v34.5
	C55.5,51.564,50.564,56.5,44.5,56.5z M11,2c-4.963,0-9,4.038-9,9v34.5c0,4.963,4.037,9,9,9h33.5c4.963,0,9-4.037,9-9V11
	c0-4.962-4.037-9-9-9H11z"/>
<g>
	<path fill="#00BD9C" d="M27.728,16.075c1.954,0,3.502,0.454,4.645,1.362c1.143,0.908,1.713,2.163,1.713,3.765
		c0,1.055-0.326,2.017-0.98,2.886c-0.653,0.869-1.698,1.66-3.135,2.373c1.738,0.83,2.973,1.702,3.705,2.615s1.1,1.97,1.1,3.171
		c0,1.776-0.621,3.196-1.86,4.256c-1.24,1.06-2.938,1.59-5.098,1.59c-2.285,0-4.043-0.501-5.273-1.502s-1.846-2.42-1.846-4.256
		c0-2.451,1.494-4.36,4.482-5.727c-1.348-0.762-2.314-1.584-2.9-2.468c-0.586-0.884-0.879-1.873-0.879-2.966
		c0-1.553,0.574-2.791,1.722-3.713S25.804,16.075,27.728,16.075z M23.099,32.393c0,1.172,0.408,2.086,1.224,2.74
		c0.816,0.654,1.96,0.98,3.435,0.98c1.455,0,2.588-0.342,3.398-1.025c0.81-0.683,1.217-1.621,1.217-2.812
		c0-0.946-0.381-1.789-1.143-2.525c-0.763-0.736-2.09-1.453-3.984-2.146c-1.455,0.625-2.51,1.316-3.164,2.073
		S23.099,31.338,23.099,32.393z M27.698,18.052c-1.221,0-2.178,0.293-2.871,0.879c-0.693,0.586-1.039,1.367-1.039,2.344
		c0,0.898,0.287,1.67,0.863,2.314c0.576,0.644,1.641,1.289,3.193,1.934c1.396-0.586,2.386-1.216,2.966-1.89
		c0.582-0.674,0.871-1.46,0.871-2.358c0-0.986-0.354-1.77-1.062-2.351S28.938,18.052,27.698,18.052z"/>
</g>
</svg>
