<?xml version="1.0" encoding="utf-8"?>
<!-- Generator: Adobe Illustrator 16.2.1, SVG Export Plug-In . SVG Version: 6.00 Build 0)  -->
<!DOCTYPE svg PUBLIC "-//W3C//DTD SVG 1.1//EN" "http://www.w3.org/Graphics/SVG/1.1/DTD/svg11.dtd">
<svg version="1.1" id="Layer_1" xmlns="http://www.w3.org/2000/svg" xmlns:xlink="http://www.w3.org/1999/xlink" x="0px" y="0px"
	 width="55.5px" height="56.5px" viewBox="0 0 55.5 56.5" enable-background="new 0 0 55.5 56.5" xml:space="preserve">
<path fill="#00BD9C" d="M44.5,56.5H11c-6.065,0-11-4.936-11-11V11C0,4.935,4.935,0,11,0h33.5c6.064,0,11,4.935,11,11v34.5
	C55.5,51.564,50.564,56.5,44.5,56.5z M11,2c-4.963,0-9,4.038-9,9v34.5c0,4.963,4.037,9,9,9h33.5c4.963,0,9-4.037,9-9V11
	c0-4.962-4.037-9-9-9H11z"/>
<g>
	<path fill="#00BD9C" d="M27.333,24.717c2.255,0,4.03,0.559,5.325,1.677c1.294,1.118,1.939,2.649,1.939,4.592
		c0,2.217-0.705,3.955-2.115,5.215c-1.412,1.26-3.356,1.891-5.837,1.891c-2.412,0-4.253-0.387-5.522-1.158V34.59
		c0.684,0.439,1.533,0.784,2.549,1.033s2.017,0.373,3.003,0.373c1.72,0,3.054-0.404,4.007-1.215
		c0.951-0.812,1.428-1.982,1.428-3.516c0-2.99-1.83-4.483-5.493-4.483c-0.928,0-2.168,0.142-3.721,0.425l-1.26-0.806l0.806-10.02
		h10.65v2.241h-8.57l-0.542,6.431C25.101,24.83,26.219,24.717,27.333,24.717z"/>
</g>
</svg>
