<?xml version="1.0" encoding="utf-8"?>
<!-- Generator: Adobe Illustrator 19.1.0, SVG Export Plug-In . SVG Version: 6.00 Build 0)  -->
<svg version="1.1" id="Layer_1" xmlns="http://www.w3.org/2000/svg" xmlns:xlink="http://www.w3.org/1999/xlink" x="0px" y="0px"
	 viewBox="-242 535 269 255" style="enable-background:new -242 535 269 255;" xml:space="preserve">
<style type="text/css">
	.Graphic_x0020_Style{fill:#FFFFFF;stroke:#000000;stroke-miterlimit:10;}
	.st0{fill:#FFFFFF;}
	.st1{fill:#FFFFFF;fill-opacity:0.2;stroke:#CE1E46;stroke-width:10;}
	.st2{fill:#CE1E46;}
	.st3{display:none;}
	.st4{display:inline;}
	.st5{fill:none;stroke:#000000;stroke-miterlimit:10;}
</style>
<g id="Layer_3">
	<path class="st0" d="M20,646.4c-0.1-4.6-2.1-7.7-4.9-10c-0.2-0.8-0.5-1.5-1.1-2.2c-2-2.2-4.1-4.3-6.4-6.2c0.3-0.9,0.4-1.9,0.2-2.9
		C6,618.3-3,613.7-8.2,609.7c-6.8-5.2-13.8-10.3-20.8-15.3c-1.8-1.3-3.6-1-5,0c-0.7-0.6-1.3-1.3-2-1.9c-1.9-2.2-4.1-4.3-6.4-6.1
		c-5-4.6-10.1-9-15.5-13c-3.7-2.8-7.5-5.4-10.9-8.6c-3-2.9-5.9-5.9-9.3-8.3c-8-5.6-17.7-9.1-26.5-13.1c-2.7-1.2-5.2-0.3-6.5,1.5
		c-0.8,0.1-1.5,0.3-2.3,0.7c-0.5,0.2-0.9,0.5-1.4,0.9c-0.2-0.2-0.4-0.5-0.6-0.7c-3.6-3.9-8.9,0.1-8.4,4.4c-0.6,1.4-1.3,2.7-2.1,4
		c-1.4-0.9-3.2-1.1-4.9,0c-3.7,2.3-6.6,5.3-9.4,8.5c-0.1,0-0.2,0.1-0.3,0.1c-1.8-0.9-4.2-0.9-5.9,0.6c-3.7,3.4-7,7.1-9.8,11.2
		c-3,2.8-6.3,5.4-9.6,7.9c-0.9-0.3-1.8-0.3-2.7-0.1c-8.2,2.3-14.5,7.6-18.2,14.8c-1,0-2-0.1-3.1,0.3c-4,1.5-6.3,6.1-7,10.4
		c-2.1-3-6.6-2.5-8.5,0.8c-0.1,0.1-0.3,0.2-0.4,0.3c-3.8,3.8-7.5,7.7-10.9,11.8c-6.7,0.2-12.5,7.7-13.2,14.6c-1.3,1-2.3,2.6-2.5,4.2
		c-0.9,6.8,3.1,12.9,8.2,17.9c-2.1,0.8-3.6,3.1-3.1,5.9c1.7,10.1,5.8,19.3,11.9,27.5c1.7,6.6,3.4,13.1,5.4,19.6
		c-0.5,1-0.7,2.2-0.4,3.5c1.9,7.4,4,14.8,6.2,22.1c1.2,3.9,2,9.4,4.2,13.4c-0.9,5.5,1.5,11,5.3,15.1c0.7,0.7,1.4,1.4,2.2,2.1
		c-0.2,2.5,0.1,5.1,0.7,7.8c0.7,2.8,3.5,4,6.2,3.5c0.2,0,0.4-0.1,0.6-0.1c0,2.4,0,4.9-0.2,7.4c-0.2,2.6,2.4,5.1,5,5
		c11-0.4,22.1,0.8,33.1-0.2c4.1-0.4,8.1-1.1,12.1-2.1c1.2,0.7,2.5,1.4,3.9,1.9c0.5,0.2,1.1,0.3,1.7,0.2c0.7,0.5,1.6,0.7,2.6,0.7
		l45.8-2.5c3.4-0.2,9.2-0.2,11.5-3c11.6,0.2,23.2,0.4,34.8,0.6c1.5,0.7,3.2,0.7,4.5-0.3c2.1-0.8,3-3,2.9-5.1
		c0.3-0.4,0.7-0.8,1.3-1.2c1.5-1.2,1.8-2.8,1.4-4.3c1.8-0.8,3.2-2.3,4.3-4.6c2.2-4.7,2.2-10.9,3-16c0.3-1.8,0.5-3.5,0.8-5.3
		c1.6-0.1,3.2-0.3,4.8-0.4c4.1-0.3,5.9-4,4.3-7.5c-1.1-2.5-2.3-4.8-3.6-7.1c1.9-0.5,3.6-2,3.8-4.6c0.1-1.3,0.1-2.7,0.3-4
		c1.6-0.7,2.9-2.1,3.1-4.3c0.4-3.7,0.9-7.4,1.4-11c1.8-0.3,3.4-1.3,3.7-3.5c1.1-8.1,2.3-16.2,3.4-24.3c0-0.3,0.1-0.7,0.1-1.1
		c1.3-0.5,2.5-1.5,3-3.1c1.3-4,2-8.1,2.2-12.3c1.4-0.6,2.7-1.8,3.2-3.6c2.7-3,3.6-7.3,1.6-10.9c0,0,0-0.1-0.1-0.1
		C17.3,651.5,20.1,649.6,20,646.4z M-32.5,765.4c-0.8-0.3-1.5-0.5-2-0.7c0.8,0,1.5,0,2.3,0C-32.3,764.9-32.4,765.1-32.5,765.4z"/>
</g>
<title>Reject.JS No.5</title>
<g transform="translate(10.000000, 10.000000)">
	<path class="st1" d="M-122.3,534.7c3-2.1,7.8-2.1,10.8,0L7.4,621.3c2.9,2.1,4.5,6.8,3.4,10.3l-45.5,140.1c-1.1,3.5-5,6.4-8.7,6.4
		h-147c-3.7,0-7.6-2.9-8.8-6.4l-45.4-140.1c-1.1-3.5,0.4-8.2,3.4-10.3L-122.3,534.7z"/>
	<path class="st2" d="M-117,539.7L-117,539.7c0.4,0,0.7,1.6,0.7,3.7V558c0,2-0.3,3.7-0.7,3.7l0,0c-0.4,0-0.7-1.6-0.7-3.7v-14.6
		C-117.7,541.3-117.4,539.7-117,539.7z"/>
	<path class="st2" d="M-237.8,628.4L-237.8,628.4c0.1-0.4,1.8-0.2,3.7,0.4l13.9,4.5c1.9,0.6,3.4,1.4,3.3,1.8l0,0
		c-0.1,0.4-1.8,0.2-3.7-0.4l-13.9-4.5C-236.5,629.6-237.9,628.8-237.8,628.4z"/>
	<path class="st2" d="M3.8,628.4L3.8,628.4c0.1,0.4-1.3,1.2-3.3,1.8l-13.9,4.5c-1.9,0.6-3.6,0.8-3.7,0.4l0,0
		c-0.1-0.4,1.3-1.2,3.3-1.8l13.9-4.5C2.1,628.2,3.7,628,3.8,628.4z"/>
	<path class="st2" d="M-55.4,753L-55.4,753c0.3-0.2,1.6,0.9,2.7,2.5l8.6,11.8c1.2,1.6,1.9,3.1,1.6,3.4l0,0c-0.3,0.2-1.6-0.9-2.7-2.5
		l-8.6-11.8C-55.1,754.8-55.8,753.3-55.4,753z"/>
	<path class="st2" d="M-178.5,753L-178.5,753c0.3,0.2-0.4,1.8-1.6,3.4l-8.6,11.8c-1.2,1.6-2.4,2.8-2.7,2.5l0,0
		c-0.3-0.2,0.4-1.8,1.6-3.4l8.6-11.8C-180.1,753.9-178.8,752.8-178.5,753z"/>
	<path class="st2" d="M-111.8,681.3c8.8,0,13.8-5.6,13.8-13.7c0-8-5-13.7-13.8-13.7s-13.7,5.7-13.7,13.7
		C-125.5,675.8-120.6,681.3-111.8,681.3L-111.8,681.3z M-111.8,674.6c-3.8,0-5.6-3.1-5.6-7c0-3.8,1.8-6.9,5.6-6.9
		c4,0,5.7,3.1,5.7,6.9C-106.1,671.5-107.8,674.6-111.8,674.6L-111.8,674.6z M-125.4,693.5H-98v-6.9h-27.4V693.5z M-179.1,694.9h21.5
		v-7.3h-6.7v-29.3l22.8,36.6h7.5v-43.4h6.7v-7.3h-21.5v7.3h6.7v27.7l-21.4-35h-15.6v7.3h6.7v36.1h-6.7V694.9z M-73.4,706.6
		c10.5,0,18.6-6.3,18.6-17c0-10-7.2-16.5-16.7-16.5c-4.4,0-7.7,1.3-10.2,2.8c1.2-3.9,1.8-8.3,2-12.9c3.7,0.1,9.8,1.3,14.1,1.3
		c5.9,0,8.5-2.3,8.5-5.9c0-1-0.1-1.9-0.5-3.1h-29.3c-0.1,10.3-1.5,18.8-3.6,26.8l6.4,2.9c1.8-2.3,5.4-4.8,10.2-4.8
		c5.6,0,9.6,3.5,9.6,9.6c0,6.1-4,9.5-10.2,9.5c-2.7,0-5.2-0.7-6.9-1.8c0.3-0.7,0.4-1.4,0.4-2.1c0-3-2.2-5.3-5.4-5.3
		c-3.3,0-5.4,2.3-5.4,5.4C-91.8,701.9-82.7,706.6-73.4,706.6L-73.4,706.6z M-178.2,625.8v-6.1h2.9c2.6,0,4,0.8,4,3
		c0,2.1-1.5,3.1-4,3.1H-178.2z M-170,633.2l-4-6.7c2.3-0.3,3.7-1.6,3.7-3.9c0-2.8-1.9-3.9-4.8-3.9h-4.2v14.5h1v-6.7h3.1l3.9,6.7
		H-170z M-166.9,633.2h8.1v-0.9h-7.1V626h5.8v-0.9h-5.8v-5.5h6.9v-0.9h-7.9V633.2z M-156.8,631.4c0.7,1.3,2,2.1,3.5,2.1
		c2.6,0,3.7-1.9,3.7-4.2v-10.5h-1v10.5c0,2.3-0.9,3.4-2.6,3.4c-1.2,0-2-0.5-2.8-1.7L-156.8,631.4z M-145.5,633.2h8.2v-0.9h-7.2V626
		h5.8v-0.9h-5.8v-5.5h6.9v-0.9h-8v14.5H-145.5z M-135.1,626c0,4.6,2.5,7.5,6.1,7.5c1.8,0,3.1-0.8,4.3-2.1l-0.7-0.6
		c-1,1.2-2.1,1.8-3.6,1.8c-3.1,0-5-2.6-5-6.6s1.9-6.6,5.1-6.6c1.3,0,2.3,0.6,3.1,1.5l0.6-0.7c-0.7-0.9-2-1.7-3.7-1.7
		C-132.6,618.5-135.1,621.4-135.1,626L-135.1,626z M-119.2,633.2h1v-13.6h4.6v-0.9h-10.2v0.9h4.6V633.2z M-113.6,632.5
		c0,0.7,0.4,1,1,1c0.4,0,0.9-0.4,0.9-1c0-0.7-0.4-1-0.9-1C-113.2,631.5-113.6,631.8-113.6,632.5L-113.6,632.5z M-109.4,631.4
		c0.7,1.3,1.9,2.1,3.5,2.1c2.6,0,3.7-1.9,3.7-4.2v-10.5h-1v10.5c0,2.3-0.9,3.4-2.6,3.4c-1.2,0-2-0.5-2.8-1.7L-109.4,631.4z
		 M-99.1,631.3c1.1,1.2,2.8,2.2,4.9,2.2c2.8,0,4.6-1.7,4.6-3.9c0-2.3-1.4-3.1-3.1-3.9l-2.2-1c-1-0.5-2.5-1.1-2.5-2.8
		c0-1.6,1.3-2.6,3.2-2.6c1.5,0,2.6,0.6,3.4,1.5l0.6-0.7c-0.9-0.9-2.3-1.7-4-1.7c-2.4,0-4.2,1.5-4.2,3.5c0,2.2,1.7,3.1,3,3.7l2.2,1
		c1.4,0.7,2.6,1.2,2.6,3s-1.4,2.9-3.6,2.9c-1.7,0-3.2-0.7-4.2-2L-99.1,631.3z M-96.4,731.2h8.6v-0.9h-4.8c-0.8,0-1.6,0.1-2.4,0.1
		c3.9-4.2,6.4-6.8,6.4-9.6c0-2.3-1.4-3.9-3.9-3.9c-1.7,0-2.9,0.9-3.9,2l0.6,0.6c0.9-1,2-1.8,3.3-1.8c2.1,0,3.1,1.4,3.1,3.1
		c0,2.4-2.3,5-6.9,9.7L-96.4,731.2L-96.4,731.2z M-81.5,731.5c2.7,0,4.2-2.7,4.2-7.4c0-4.6-1.5-7.2-4.2-7.2c-2.6,0-4.2,2.6-4.2,7.2
		C-85.7,728.8-84.2,731.5-81.5,731.5L-81.5,731.5z M-81.5,730.6c-1.9,0-3.1-2.2-3.1-6.5c0-4.2,1.2-6.4,3.1-6.4c2,0,3.2,2.1,3.2,6.4
		S-79.5,730.6-81.5,730.6L-81.5,730.6z M-74.4,731.2h7.3v-0.9h-3.1v-13.2H-71c-0.7,0.4-1.5,0.7-2.7,0.9v0.7h2.6v11.6h-3.3V731.2z
		 M-65.1,729.6c0.9,0.9,2.2,1.9,4.4,1.9c2.3,0,4.5-1.7,4.5-4.7c0-3.1-1.9-4.5-4.2-4.5c-1,0-1.8,0.3-2.5,0.7l0.4-5h5.6v-0.9h-6.4
		l-0.5,6.6l0.7,0.4c0.9-0.6,1.5-1,2.6-1c2,0,3.4,1.3,3.4,3.6c0,2.3-1.7,3.8-3.5,3.8c-1.9,0-3-0.9-3.9-1.7L-65.1,729.6z"/>
</g>
<g id="Layer_2" class="st3">
	<g class="st4">
		<path class="st0" d="M-122.6,579.9c-5.2,3.6-10.3,7.2-15.3,11.1c-0.4-0.2-0.7-0.4-1.1-0.5c-1.3-0.3-2.7-0.2-3.9,0.5
			c-0.4,0.2-0.7,0.5-1.1,0.7c-1.1,0.7-1.9,1.7-2.3,3c-0.2,0.8-0.2,1.9,0.1,2.8c-1.3,1-2.6,2.1-3.9,3.2c-5,4.1,2.1,11.1,7.1,7.1
			c8.2-6.8,16.7-13.2,25.5-19.2C-112.3,585-117.3,576.3-122.6,579.9z"/>
		<path class="st0" d="M18.5,640.8c-6.4-9.9-15.7-17.3-26.8-20.9c-1.3-4.3-4.5-6.4-8.3-8.7c-1.4-0.8-2.8-1.7-4.2-2.5
			c-0.2-0.5-0.6-1-1.1-1.4c-3.1-2.5-6.3-4.9-9.6-7.3c-0.1-1-0.6-2.1-1.7-3c-2.3-1.9-4.7-3.7-7-5.4c-0.4-0.9-1-1.7-2.1-2.3
			c-4-2.4-8-4.8-12-7.2c-2.2-1.3-4.4-0.7-5.8,0.7c0.7-1.5,0.8-3.3-0.2-4.6c-7.1-9.3-15.8-17.2-26.2-22.7c-3.8-2-9.8-5.8-14.3-3.8
			c-0.8-1.7-2.8-3-4.8-3c-1.6-2.6-5.3-3.7-7.8-1.1c-0.5,0.5-1.1,1.1-1.7,1.7c-1.2,0.5-2.3,1.1-3.5,1.6c-1.4-0.4-3.1-0.1-4.6,1.4
			l-2,2c-0.6,0.6-1.1,1.3-1.3,2l-0.2,0.2c-0.3,0.2-0.7,0.4-1,0.7c-2.7,2.3-5.4,4.6-8.2,6.8c-1.4-0.3-3,0.1-4.3,1.2
			c-0.7,0.6-1.4,1.3-2.1,2c-1,0.1-2.1,0.5-3.2,1.5c-5.3,4.8-11,9.1-17.1,13c-0.8,0.1-1.5,0.3-2.3,0.9c-1.3,0.9-2.6,1.8-3.8,2.8
			c-1.4,1-2.1,2.3-2.2,3.7c0,0.1-0.1,0.1-0.1,0.2c-1.6-1.3-3.8-1.8-5.7-0.6c-4.4,2.8-7.9,6.3-10.7,10.8c-0.4,0.6-0.6,1.2-0.6,1.8
			c-2.1,2-4.2,4.1-6.3,6.1c-0.3-0.1-0.6-0.2-0.9-0.2c1.5-9.7,3.1-19.3,5-28.9c0.4,1.2,0.8,2.4,1.2,3.5c2.1,6,11.8,3.4,9.6-2.7
			c-2.9-8.2-4.9-16.6-6.2-25.2c-0.8-5-8.6-4.6-9.6,0c-4.6,20-8.2,40.1-11.1,60.4c-0.7,1.1-1.4,2.2-2,3.3c-1-0.1-2,0-3,0.5
			c-9.1,4.8-15.5,12.5-19.3,22c-0.8,2,0.1,3.9,1.7,5.1c-0.6,1.3-0.6,2.8,0.2,4.4c2,4,4.1,7.9,6.1,11.9c-0.7,1.5-0.7,3.4,0,5
			c0.3,0.6,0.6,1.3,0.9,1.9c-1.8,1.3-2.8,3.7-1.2,6.3c1.7,2.7,3.5,5.4,5.3,8.1c0,0,0,0.1,0.1,0.1c-0.1,0.6,0,1.3,0.2,2
			c1.3,5,3.2,9.9,5.5,14.4c0,2,0.4,4.2,0.9,6.3c6.5,26.4,15.9,52.1,27.4,76.7c1,2,3.6,2.8,5.6,2.3c0.4-0.1,0.7-0.2,1.1-0.3
			c-0.1,1.2,0.3,2.4,1.4,3.5c3,3.2,7,3,9.9,1c4-0.1,8.1-0.1,12.1-0.2c0,0,0,0,0,0c0.5,1,1,2.1,1.5,3.2c2.1,4.2,7.7,2.5,9.1-1.2
			c0.4-0.9,0.6-1.8,0.9-2.7c2.8,1.8,6.8,1.9,10.2,0.6c0.5-0.2,1-0.4,1.4-0.7c0.6,1.2,1.6,2.1,2.9,2.6c1.1,0.4,2.1,0.9,3.2,1.3
			c2.2,0.9,4.7-0.6,5.8-2.6c0.9-0.2,1.9-0.3,2.8-0.5c2.3,1.7,6,1.8,7.3-1.3c1.8-0.3,3.6-0.6,5.5-0.8c0.7,1.5,2.1,2.5,4.3,2.3
			c5.6-0.5,11.3-1,17-1.4c1.9,1.7,5.3,1.6,7.3-0.4c13.7-0.7,27.5-0.9,41.3-0.5c3.6,0.1,6.3-4.5,4.4-7.5c1.7-0.5,3.1-1.9,3.7-3.5
			c1.8-4.8,2.3-9.7,2.7-14.6c0.6-1.6,1.1-3.2,1.5-4.5c2.6-7.7,4.4-15.7,6.2-23.6c2,0.5,4.2-0.1,5.2-2.3c2.5-5.3,3.2-10.3,2.4-16
			c1.3-1.8,2.6-3.7,3.9-5.5c3.3-1.5,5.2-4.9,4.9-8.5c-0.1-1.4-0.6-2.5-1.4-3.3c0.9-5.3,2-10.6,3.3-15.9c0,0,0,0,0-0.1
			c0.8-1.2,0.9-2.4,0.6-3.6c1.7-3.2,3.3-6.4,4.9-9.6c0.9-1.8,0.7-3.6-0.1-4.9c1-0.8,2-1.6,2.9-2.5c1.7-1.4,1.9-3.5,1.1-5.2
			c0.1-0.1,0.1-0.2,0.2-0.3c1.2-1.9,0.7-4.1-0.6-5.7c0.2-0.2,0.3-0.4,0.4-0.7C17.4,648.6,20.8,644.3,18.5,640.8z M-180.9,744.6
			c-0.2,0-0.4-0.1-0.6-0.1c-0.2-0.6-0.4-1.1-0.6-1.7c0.7,0.4,1.4,0.5,2.1,0.6C-180.3,743.8-180.6,744.2-180.9,744.6z M-158.4,751.1
			c-0.1-0.3-0.2-0.5-0.3-0.8c0.3,0,0.5-0.1,0.8-0.1C-158.1,750.5-158.3,750.8-158.4,751.1z M-156.2,616.6c-0.1-0.3-0.3-0.5-0.5-0.8
			c-0.2-0.6-0.5-1.1-0.9-1.5c0.1-0.1,0.2-0.2,0.3-0.2c0.3,0.7,0.9,1.3,1.4,1.8C-156,616.1-156.1,616.3-156.2,616.6z M-99,775.6
			c0.5-0.2,0.9-0.5,1.3-0.8c0.1-0.1,0.1-0.1,0.2-0.2c0.1,0.3,0.3,0.5,0.5,0.7C-97.6,775.4-98.3,775.5-99,775.6z M-13.5,660.5
			c0.5-0.1,1.1-0.1,1.6-0.2c-0.2,0.2-0.4,0.5-0.5,0.7c-0.5,0-0.9,0.1-1.4,0.3C-13.8,661.1-13.7,660.8-13.5,660.5z M-17.4,710.7
			c0.2,0.2,0.4,0.4,0.6,0.6c-0.8,1.1-1.6,2.2-2.4,3.3C-18.6,713.3-18,712-17.4,710.7z"/>
	</g>
	<g class="st4">
		<path class="st0" d="M-122.6,579.9c-5.2,3.6-10.3,7.2-15.3,11.1c-0.4-0.2-0.7-0.4-1.1-0.5c-1.3-0.3-2.7-0.2-3.9,0.5
			c-0.4,0.2-0.7,0.5-1.1,0.7c-1.1,0.7-1.9,1.7-2.3,3c-0.2,0.8-0.2,1.9,0.1,2.8c-1.3,1-2.6,2.1-3.9,3.2c-5,4.1,2.1,11.1,7.1,7.1
			c8.2-6.8,16.7-13.2,25.5-19.2C-112.3,585-117.3,576.3-122.6,579.9z"/>
		<path d="M18.5,640.8c-6.4-9.9-15.7-17.3-26.8-20.9c-1.3-4.3-4.5-6.4-8.3-8.7c-1.4-0.8-2.8-1.7-4.2-2.5c-0.2-0.5-0.6-1-1.1-1.4
			c-3.1-2.5-6.3-4.9-9.6-7.3c-0.1-1-0.6-2.1-1.7-3c-2.3-1.9-4.7-3.7-7-5.4c-0.4-0.9-1-1.7-2.1-2.3c-4-2.4-8-4.8-12-7.2
			c-2.2-1.3-4.4-0.7-5.8,0.7c0.7-1.5,0.8-3.3-0.2-4.6c-7.1-9.3-15.8-17.2-26.2-22.7c-3.8-2-9.8-5.8-14.3-3.8c-0.8-1.7-2.8-3-4.8-3
			c-1.6-2.6-5.3-3.7-7.8-1.1c-0.5,0.5-1.1,1.1-1.7,1.7c-1.2,0.5-2.3,1.1-3.5,1.6c-1.4-0.4-3.1-0.1-4.6,1.4l-2,2
			c-0.6,0.6-1.1,1.3-1.3,2l-0.2,0.2c-0.3,0.2-0.7,0.4-1,0.7c-2.7,2.3-5.4,4.6-8.2,6.8c-1.4-0.3-3,0.1-4.3,1.2
			c-0.7,0.6-1.4,1.3-2.1,2c-1,0.1-2.1,0.5-3.2,1.5c-5.3,4.8-11,9.1-17.1,13c-0.8,0.1-1.5,0.3-2.3,0.9c-1.3,0.9-2.6,1.8-3.8,2.8
			c-1.4,1-2.1,2.3-2.2,3.7c0,0.1-0.1,0.1-0.1,0.2c-1.6-1.3-3.8-1.8-5.7-0.6c-4.4,2.8-7.9,6.3-10.7,10.8c-0.4,0.6-0.6,1.2-0.6,1.8
			c-2.1,2-4.2,4.1-6.3,6.1c-0.3-0.1-0.6-0.2-0.9-0.2c1.5-9.7,3.1-19.3,5-28.9c0.4,1.2,0.8,2.4,1.2,3.5c2.1,6,11.8,3.4,9.6-2.7
			c-2.9-8.2-4.9-16.6-6.2-25.2c-0.8-5-8.6-4.6-9.6,0c-4.6,20-8.2,40.1-11.1,60.4c-0.7,1.1-1.4,2.2-2,3.3c-1-0.1-2,0-3,0.5
			c-9.1,4.8-15.5,12.5-19.3,22c-0.8,2,0.1,3.9,1.7,5.1c-0.6,1.3-0.6,2.8,0.2,4.4c2,4,4.1,7.9,6.1,11.9c-0.7,1.5-0.7,3.4,0,5
			c0.3,0.6,0.6,1.3,0.9,1.9c-1.8,1.3-2.8,3.7-1.2,6.3c1.7,2.7,3.5,5.4,5.3,8.1c0,0,0,0.1,0.1,0.1c-0.1,0.6,0,1.3,0.2,2
			c1.3,5,3.2,9.9,5.5,14.4c0,2,0.4,4.2,0.9,6.3c6.5,26.4,15.9,52.1,27.4,76.7c1,2,3.6,2.8,5.6,2.3c0.4-0.1,0.7-0.2,1.1-0.3
			c-0.1,1.2,0.3,2.4,1.4,3.5c3,3.2,7,3,9.9,1c4-0.1,8.1-0.1,12.1-0.2c0,0,0,0,0,0c0.5,1,1,2.1,1.5,3.2c2.1,4.2,7.7,2.5,9.1-1.2
			c0.4-0.9,0.6-1.8,0.9-2.7c2.8,1.8,6.8,1.9,10.2,0.6c0.5-0.2,1-0.4,1.4-0.7c0.6,1.2,1.6,2.1,2.9,2.6c1.1,0.4,2.1,0.9,3.2,1.3
			c2.2,0.9,4.7-0.6,5.8-2.6c0.9-0.2,1.9-0.3,2.8-0.5c2.3,1.7,6,1.8,7.3-1.3c1.8-0.3,3.6-0.6,5.5-0.8c0.7,1.5,2.1,2.5,4.3,2.3
			c5.6-0.5,11.3-1,17-1.4c1.9,1.7,5.3,1.6,7.3-0.4c13.7-0.7,27.5-0.9,41.3-0.5c3.6,0.1,6.3-4.5,4.4-7.5c1.7-0.5,3.1-1.9,3.7-3.5
			c1.8-4.8,2.3-9.7,2.7-14.6c0.6-1.6,1.1-3.2,1.5-4.5c2.6-7.7,4.4-15.7,6.2-23.6c2,0.5,4.2-0.1,5.2-2.3c2.5-5.3,3.2-10.3,2.4-16
			c1.3-1.8,2.6-3.7,3.9-5.5c3.3-1.5,5.2-4.9,4.9-8.5c-0.1-1.4-0.6-2.5-1.4-3.3c0.9-5.3,2-10.6,3.3-15.9c0,0,0,0,0-0.1
			c0.8-1.2,0.9-2.4,0.6-3.6c1.7-3.2,3.3-6.4,4.9-9.6c0.9-1.8,0.7-3.6-0.1-4.9c1-0.8,2-1.6,2.9-2.5c1.7-1.4,1.9-3.5,1.1-5.2
			c0.1-0.1,0.1-0.2,0.2-0.3c1.2-1.9,0.7-4.1-0.6-5.7c0.2-0.2,0.3-0.4,0.4-0.7C17.4,648.6,20.8,644.3,18.5,640.8z M-180.9,744.6
			c-0.2,0-0.4-0.1-0.6-0.1c-0.2-0.6-0.4-1.1-0.6-1.7c0.7,0.4,1.4,0.5,2.1,0.6C-180.3,743.8-180.6,744.2-180.9,744.6z M-158.4,751.1
			c-0.1-0.3-0.2-0.5-0.3-0.8c0.3,0,0.5-0.1,0.8-0.1C-158.1,750.5-158.3,750.8-158.4,751.1z M-156.2,616.6c-0.1-0.3-0.3-0.5-0.5-0.8
			c-0.2-0.6-0.5-1.1-0.9-1.5c0.1-0.1,0.2-0.2,0.3-0.2c0.3,0.7,0.9,1.3,1.4,1.8C-156,616.1-156.1,616.3-156.2,616.6z M-99,775.6
			c0.5-0.2,0.9-0.5,1.3-0.8c0.1-0.1,0.1-0.1,0.2-0.2c0.1,0.3,0.3,0.5,0.5,0.7C-97.6,775.4-98.3,775.5-99,775.6z M-13.5,660.5
			c0.5-0.1,1.1-0.1,1.6-0.2c-0.2,0.2-0.4,0.5-0.5,0.7c-0.5,0-0.9,0.1-1.4,0.3C-13.8,661.1-13.7,660.8-13.5,660.5z M-17.4,710.7
			c0.2,0.2,0.4,0.4,0.6,0.6c-0.8,1.1-1.6,2.2-2.4,3.3C-18.6,713.3-18,712-17.4,710.7z"/>
	</g>
	<g class="st4">
		<path class="st5" d="M-122.6,579.9c-5.2,3.6-10.3,7.2-15.3,11.1c-0.4-0.2-0.7-0.4-1.1-0.5c-1.3-0.3-2.7-0.2-3.9,0.5
			c-0.4,0.2-0.7,0.5-1.1,0.7c-1.1,0.7-1.9,1.7-2.3,3c-0.2,0.8-0.2,1.9,0.1,2.8c-1.3,1-2.6,2.1-3.9,3.2c-5,4.1,2.1,11.1,7.1,7.1
			c8.2-6.8,16.7-13.2,25.5-19.2C-112.3,585-117.3,576.3-122.6,579.9z"/>
		<path class="st5" d="M18.5,640.8c-6.4-9.9-15.7-17.3-26.8-20.9c-1.3-4.3-4.5-6.4-8.3-8.7c-1.4-0.8-2.8-1.7-4.2-2.5
			c-0.2-0.5-0.6-1-1.1-1.4c-3.1-2.5-6.3-4.9-9.6-7.3c-0.1-1-0.6-2.1-1.7-3c-2.3-1.9-4.7-3.7-7-5.4c-0.4-0.9-1-1.7-2.1-2.3
			c-4-2.4-8-4.8-12-7.2c-2.2-1.3-4.4-0.7-5.8,0.7c0.7-1.5,0.8-3.3-0.2-4.6c-7.1-9.3-15.8-17.2-26.2-22.7c-3.8-2-9.8-5.8-14.3-3.8
			c-0.8-1.7-2.8-3-4.8-3c-1.6-2.6-5.3-3.7-7.8-1.1c-0.5,0.5-1.1,1.1-1.7,1.7c-1.2,0.5-2.3,1.1-3.5,1.6c-1.4-0.4-3.1-0.1-4.6,1.4
			l-2,2c-0.6,0.6-1.1,1.3-1.3,2l-0.2,0.2c-0.3,0.2-0.7,0.4-1,0.7c-2.7,2.3-5.4,4.6-8.2,6.8c-1.4-0.3-3,0.1-4.3,1.2
			c-0.7,0.6-1.4,1.3-2.1,2c-1,0.1-2.1,0.5-3.2,1.5c-5.3,4.8-11,9.1-17.1,13c-0.8,0.1-1.5,0.3-2.3,0.9c-1.3,0.9-2.6,1.8-3.8,2.8
			c-1.4,1-2.1,2.3-2.2,3.7c0,0.1-0.1,0.1-0.1,0.2c-1.6-1.3-3.8-1.8-5.7-0.6c-4.4,2.8-7.9,6.3-10.7,10.8c-0.4,0.6-0.6,1.2-0.6,1.8
			c-2.1,2-4.2,4.1-6.3,6.1c-0.3-0.1-0.6-0.2-0.9-0.2c1.5-9.7,3.1-19.3,5-28.9c0.4,1.2,0.8,2.4,1.2,3.5c2.1,6,11.8,3.4,9.6-2.7
			c-2.9-8.2-4.9-16.6-6.2-25.2c-0.8-5-8.6-4.6-9.6,0c-4.6,20-8.2,40.1-11.1,60.4c-0.7,1.1-1.4,2.2-2,3.3c-1-0.1-2,0-3,0.5
			c-9.1,4.8-15.5,12.5-19.3,22c-0.8,2,0.1,3.9,1.7,5.1c-0.6,1.3-0.6,2.8,0.2,4.4c2,4,4.1,7.9,6.1,11.9c-0.7,1.5-0.7,3.4,0,5
			c0.3,0.6,0.6,1.3,0.9,1.9c-1.8,1.3-2.8,3.7-1.2,6.3c1.7,2.7,3.5,5.4,5.3,8.1c0,0,0,0.1,0.1,0.1c-0.1,0.6,0,1.3,0.2,2
			c1.3,5,3.2,9.9,5.5,14.4c0,2,0.4,4.2,0.9,6.3c6.5,26.4,15.9,52.1,27.4,76.7c1,2,3.6,2.8,5.6,2.3c0.4-0.1,0.7-0.2,1.1-0.3
			c-0.1,1.2,0.3,2.4,1.4,3.5c3,3.2,7,3,9.9,1c4-0.1,8.1-0.1,12.1-0.2c0,0,0,0,0,0c0.5,1,1,2.1,1.5,3.2c2.1,4.2,7.7,2.5,9.1-1.2
			c0.4-0.9,0.6-1.8,0.9-2.7c2.8,1.8,6.8,1.9,10.2,0.6c0.5-0.2,1-0.4,1.4-0.7c0.6,1.2,1.6,2.1,2.9,2.6c1.1,0.4,2.1,0.9,3.2,1.3
			c2.2,0.9,4.7-0.6,5.8-2.6c0.9-0.2,1.9-0.3,2.8-0.5c2.3,1.7,6,1.8,7.3-1.3c1.8-0.3,3.6-0.6,5.5-0.8c0.7,1.5,2.1,2.5,4.3,2.3
			c5.6-0.5,11.3-1,17-1.4c1.9,1.7,5.3,1.6,7.3-0.4c13.7-0.7,27.5-0.9,41.3-0.5c3.6,0.1,6.3-4.5,4.4-7.5c1.7-0.5,3.1-1.9,3.7-3.5
			c1.8-4.8,2.3-9.7,2.7-14.6c0.6-1.6,1.1-3.2,1.5-4.5c2.6-7.7,4.4-15.7,6.2-23.6c2,0.5,4.2-0.1,5.2-2.3c2.5-5.3,3.2-10.3,2.4-16
			c1.3-1.8,2.6-3.7,3.9-5.5c3.3-1.5,5.2-4.9,4.9-8.5c-0.1-1.4-0.6-2.5-1.4-3.3c0.9-5.3,2-10.6,3.3-15.9c0,0,0,0,0-0.1
			c0.8-1.2,0.9-2.4,0.6-3.6c1.7-3.2,3.3-6.4,4.9-9.6c0.9-1.8,0.7-3.6-0.1-4.9c1-0.8,2-1.6,2.9-2.5c1.7-1.4,1.9-3.5,1.1-5.2
			c0.1-0.1,0.1-0.2,0.2-0.3c1.2-1.9,0.7-4.1-0.6-5.7c0.2-0.2,0.3-0.4,0.4-0.7C17.4,648.6,20.8,644.3,18.5,640.8z M-180.9,744.6
			c-0.2,0-0.4-0.1-0.6-0.1c-0.2-0.6-0.4-1.1-0.6-1.7c0.7,0.4,1.4,0.5,2.1,0.6C-180.3,743.8-180.6,744.2-180.9,744.6z M-158.4,751.1
			c-0.1-0.3-0.2-0.5-0.3-0.8c0.3,0,0.5-0.1,0.8-0.1C-158.1,750.5-158.3,750.8-158.4,751.1z M-156.2,616.6c-0.1-0.3-0.3-0.5-0.5-0.8
			c-0.2-0.6-0.5-1.1-0.9-1.5c0.1-0.1,0.2-0.2,0.3-0.2c0.3,0.7,0.9,1.3,1.4,1.8C-156,616.1-156.1,616.3-156.2,616.6z M-99,775.6
			c0.5-0.2,0.9-0.5,1.3-0.8c0.1-0.1,0.1-0.1,0.2-0.2c0.1,0.3,0.3,0.5,0.5,0.7C-97.6,775.4-98.3,775.5-99,775.6z M-13.5,660.5
			c0.5-0.1,1.1-0.1,1.6-0.2c-0.2,0.2-0.4,0.5-0.5,0.7c-0.5,0-0.9,0.1-1.4,0.3C-13.8,661.1-13.7,660.8-13.5,660.5z M-17.4,710.7
			c0.2,0.2,0.4,0.4,0.6,0.6c-0.8,1.1-1.6,2.2-2.4,3.3C-18.6,713.3-18,712-17.4,710.7z"/>
	</g>
</g>
</svg>
