<?xml version="1.0" encoding="utf-8"?>
<!-- Generator: Adobe Illustrator 16.2.1, SVG Export Plug-In . SVG Version: 6.00 Build 0)  -->
<!DOCTYPE svg PUBLIC "-//W3C//DTD SVG 1.1//EN" "http://www.w3.org/Graphics/SVG/1.1/DTD/svg11.dtd">
<svg version="1.1" id="Layer_1" xmlns="http://www.w3.org/2000/svg" xmlns:xlink="http://www.w3.org/1999/xlink" x="0px" y="0px"
	 width="53.5px" height="54.5px" viewBox="0 0 53.5 54.5" enable-background="new 0 0 53.5 54.5" xml:space="preserve">
<path fill="#00BD9C" d="M0,10C0,4.477,4.477,0,10,0h33.5c5.523,0,10,4.477,10,10v34.5c0,5.523-4.477,10-10,10H10
	c-5.523,0-10-4.477-10-10V10z"/>
<g>
	<path fill="#FFFFFF" d="M34.727,32.877h-3.179v4.922h-2.33v-4.922H18.803v-2.125l10.167-14.487h2.577v14.399h3.179V32.877z
		 M29.218,30.664v-7.119c0-1.396,0.05-2.974,0.146-4.731h-0.116c-0.47,0.938-0.908,1.714-1.317,2.329l-6.695,9.521H29.218z"/>
</g>
</svg>
