<?xml version="1.0" encoding="utf-8"?>
<!-- Generator: Adobe Illustrator 16.2.1, SVG Export Plug-In . SVG Version: 6.00 Build 0)  -->
<!DOCTYPE svg PUBLIC "-//W3C//DTD SVG 1.1//EN" "http://www.w3.org/Graphics/SVG/1.1/DTD/svg11.dtd">
<svg version="1.1" id="Layer_1" xmlns="http://www.w3.org/2000/svg" xmlns:xlink="http://www.w3.org/1999/xlink" x="0px" y="0px"
	 width="53.5px" height="54.5px" viewBox="0 0 53.5 54.5" enable-background="new 0 0 53.5 54.5" xml:space="preserve">
<path fill="none" stroke="#00BD9C" stroke-width="2" stroke-miterlimit="10" d="M44.232,27.25"/>
<path fill="#00BD9C" d="M0,10C0,4.477,4.477,0,10,0h33.5c5.523,0,10,4.477,10,10v34.5c0,5.523-4.477,10-10,10H10
	c-5.523,0-10-4.477-10-10V10z"/>
<g>
	<path fill="#FFFFFF" d="M20.07,37.799h-2.373V22.535c0-1.27,0.039-2.471,0.117-3.604c-0.205,0.205-0.435,0.42-0.688,0.645
		c-0.253,0.225-1.416,1.177-3.486,2.856l-1.289-1.67l5.669-4.38h2.051L20.07,37.799L20.07,37.799z"/>
	<path fill="#FFFFFF" d="M42.409,27.061c0,3.701-0.583,6.464-1.751,8.291c-1.166,1.826-2.951,2.74-5.354,2.74
		c-2.306,0-4.059-0.936-5.26-2.806s-1.802-4.612-1.802-8.225c0-3.73,0.581-6.499,1.743-8.306c1.162-1.807,2.935-2.71,5.316-2.71
		c2.324,0,4.09,0.942,5.295,2.827C41.807,20.757,42.409,23.487,42.409,27.061z M30.705,27.061c0,3.115,0.365,5.382,1.1,6.804
		c0.732,1.421,1.898,2.131,3.5,2.131c1.621,0,2.795-0.721,3.523-2.16c0.727-1.439,1.091-3.699,1.091-6.775
		c0-3.076-0.364-5.33-1.091-6.76c-0.729-1.431-1.902-2.146-3.523-2.146c-1.602,0-2.769,0.706-3.5,2.117
		C31.072,21.683,30.705,23.946,30.705,27.061z"/>
</g>
</svg>
