<?xml version="1.0" encoding="utf-8"?>
<!-- Generator: Adobe Illustrator 16.2.1, SVG Export Plug-In . SVG Version: 6.00 Build 0)  -->
<!DOCTYPE svg PUBLIC "-//W3C//DTD SVG 1.1//EN" "http://www.w3.org/Graphics/SVG/1.1/DTD/svg11.dtd">
<svg version="1.1" id="Layer_1" xmlns="http://www.w3.org/2000/svg" xmlns:xlink="http://www.w3.org/1999/xlink" x="0px" y="0px"
	 width="53.5px" height="54.5px" viewBox="0 0 53.5 54.5" enable-background="new 0 0 53.5 54.5" xml:space="preserve">
<path fill="#00BD9C" d="M0,10C0,4.477,4.477,0,10,0h33.5c5.523,0,10,4.477,10,10v34.5c0,5.523-4.477,10-10,10H10
	c-5.523,0-10-4.477-10-10V10z"/>
<g>
	<path fill="#FFFFFF" d="M33.715,25.523c0,8.379-3.242,12.569-9.727,12.569c-1.133,0-2.031-0.098-2.695-0.293v-2.096
		c0.781,0.254,1.67,0.381,2.666,0.381c2.344,0,4.114-0.725,5.311-2.175c1.197-1.45,1.849-3.675,1.955-6.672h-0.176
		c-0.537,0.811-1.25,1.428-2.139,1.853c-0.889,0.426-1.889,0.637-3.002,0.637c-1.895,0-3.398-0.565-4.512-1.699
		c-1.113-1.132-1.67-2.714-1.67-4.745c0-2.227,0.622-3.984,1.867-5.273c1.245-1.289,2.883-1.934,4.914-1.934
		c1.455,0,2.728,0.374,3.816,1.121c1.088,0.747,1.926,1.836,2.512,3.267C33.421,21.894,33.715,23.58,33.715,25.523z M26.508,18.155
		c-1.396,0-2.475,0.449-3.236,1.348c-0.761,0.899-1.143,2.148-1.143,3.75c0,1.406,0.352,2.512,1.055,3.318
		c0.703,0.806,1.771,1.208,3.207,1.208c0.888,0,1.707-0.181,2.455-0.542c0.746-0.361,1.334-0.854,1.764-1.479
		c0.431-0.625,0.646-1.279,0.646-1.963c0-1.025-0.198-1.973-0.601-2.842c-0.4-0.869-0.959-1.553-1.678-2.051
		C28.259,18.404,27.436,18.155,26.508,18.155z"/>
</g>
</svg>
