<?xml version="1.0" encoding="utf-8"?>
<!-- Generator: Adobe Illustrator 16.2.1, SVG Export Plug-In . SVG Version: 6.00 Build 0)  -->
<!DOCTYPE svg PUBLIC "-//W3C//DTD SVG 1.1//EN" "http://www.w3.org/Graphics/SVG/1.1/DTD/svg11.dtd">
<svg version="1.1" id="Layer_1" xmlns="http://www.w3.org/2000/svg" xmlns:xlink="http://www.w3.org/1999/xlink" x="0px" y="0px"
	 width="53.5px" height="54.5px" viewBox="0 0 53.5 54.5" enable-background="new 0 0 53.5 54.5" xml:space="preserve">
<path fill="#00BD9C" d="M0,10C0,4.477,4.477,0,10,0h33.5c5.523,0,10,4.477,10,10v34.5c0,5.523-4.477,10-10,10H10
	c-5.523,0-10-4.477-10-10V10z"/>
<g>
	<path fill="#FFFFFF" d="M19.887,28.643c0-4.208,0.818-7.354,2.454-9.439c1.636-2.085,4.055-3.127,7.259-3.127
		c1.104,0,1.973,0.093,2.606,0.278v2.095c-0.752-0.244-1.61-0.366-2.578-0.366c-2.295,0-4.048,0.715-5.259,2.146
		s-1.875,3.679-1.992,6.746h0.176c1.074-1.68,2.773-2.52,5.097-2.52c1.925,0,3.44,0.581,4.549,1.743
		c1.109,1.162,1.662,2.739,1.662,4.731c0,2.227-0.607,3.978-1.822,5.252c-1.217,1.273-2.859,1.911-4.93,1.911
		c-2.217,0-3.975-0.833-5.273-2.498S19.887,31.611,19.887,28.643z M27.08,36.025c1.387,0,2.463-0.438,3.23-1.312
		c0.766-0.874,1.148-2.137,1.148-3.787c0-1.416-0.355-2.528-1.068-3.339c-0.714-0.81-1.777-1.216-3.194-1.216
		c-0.879,0-1.685,0.181-2.417,0.542c-0.732,0.361-1.316,0.859-1.75,1.494c-0.435,0.634-0.652,1.294-0.652,1.978
		c0,1.007,0.195,1.943,0.586,2.812c0.391,0.868,0.945,1.557,1.663,2.063C25.345,35.77,26.162,36.025,27.08,36.025z"/>
</g>
</svg>
