<?xml version="1.0" encoding="utf-8"?>
<!-- Generator: Adobe Illustrator 16.2.1, SVG Export Plug-In . SVG Version: 6.00 Build 0)  -->
<!DOCTYPE svg PUBLIC "-//W3C//DTD SVG 1.1//EN" "http://www.w3.org/Graphics/SVG/1.1/DTD/svg11.dtd">
<svg version="1.1" id="Layer_1" xmlns="http://www.w3.org/2000/svg" xmlns:xlink="http://www.w3.org/1999/xlink" x="0px" y="0px"
	 width="53.5px" height="54.5px" viewBox="568.001 393.5 53.5 54.5" enable-background="new 568.001 393.5 53.5 54.5"
	 xml:space="preserve">
<path fill="#00BD9C" d="M568.001,403.5c0-5.523,4.477-10,10-10h33.5c5.522,0,10,4.477,10,10V438c0,5.523-4.478,10-10,10h-33.5
	c-5.523,0-10-4.477-10-10V403.5z"/>
<g>
	<path fill="#FFFFFF" d="M594.333,418.217c2.256,0,4.031,0.559,5.325,1.677s1.94,2.648,1.94,4.592c0,2.217-0.705,3.955-2.116,5.215
		s-3.356,1.891-5.837,1.891c-2.412,0-4.253-0.387-5.521-1.158v-2.344c0.684,0.439,1.532,0.785,2.549,1.033
		c1.016,0.25,2.017,0.373,3.003,0.373c1.719,0,3.054-0.404,4.006-1.215s1.428-1.982,1.428-3.516c0-2.989-1.83-4.483-5.493-4.483
		c-0.928,0-2.168,0.142-3.721,0.425l-1.26-0.806l0.806-10.02h10.65v2.241h-8.57l-0.542,6.431
		C592.101,418.33,593.219,418.217,594.333,418.217z"/>
</g>
</svg>
