<?xml version="1.0" encoding="utf-8"?>
<!-- Generator: Adobe Illustrator 16.2.1, SVG Export Plug-In . SVG Version: 6.00 Build 0)  -->
<!DOCTYPE svg PUBLIC "-//W3C//DTD SVG 1.1//EN" "http://www.w3.org/Graphics/SVG/1.1/DTD/svg11.dtd">
<svg version="1.1" id="Layer_1" xmlns="http://www.w3.org/2000/svg" xmlns:xlink="http://www.w3.org/1999/xlink" x="0px" y="0px"
	 width="53.5px" height="54.5px" viewBox="0 0 53.5 54.5" enable-background="new 0 0 53.5 54.5" xml:space="preserve">
<path fill="#00BD9C" d="M0,10C0,4.477,4.477,0,10,0h33.5c5.523,0,10,4.477,10,10v34.5c0,5.523-4.477,10-10,10H10
	c-5.523,0-10-4.477-10-10V10z"/>
<g>
	<path fill="#FFFFFF" d="M32.91,21.421c0,1.367-0.385,2.485-1.15,3.354c-0.766,0.869-1.854,1.45-3.26,1.743v0.117
		c1.719,0.215,2.994,0.762,3.824,1.641c0.83,0.88,1.244,2.033,1.244,3.459c0,2.041-0.707,3.609-2.123,4.709
		c-1.416,1.099-3.428,1.647-6.036,1.647c-1.133,0-2.17-0.086-3.113-0.257s-1.858-0.473-2.747-0.9v-2.314
		c0.928,0.459,1.917,0.809,2.966,1.048c1.049,0.239,2.043,0.358,2.981,0.358c3.702,0,5.551-1.449,5.551-4.351
		c0-2.598-2.041-3.897-6.123-3.897h-2.109v-2.094h2.139c1.67,0,2.994-0.369,3.97-1.106c0.977-0.737,1.465-1.76,1.465-3.069
		c0-1.045-0.359-1.865-1.076-2.461c-0.719-0.596-1.692-0.894-2.922-0.894c-0.938,0-1.821,0.127-2.651,0.381
		c-0.83,0.254-1.777,0.723-2.842,1.406l-1.23-1.641c0.879-0.693,1.892-1.238,3.04-1.633s2.356-0.593,3.625-0.593
		c2.08,0,3.697,0.476,4.85,1.428C32.333,18.453,32.91,19.761,32.91,21.421z"/>
</g>
</svg>
