<?xml version="1.0" encoding="utf-8"?>
<!-- Generator: Adobe Illustrator 16.2.1, SVG Export Plug-In . SVG Version: 6.00 Build 0)  -->
<!DOCTYPE svg PUBLIC "-//W3C//DTD SVG 1.1//EN" "http://www.w3.org/Graphics/SVG/1.1/DTD/svg11.dtd">
<svg version="1.1" id="Layer_1" xmlns="http://www.w3.org/2000/svg" xmlns:xlink="http://www.w3.org/1999/xlink" x="0px" y="0px"
	 width="67.497px" height="61.497px" viewBox="0 0 67.497 61.497" enable-background="new 0 0 67.497 61.497" xml:space="preserve">
<path fill="#5FA9DD" d="M60.544,15.4c-1.913,0.849-3.969,1.422-6.127,1.68c2.203-1.32,3.895-3.411,4.69-5.902
	c-2.061,1.223-4.344,2.11-6.774,2.588c-1.946-2.073-4.718-3.369-7.787-3.369c-5.892,0-10.668,4.776-10.668,10.667
	c0,0.836,0.094,1.65,0.276,2.431c-8.866-0.445-16.727-4.692-21.988-11.146c-0.918,1.575-1.444,3.408-1.444,5.363
	c0,3.701,1.883,6.966,4.746,8.879c-1.749-0.055-3.394-0.535-4.833-1.334c0,0.045-0.001,0.089-0.001,0.134
	c0,5.168,3.678,9.48,8.558,10.461c-0.896,0.243-1.838,0.374-2.811,0.374c-0.687,0-1.355-0.067-2.007-0.191
	c1.357,4.237,5.297,7.321,9.965,7.408c-3.651,2.861-8.25,4.566-13.249,4.566c-0.861,0-1.71-0.051-2.544-0.148
	c4.721,3.026,10.328,4.792,16.352,4.792c19.623,0,30.352-16.255,30.352-30.352c0-0.462-0.01-0.923-0.031-1.379
	C57.306,19.418,59.114,17.54,60.544,15.4z"/>
</svg>
