<?xml version="1.0" encoding="utf-8"?>
<!-- Generator: Adobe Illustrator 19.1.0, SVG Export Plug-In . SVG Version: 6.00 Build 0)  -->
<svg version="1.1" id="Ebene_1" xmlns="http://www.w3.org/2000/svg" xmlns:xlink="http://www.w3.org/1999/xlink" x="0px" y="0px"
	 viewBox="-161.5 637.8 402.1 142.1" style="enable-background:new -161.5 637.8 402.1 142.1;" xml:space="preserve">
<style type="text/css">
	.st0{fill:#FFFFFF;stroke:#262625;stroke-width:3;stroke-miterlimit:10;}
	.st1{fill:#EA3A3A;stroke:#262625;stroke-width:3;stroke-miterlimit:10;}
	.st2{fill:#2176FF;stroke:#1D1E1C;stroke-width:3;}
	.st3{fill:#FDC821;stroke:#090B0B;stroke-width:3;stroke-miterlimit:10;}
	.st4{fill:#FFFFFF;stroke:#1D1E1C;stroke-width:3;}
	.st5{fill:#2176FF;stroke:#090B0B;stroke-width:3;stroke-miterlimit:10;}
	.st6{fill:#FDC821;stroke:#262625;stroke-width:3;stroke-miterlimit:10;}
	.st7{fill:#EA3A3A;stroke:#1D1E1C;stroke-width:3;}
</style>
<path class="st0" d="M40.9,723.3c22.4,5.7,26.9,9.5,26.9,17.1v0.4c0,7.9-7.3,12.6-19.3,12.6c-15.3,0-28-6.3-39.9-16.2l-8.8,10.4
	c12.7,9.5,29.6,18.8,47.4,18.8c36.1-0.2,35.3-22.4,35.3-27.3c0-19-18.1-25-34.5-28.7c-20.9-4-37.8-11.4-37.5-29.9s18-28.9,33.6-28.8
	c12.4,0.1,21.6,2.4,41.6,13.9l7.4-10.8c-13.6-10.9-30.2-17-49.7-17C16,637.8-3.5,657.6-3.5,682v0.4C-3.5,709,13.9,716.4,40.9,723.3
	L40.9,723.3z"/>
<path class="st1" d="M54.7,697.3c-23.1-5.9-28.9-8.8-28.9-17.6v-0.4c0-6.5,5.9-13.6,17.2-13.6s23,3,34.8,11.3l7.9-11.4
	c-19.8-11.6-29.1-13.9-41.6-13.9c-15.6-0.1-33.3,10.3-33.6,28.7c-0.3,18.5,16.6,25.9,37.5,29.9c16.4,3.7,34.5,9.8,34.5,28.7
	c0,4.9,0.8,27.1-35.3,27.3c-17.7,0.1-34.7-9.3-47.4-18.8l-8.7,10.4c16,14.4,36.5,21.5,56.8,21.5c28.9,0,49.2-14.9,49.2-41.5v-0.4
	C97.2,714.1,81.8,704.4,54.7,697.3z"/>
<path class="st2" d="M19.8,745c-3.8-2.3-7.5-5-11.2-8l-17.4,20.9c4,3.5,8.2,6.7,12.6,9.3L19.8,745L19.8,745z"/>
<circle class="st3" cx="-93.8" cy="708.9" r="11.6"/>
<path class="st4" d="M-144.1,759.5c-13.6-13.5-20.4-30.5-20.4-50.8c0.1-19.9,6.8-36.7,20.4-50.3c13.5-13.6,30.3-20.4,50.4-20.4
	c20.3,0,37.6,6.3,52.1,18.9l-18.9,20.7c-9.6-7.6-20.7-11.3-33.2-11.3c-12.8,0-23.1,4-30.8,11.9c-7.8,7.9-11.7,18-11.7,30.2
	c0.1,13.2,4,23.6,11.8,31.4c7.9,7.8,18.1,11.7,30.8,11.7s23.7-3.7,33-11.2l18.9,20.7c-14.3,12.6-31.7,18.9-51.9,18.9
	C-113.7,779.8-130.5,773-144.1,759.5L-144.1,759.5z"/>
<path class="st5" d="M-50.7,750.9c-12.4,9.8-26,13.9-43.1,13.9s-30.8-5.1-41.2-15.3c-10.5-10.1-15.7-23.8-15.8-41
	c0-16,5.2-29.3,15.6-39.6c10.4-10.3,23.5-17.1,40.5-17.1c16.7,0,30.9,5.5,43.7,15.5l-9.5,10.5c-9.6-7.6-20.7-11.3-33.2-11.3
	c-12.7,0-23,4-30.7,11.9c-7.8,7.9-11.7,18-11.7,30.2c0.1,13.2,4,23.6,11.8,31.4c7.9,7.8,18.1,11.7,30.8,11.7s23.7-3.7,33-11.2
	L-50.7,750.9L-50.7,750.9z"/>
<path class="st0" d="M184.2,723.3c22.4,5.7,27,9.5,27,17.1v0.4c0,7.9-7.3,12.7-19.3,12.7c-15.3,0-28-6.3-40-16.3l-8.8,10.5
	c12.7,9.5,29.7,18.9,47.4,18.8c36.1-0.2,35.3-22.4,35.3-27.3c0-19-18.1-25-34.5-28.7c-20.9-4.1-37.8-11.6-37.5-30.1
	c0.3-18.5,18-28.9,33.6-28.8c9.2,0.1,16.7,1.4,28,6.8l8.6-11.7c-11-5.7-23.5-9-37.4-9c-27.4,0-46.9,19.9-46.9,44.2v0.4
	C139.9,709,157.3,716.4,184.2,723.3L184.2,723.3z"/>
<path class="st6" d="M198.1,697.3c-23.1-5.9-28.9-8.8-28.9-17.6v-0.4c0-6.5,5.9-13.6,17.2-13.6c6.8,0,13.9,1.2,21,3.9l8.2-11.2
	c-11.4-5.4-18.8-6.8-28-6.8c-15.6-0.1-33.3,10.3-33.6,28.8c-0.3,18.5,16.6,25.9,37.6,29.9c16.4,3.7,34.5,9.8,34.5,28.7
	c0,4.9,0.8,27.2-35.3,27.3c-17.7,0.1-34.7-9.3-47.5-18.8l-8.7,10.4c16,14.4,36.6,21.5,56.8,21.5c28.9,0,49.2-14.9,49.2-41.6v-0.4
	C240.6,714.1,225.2,704.4,198.1,697.3z"/>
<path class="st7" d="M224.2,646.7l-16.8,22.9c4.6,1.8,9.2,4.2,13.9,7.4l7.9-11.4l7.4-10.8C232.6,651.7,228.6,649,224.2,646.7
	L224.2,646.7z"/>
</svg>
