<svg xmlns="http://www.w3.org/2000/svg" width="371" height="356" viewBox="0 0 371 356" version="1.1"><title>Reject.JS No.5</title>
  <g transform="translate(10.000000, 10.000000)">
    <path d="M167.7 2.2C171.8-0.7 178.4-0.7 182.5 2.2L345.1 120.7C349.1 123.6 351.2 130 349.7 134.8L287.5 326.4C286 331.2 280.6 335.2 275.6 335.2L74.6 335.2C69.6 335.2 64.2 331.2 62.6 326.4L0.5 134.8C-1 130 1 123.6 5.1 120.7L167.7 2.2Z" stroke="#CE1E46" stroke-width="10" fill-opacity="0.2" fill="#FFFFFF"/>
    <rect fill="#CE1E46" x="174" y="9" width="2" height="30" rx="5"/>
    <rect fill="#CE1E46" transform="translate(24.000000, 135.000000) rotate(-72.000000) translate(-24.000000, -135.000000) " x="23" y="120" width="2" height="30" rx="5"/>
    <rect fill="#CE1E46" transform="translate(326.000000, 135.000000) rotate(72.000000) translate(-326.000000, -135.000000) " x="325" y="120" width="2" height="30" rx="5"/>
    <rect fill="#CE1E46" transform="translate(268.000000, 313.000000) rotate(-36.000000) translate(-268.000000, -313.000000) " x="267" y="298" width="2" height="30" rx="5"/>
    <rect fill="#CE1E46" transform="translate(82.000000, 313.000000) rotate(36.000000) translate(-82.000000, -313.000000) " x="81" y="298" width="2" height="30" rx="5"/>
    <path d="M182.1 202.8C194.2 202.8 201 195.2 201 184.1 201 173.1 194.2 165.3 182.1 165.3 170 165.3 163.3 173.1 163.3 184.1 163.3 195.2 170 202.8 182.1 202.8L182.1 202.8ZM182.1 193.6C176.9 193.6 174.5 189.4 174.5 184 174.5 178.8 176.9 174.6 182.1 174.6 187.6 174.6 189.9 178.8 189.9 184 189.9 189.4 187.6 193.6 182.1 193.6L182.1 193.6ZM163.5 219.4L200.9 219.4 200.9 210 163.5 210 163.5 219.4ZM90 221.4L119.4 221.4 119.4 211.4 110.3 211.4 110.3 171.3 141.5 221.4 151.7 221.4 151.7 162 160.8 162 160.8 152 131.4 152 131.4 162 140.5 162 140.5 199.9 111.2 152 90 152 90 162 99.1 162 99.1 211.4 90 211.4 90 221.4ZM234.6 237.4C249 237.4 260.1 228.8 260.1 214.2 260.1 200.5 250.3 191.6 237.2 191.6 231.2 191.6 226.6 193.4 223.3 195.4 224.9 190 225.8 184.1 226.1 177.8 231.2 178 239.5 179.6 245.4 179.6 253.5 179.6 257 176.5 257 171.5 257 170.2 256.8 168.9 256.3 167.3L216.2 167.3C216.1 181.4 214.1 193 211.3 204L220 208C222.5 204.8 227.4 201.4 233.9 201.4 241.5 201.4 247 206.2 247 214.5 247 222.9 241.5 227.5 233.1 227.5 229.4 227.5 226 226.6 223.6 225 224 224 224.2 223.1 224.2 222.1 224.2 218 221.2 214.8 216.8 214.8 212.3 214.8 209.4 218 209.4 222.2 209.4 230.9 221.9 237.4 234.6 237.4L234.6 237.4ZM91.3 126.8L91.3 118.4 95.2 118.4C98.7 118.4 100.7 119.5 100.7 122.5 100.7 125.4 98.7 126.8 95.2 126.8L91.3 126.8ZM102.5 137L97 127.8C100.1 127.4 102.1 125.6 102.1 122.5 102.1 118.7 99.5 117.2 95.6 117.2L89.9 117.2 89.9 137 91.3 137 91.3 127.9 95.5 127.9 100.9 137 102.5 137ZM106.7 137L117.8 137 117.8 135.8 108.1 135.8 108.1 127.1 116 127.1 116 125.9 108.1 125.9 108.1 118.4 117.5 118.4 117.5 117.2 106.7 117.2 106.7 137ZM120.5 134.5C121.5 136.3 123.2 137.4 125.3 137.4 128.9 137.4 130.3 134.8 130.3 131.6L130.3 117.2 128.9 117.2 128.9 131.5C128.9 134.7 127.7 136.1 125.3 136.1 123.7 136.1 122.5 135.4 121.5 133.8L120.5 134.5ZM136 137L147.2 137 147.2 135.8 137.4 135.8 137.4 127.1 145.3 127.1 145.3 125.9 137.4 125.9 137.4 118.4 146.9 118.4 146.9 117.2 136 117.2 136 137ZM150.2 127.1C150.2 133.4 153.6 137.4 158.5 137.4 161 137.4 162.8 136.3 164.4 134.5L163.5 133.7C162.1 135.3 160.6 136.1 158.6 136.1 154.3 136.1 151.7 132.6 151.7 127.1 151.7 121.6 154.3 118.1 158.7 118.1 160.5 118.1 161.9 118.9 163 120.1L163.8 119.2C162.8 118 161 116.9 158.7 116.9 153.6 116.9 150.2 120.8 150.2 127.1L150.2 127.1ZM172 137L173.4 137 173.4 118.4 179.7 118.4 179.7 117.2 165.7 117.2 165.7 118.4 172 118.4 172 137ZM179.6 136C179.6 136.9 180.2 137.4 180.9 137.4 181.5 137.4 182.1 136.9 182.1 136 182.1 135.1 181.5 134.6 180.9 134.6 180.2 134.6 179.6 135.1 179.6 136L179.6 136ZM185.4 134.5C186.4 136.3 188 137.4 190.2 137.4 193.8 137.4 195.2 134.8 195.2 131.6L195.2 117.2 193.8 117.2 193.8 131.5C193.8 134.7 192.6 136.1 190.2 136.1 188.6 136.1 187.4 135.4 186.4 133.8L185.4 134.5ZM199.4 134.4C200.9 136.1 203.2 137.4 206.1 137.4 209.9 137.4 212.4 135.1 212.4 132.1 212.4 129 210.5 127.8 208.2 126.8L205.2 125.5C203.8 124.8 201.8 124 201.8 121.7 201.8 119.5 203.6 118.1 206.2 118.1 208.2 118.1 209.7 118.9 210.9 120.2L211.7 119.2C210.5 118 208.6 116.9 206.2 116.9 202.9 116.9 200.4 118.9 200.4 121.7 200.4 124.7 202.7 125.9 204.5 126.7L207.5 128C209.4 128.9 211 129.7 211 132.1 211 134.5 209.1 136.1 206.1 136.1 203.8 136.1 201.7 135.1 200.3 133.4L199.4 134.4ZM203.2 271L215 271 215 269.8 208.5 269.8C207.4 269.8 206.3 269.9 205.2 270 210.6 264.3 214 260.7 214 256.8 214 253.6 212.1 251.5 208.6 251.5 206.3 251.5 204.6 252.7 203.2 254.3L204 255.1C205.2 253.7 206.8 252.6 208.5 252.6 211.4 252.6 212.7 254.5 212.7 256.9 212.7 260.2 209.5 263.8 203.2 270.2L203.2 271ZM223.5 271.4C227.2 271.4 229.3 267.7 229.3 261.3 229.3 255 227.2 251.5 223.5 251.5 219.9 251.5 217.8 255 217.8 261.3 217.8 267.7 219.9 271.4 223.5 271.4L223.5 271.4ZM223.5 270.2C220.9 270.2 219.2 267.2 219.2 261.3 219.2 255.5 220.9 252.6 223.5 252.6 226.2 252.6 227.9 255.5 227.9 261.3 227.9 267.2 226.2 270.2 223.5 270.2L223.5 270.2ZM233.3 271L243.3 271 243.3 269.8 239.1 269.8 239.1 251.8 238 251.8C237.1 252.3 235.9 252.8 234.3 253L234.3 253.9 237.8 253.9 237.8 269.8 233.3 269.8 233.3 271ZM245.9 268.8C247.1 270 248.9 271.4 251.9 271.4 255 271.4 258 269.1 258 265 258 260.8 255.4 258.9 252.2 258.9 250.8 258.9 249.8 259.3 248.8 259.9L249.4 253 257 253 257 251.8 248.2 251.8 247.5 260.8 248.4 261.4C249.6 260.6 250.5 260.1 252 260.1 254.8 260.1 256.7 261.9 256.7 265 256.7 268.1 254.4 270.2 251.9 270.2 249.3 270.2 247.8 269 246.6 267.9L245.9 268.8Z" fill="#CE1E46"/>
  </g>
</svg>
