<?xml version="1.0" encoding="utf-8"?>
<!-- Generator: Adobe Illustrator 19.1.0, SVG Export Plug-In . SVG Version: 6.00 Build 0)  -->
<svg version="1.1" id="Layer_1" xmlns="http://www.w3.org/2000/svg" xmlns:xlink="http://www.w3.org/1999/xlink" x="0px" y="0px"
	 viewBox="-67.9 269.1 266 255" style="enable-background:new -67.9 269.1 266 255;" xml:space="preserve">
<style type="text/css">
	.st0{fill:#FFFFFF;fill-opacity:0.2;stroke:#CE1E46;stroke-width:10;}
	.st1{fill:#CE1E46;}
</style>
<title>Reject.JS No.5</title>
<g transform="translate(10.000000, 10.000000)">
	<path class="st0" d="M49.7,265.7c3-2.1,7.8-2.1,10.8,0l118.9,86.6c2.9,2.1,4.5,6.8,3.4,10.3l-45.5,140.1c-1.1,3.5-5,6.4-8.7,6.4
		H-18.4c-3.7,0-7.6-2.9-8.8-6.4l-45.4-140.1c-1.1-3.5,0.4-8.2,3.4-10.3L49.7,265.7z"/>
	<path class="st1" d="M55,270.7L55,270.7c0.4,0,0.7,1.6,0.7,3.7v14.6c0,2-0.3,3.7-0.7,3.7l0,0c-0.4,0-0.7-1.6-0.7-3.7v-14.6
		C54.3,272.3,54.6,270.7,55,270.7z"/>
	<path class="st1" d="M-65.8,359.4L-65.8,359.4c0.1-0.4,1.8-0.2,3.7,0.4l13.9,4.5c1.9,0.6,3.4,1.4,3.3,1.8l0,0
		c-0.1,0.4-1.8,0.2-3.7-0.4l-13.9-4.5C-64.5,360.6-65.9,359.8-65.8,359.4z"/>
	<path class="st1" d="M175.8,359.4L175.8,359.4c0.1,0.4-1.3,1.2-3.3,1.8l-13.9,4.5c-1.9,0.6-3.6,0.8-3.7,0.4l0,0
		c-0.1-0.4,1.3-1.2,3.3-1.8l13.9-4.5C174.1,359.2,175.7,359,175.8,359.4z"/>
	<path class="st1" d="M116.6,484L116.6,484c0.3-0.2,1.6,0.9,2.7,2.5l8.6,11.8c1.2,1.6,1.9,3.1,1.6,3.4l0,0c-0.3,0.2-1.6-0.9-2.7-2.5
		l-8.6-11.8C116.9,485.8,116.2,484.3,116.6,484z"/>
	<path class="st1" d="M-6.5,484L-6.5,484c0.3,0.2-0.4,1.8-1.6,3.4l-8.6,11.8c-1.2,1.6-2.4,2.8-2.7,2.5l0,0c-0.3-0.2,0.4-1.8,1.6-3.4
		l8.6-11.8C-8.1,484.9-6.8,483.8-6.5,484z"/>
	<path class="st1" d="M60.2,412.3c8.8,0,13.8-5.6,13.8-13.7c0-8-5-13.7-13.8-13.7s-13.7,5.7-13.7,13.7
		C46.5,406.8,51.4,412.3,60.2,412.3L60.2,412.3z M60.2,405.6c-3.8,0-5.6-3.1-5.6-7c0-3.8,1.8-6.9,5.6-6.9c4,0,5.7,3.1,5.7,6.9
		C65.9,402.5,64.2,405.6,60.2,405.6L60.2,405.6z M46.6,424.5H74v-6.9H46.6V424.5z M-7.1,425.9h21.5v-7.3H7.7v-29.3l22.8,36.6H38
		v-43.4h6.7v-7.3H23.2v7.3h6.7v27.7l-21.4-35H-7.1v7.3h6.7v36.1h-6.7V425.9z M98.6,437.6c10.5,0,18.6-6.3,18.6-17
		c0-10-7.2-16.5-16.7-16.5c-4.4,0-7.7,1.3-10.2,2.8c1.2-3.9,1.8-8.3,2-12.9c3.7,0.1,9.8,1.3,14.1,1.3c5.9,0,8.5-2.3,8.5-5.9
		c0-1-0.1-1.9-0.5-3.1H85.1c-0.1,10.3-1.5,18.8-3.6,26.8l6.4,2.9c1.8-2.3,5.4-4.8,10.2-4.8c5.6,0,9.6,3.5,9.6,9.6
		c0,6.1-4,9.5-10.2,9.5c-2.7,0-5.2-0.7-6.9-1.8c0.3-0.7,0.4-1.4,0.4-2.1c0-3-2.2-5.3-5.4-5.3c-3.3,0-5.4,2.3-5.4,5.4
		C80.2,432.9,89.3,437.6,98.6,437.6L98.6,437.6z M-6.2,356.8v-6.1h2.9c2.6,0,4,0.8,4,3c0,2.1-1.5,3.1-4,3.1H-6.2z M2,364.2l-4-6.7
		c2.3-0.3,3.7-1.6,3.7-3.9c0-2.8-1.9-3.9-4.8-3.9h-4.2v14.5h1v-6.7h3.1l3.9,6.7H2z M5.1,364.2h8.1v-0.9H6.1V357h5.8v-0.9H6.1v-5.5
		H13v-0.9H5.1V364.2z M15.2,362.4c0.7,1.3,2,2.1,3.5,2.1c2.6,0,3.7-1.9,3.7-4.2v-10.5h-1v10.5c0,2.3-0.9,3.4-2.6,3.4
		c-1.2,0-2-0.5-2.8-1.7L15.2,362.4z M26.5,364.2h8.2v-0.9h-7.2V357h5.8v-0.9h-5.8v-5.5h6.9v-0.9h-8V364.2z M36.9,357
		c0,4.6,2.5,7.5,6.1,7.5c1.8,0,3.1-0.8,4.3-2.1l-0.7-0.6c-1,1.2-2.1,1.8-3.6,1.8c-3.1,0-5-2.6-5-6.6c0-4,1.9-6.6,5.1-6.6
		c1.3,0,2.3,0.6,3.1,1.5l0.6-0.7c-0.7-0.9-2-1.7-3.7-1.7C39.4,349.5,36.9,352.4,36.9,357L36.9,357z M52.8,364.2h1v-13.6h4.6v-0.9
		H48.2v0.9h4.6V364.2z M58.4,363.5c0,0.7,0.4,1,1,1c0.4,0,0.9-0.4,0.9-1c0-0.7-0.4-1-0.9-1C58.8,362.5,58.4,362.8,58.4,363.5
		L58.4,363.5z M62.6,362.4c0.7,1.3,1.9,2.1,3.5,2.1c2.6,0,3.7-1.9,3.7-4.2v-10.5h-1v10.5c0,2.3-0.9,3.4-2.6,3.4
		c-1.2,0-2-0.5-2.8-1.7L62.6,362.4z M72.9,362.3c1.1,1.2,2.8,2.2,4.9,2.2c2.8,0,4.6-1.7,4.6-3.9c0-2.3-1.4-3.1-3.1-3.9l-2.2-1
		c-1-0.5-2.5-1.1-2.5-2.8c0-1.6,1.3-2.6,3.2-2.6c1.5,0,2.6,0.6,3.4,1.5l0.6-0.7c-0.9-0.9-2.3-1.7-4-1.7c-2.4,0-4.2,1.5-4.2,3.5
		c0,2.2,1.7,3.1,3,3.7l2.2,1c1.4,0.7,2.6,1.2,2.6,3c0,1.8-1.4,2.9-3.6,2.9c-1.7,0-3.2-0.7-4.2-2L72.9,362.3z M75.6,462.2h8.6v-0.9
		h-4.8c-0.8,0-1.6,0.1-2.4,0.1c3.9-4.2,6.4-6.8,6.4-9.6c0-2.3-1.4-3.9-3.9-3.9c-1.7,0-2.9,0.9-3.9,2l0.6,0.6c0.9-1,2-1.8,3.3-1.8
		c2.1,0,3.1,1.4,3.1,3.1c0,2.4-2.3,5-6.9,9.7V462.2z M90.5,462.5c2.7,0,4.2-2.7,4.2-7.4c0-4.6-1.5-7.2-4.2-7.2
		c-2.6,0-4.2,2.6-4.2,7.2C86.3,459.8,87.8,462.5,90.5,462.5L90.5,462.5z M90.5,461.6c-1.9,0-3.1-2.2-3.1-6.5c0-4.2,1.2-6.4,3.1-6.4
		c2,0,3.2,2.1,3.2,6.4C93.7,459.4,92.5,461.6,90.5,461.6L90.5,461.6z M97.6,462.2h7.3v-0.9h-3.1v-13.2h-0.8
		c-0.7,0.4-1.5,0.7-2.7,0.9v0.7h2.6v11.6h-3.3V462.2z M106.9,460.6c0.9,0.9,2.2,1.9,4.4,1.9c2.3,0,4.5-1.7,4.5-4.7
		c0-3.1-1.9-4.5-4.2-4.5c-1,0-1.8,0.3-2.5,0.7l0.4-5h5.6v-0.9h-6.4l-0.5,6.6l0.7,0.4c0.9-0.6,1.5-1,2.6-1c2,0,3.4,1.3,3.4,3.6
		c0,2.3-1.7,3.8-3.5,3.8c-1.9,0-3-0.9-3.9-1.7L106.9,460.6z"/>
</g>
</svg>
