<svg width="256" height="256" viewBox="0 0 256 256" xmlns="http://www.w3.org/2000/svg" preserveAspectRatio="xMidYMid"><defs><linearGradient x1="10.232%" y1="-19.753%" x2="25.642%" y2="31.75%" id="a"><stop stop-color="#FFF" offset="0%"/><stop stop-color="#FFF" stop-opacity="0" offset="100%"/></linearGradient></defs><rect fill="#F57D00" transform="matrix(-1 0 0 1 256 0)" x=".538" y=".548" width="254.924" height="254.904" rx="35.488"/><path d="M188.11 11.445H67.89c-31.823 0-57.442 25.828-57.442 57.91v117.29c1.03 25.043 4.992 9.211 12.534-18.521 8.765-32.232 37.311-60.402 72.075-81.514 26.535-16.115 56.235-26.404 110.297-27.383 30.66-.556 27.953-39.792-17.242-47.782z" fill="url(#a)"/><path d="M98.328 70.07l36.993-.57c16.94.469 26.354 12.476 26.18 26.176 1.641 16.188-2.917 34.518-28.457 34.141H96.621c-16.06.156-28.883-9.282-27.887-27.882-.795-15.41 4.293-32.088 29.594-31.865zM158.085 195.255h-56.911c-23.715.304-35.138-10.507-33.578-35.28.112-22.268 13.029-28.626 32.44-29.02h56.342c38.31-1.022 34.126-1.393 34.716 29.59-.24 22.524-12.629 34.538-33.009 34.71z" stroke="#FFF" stroke-width="30" fill="#FFF"/><path d="M67.596 164.528l1.138-68.283" stroke="#FFF" stroke-width="30"/><path d="M101.034 99.32l31.773.505M97.424 161.457h63.547" stroke="#F57D00" stroke-width="25"/></svg>