<svg id="Ebene_1" xmlns="http://www.w3.org/2000/svg" viewBox="-161.5 637.8 402.1 142.1"><style>.st0,.st1{fill:#fff;stroke:#262625;stroke-width:3;stroke-miterlimit:10}.st1{fill:#ea3a3a}.st2{fill:#2176ff;stroke:#1d1e1c}.st2,.st3,.st4{stroke-width:3}.st3{stroke-miterlimit:10;fill:#fdc821;stroke:#090b0b}.st4{fill:#fff;stroke:#1d1e1c}.st5{fill:#2176ff;stroke:#090b0b;stroke-miterlimit:10}.st5,.st6,.st7{stroke-width:3}.st6{stroke-miterlimit:10;fill:#fdc821;stroke:#262625}.st7{fill:#ea3a3a;stroke:#1d1e1c}</style><path class="st0" d="M40.9 723.3c22.4 5.7 26.9 9.5 26.9 17.1v.4c0 7.9-7.3 12.6-19.3 12.6-15.3 0-28-6.3-39.9-16.2l-8.8 10.4c12.7 9.5 29.6 18.8 47.4 18.8 36.1-.2 35.3-22.4 35.3-27.3 0-19-18.1-25-34.5-28.7-20.9-4-37.8-11.4-37.5-29.9s18-28.9 33.6-28.8c12.4.1 21.6 2.4 41.6 13.9l7.4-10.8c-13.6-10.9-30.2-17-49.7-17-27.4 0-46.9 19.8-46.9 44.2v.4c0 26.6 17.4 34 44.4 40.9z"/><path class="st1" d="M54.7 697.3c-23.1-5.9-28.9-8.8-28.9-17.6v-.4c0-6.5 5.9-13.6 17.2-13.6s23 3 34.8 11.3l7.9-11.4c-19.8-11.6-29.1-13.9-41.6-13.9-15.6-.1-33.3 10.3-33.6 28.7-.3 18.5 16.6 25.9 37.5 29.9 16.4 3.7 34.5 9.8 34.5 28.7 0 4.9.8 27.1-35.3 27.3-17.7.1-34.7-9.3-47.4-18.8l-8.7 10.4c16 14.4 36.5 21.5 56.8 21.5 28.9 0 49.2-14.9 49.2-41.5v-.4c.1-23.4-15.3-33.1-42.4-40.2z"/><path class="st2" d="M19.8 745c-3.8-2.3-7.5-5-11.2-8l-17.4 20.9c4 3.5 8.2 6.7 12.6 9.3l16-22.2z"/><circle class="st3" cx="-93.8" cy="708.9" r="11.6"/><path class="st4" d="M-144.1 759.5c-13.6-13.5-20.4-30.5-20.4-50.8.1-19.9 6.8-36.7 20.4-50.3 13.5-13.6 30.3-20.4 50.4-20.4 20.3 0 37.6 6.3 52.1 18.9l-18.9 20.7c-9.6-7.6-20.7-11.3-33.2-11.3-12.8 0-23.1 4-30.8 11.9-7.8 7.9-11.7 18-11.7 30.2.1 13.2 4 23.6 11.8 31.4 7.9 7.8 18.1 11.7 30.8 11.7s23.7-3.7 33-11.2l18.9 20.7c-14.3 12.6-31.7 18.9-51.9 18.9-20.1-.1-36.9-6.9-50.5-20.4z"/><path class="st5" d="M-50.7 750.9c-12.4 9.8-26 13.9-43.1 13.9s-30.8-5.1-41.2-15.3c-10.5-10.1-15.7-23.8-15.8-41 0-16 5.2-29.3 15.6-39.6 10.4-10.3 23.5-17.1 40.5-17.1 16.7 0 30.9 5.5 43.7 15.5l-9.5 10.5c-9.6-7.6-20.7-11.3-33.2-11.3-12.7 0-23 4-30.7 11.9-7.8 7.9-11.7 18-11.7 30.2.1 13.2 4 23.6 11.8 31.4 7.9 7.8 18.1 11.7 30.8 11.7s23.7-3.7 33-11.2l9.8 10.4z"/><path class="st0" d="M184.2 723.3c22.4 5.7 27 9.5 27 17.1v.4c0 7.9-7.3 12.7-19.3 12.7-15.3 0-28-6.3-40-16.3l-8.8 10.5c12.7 9.5 29.7 18.9 47.4 18.8 36.1-.2 35.3-22.4 35.3-27.3 0-19-18.1-25-34.5-28.7-20.9-4.1-37.8-11.6-37.5-30.1.3-18.5 18-28.9 33.6-28.8 9.2.1 16.7 1.4 28 6.8l8.6-11.7c-11-5.7-23.5-9-37.4-9-27.4 0-46.9 19.9-46.9 44.2v.4c.2 26.7 17.6 34.1 44.5 41z"/><path class="st6" d="M198.1 697.3c-23.1-5.9-28.9-8.8-28.9-17.6v-.4c0-6.5 5.9-13.6 17.2-13.6 6.8 0 13.9 1.2 21 3.9l8.2-11.2c-11.4-5.4-18.8-6.8-28-6.8-15.6-.1-33.3 10.3-33.6 28.8-.3 18.5 16.6 25.9 37.6 29.9 16.4 3.7 34.5 9.8 34.5 28.7 0 4.9.8 27.2-35.3 27.3-17.7.1-34.7-9.3-47.5-18.8l-8.7 10.4c16 14.4 36.6 21.5 56.8 21.5 28.9 0 49.2-14.9 49.2-41.6v-.4c0-23.3-15.4-33-42.5-40.1z"/><path class="st7" d="M224.2 646.7l-16.8 22.9c4.6 1.8 9.2 4.2 13.9 7.4l7.9-11.4 7.4-10.8c-4-3.1-8-5.8-12.4-8.1z"/></svg>