<svg id="Layer_1" xmlns="http://www.w3.org/2000/svg" viewBox="0 0 989 345"><style>.st0{fill:none}.st1{fill:#f7bc60}.st2{fill:#fff}.st3{display:none;fill:#fdb913}.st4,.st5,.st6{display:none;fill:#786b5d}.st5,.st6{fill:#00a0d2}.st6{fill:#b2ccd0}.st7,.st8,.st9{display:none;fill:#fbc90d}.st8,.st9{fill:#948473}.st9{fill:#1fb4e8}.st10{fill:#cae9ee}.st10,.st11,.st12{display:none}.st12{fill:#594a42}.st13{fill:url(#SVGID_1_)}.st14{fill:#939598}</style><pattern x="177" y="502.3" width="69" height="69" patternUnits="userSpaceOnUse" id="Polka_Dot_Pattern" viewBox="2.1 -70.9 69 69" overflow="visible"><path class="st0" d="M71.1-1.9h-69v-69h69z"/><path class="st1" d="M71.1-1.9h-69v-69h69z"/><path class="st2" d="M61.8-71.7v.2c-.1.1-.1.1-.2.1-.1.1-.1.3-.1.4-.2.1 0 .2 0 .3v.2c0 .1 0 .3.1.4.1.2.3.4.4.5.2.1.4.6.6.6.2 0 .4-.1.5-.1.2 0 .4 0 .6-.1.2-.1.1-.3.3-.5.1-.1.3 0 .4-.1.2-.1.3-.3.4-.5v-.2c0-.1.1-.2.1-.3 0-.1-.1-.1-.1-.2v-.3c0-.2 0-.4-.1-.5-.4-.7-1.2-.9-2-.8-.2 0-.3.1-.4.2-.2.1-.1.2-.3.2-.1 0-.2.1-.2.2v.3c0 .1 0 .1 0 0M54.1-71.7v.2c-.1.1-.1.1-.2.1-.1.1-.1.3-.1.4-.2.1 0 .2 0 .3v.2c0 .1 0 .3.1.4.1.2.3.4.4.5.2.1.4.6.6.6.2 0 .4-.1.5-.1.2 0 .4 0 .6-.1.2-.1.1-.3.3-.5.1-.1.3 0 .4-.1.2-.1.3-.3.4-.5v-.2c0-.1.1-.2.1-.3 0-.1-.1-.1-.1-.2v-.3c0-.2 0-.4-.1-.5-.4-.7-1.2-.9-2-.8-.2 0-.3.1-.4.2-.2.1-.1.2-.3.2-.1 0-.2.1-.2.2v.3c0 .1 0 .1 0 0M46.4-71.7v.2c-.1.1-.1.1-.2.1-.1.1-.1.3-.1.4-.2.1 0 .2 0 .3v.2c0 .1 0 .3.1.4.1.2.3.4.4.5.2.1.4.6.6.6.2 0 .4-.1.5-.1.2 0 .4 0 .6-.1.2-.1.1-.3.3-.5.1-.1.3 0 .4-.1.2-.1.3-.3.4-.5v-.2c0-.1.1-.2.1-.3 0-.1-.1-.1-.1-.2v-.3c0-.2 0-.4-.1-.5-.4-.7-1.2-.9-2-.8-.2 0-.3.1-.4.2-.2.1-.1.2-.3.2-.1 0-.2.1-.2.2v.3c0 .1 0 .1 0 0M38.8-71.7v.2c-.1.1-.1.1-.2.1-.1.1-.1.3-.1.4-.2.1 0 .2 0 .3v.2c0 .1 0 .3.1.4.1.2.3.4.4.5.2.1.4.6.6.6.2 0 .4-.1.5-.1.2 0 .4 0 .6-.1.2-.1.1-.3.3-.5.1-.1.3 0 .4-.1.2-.1.3-.3.4-.5v-.2c0-.1.1-.2.1-.3 0-.1-.1-.1-.1-.2v-.3c0-.2 0-.4-.1-.5-.4-.7-1.2-.9-2-.8-.2 0-.3.1-.4.2-.2.1-.1.2-.3.2-.1 0-.2.1-.2.2v.3c0 .1 0 .1 0 0M31.1-71.7v.2c-.1.1-.1.1-.2.1-.1.1-.1.3-.1.4-.2.1 0 .2 0 .3v.2c0 .1 0 .3.1.4.1.2.3.4.4.5.2.1.4.6.6.6.2 0 .4-.1.5-.1.2 0 .4 0 .6-.1.2-.1.1-.3.3-.5.1-.1.3 0 .4-.1.2-.1.3-.3.4-.5v-.2c0-.1.1-.2.1-.3 0-.1-.1-.1-.1-.2v-.3c0-.2 0-.4-.1-.5-.4-.7-1.2-.9-2-.8-.2 0-.3.1-.4.2-.2.1-.1.2-.3.2-.1 0-.2.1-.2.2v.3c0 .1 0 .1 0 0M23.4-71.7v.2c-.1.1-.1.1-.2.1-.1.1-.1.3-.1.4-.2.1 0 .2 0 .3v.2c0 .1 0 .3.1.4.1.2.3.4.4.5.2.1.4.6.6.6.2 0 .4-.1.5-.1.2 0 .4 0 .6-.1.2-.1.1-.3.3-.5.1-.1.3 0 .4-.1.2-.1.3-.3.4-.5v-.2c0-.1.1-.2.1-.3 0-.1-.1-.1-.1-.2v-.3c0-.2 0-.4-.1-.5-.4-.7-1.2-.9-2-.8-.2 0-.3.1-.4.2-.2.1-.1.2-.3.2-.1 0-.2.1-.2.2v.3c0 .1 0 .1 0 0M15.8-71.7v.2c-.1.1-.1.1-.2.1-.1.1-.1.3-.1.4-.2.1 0 .2 0 .3v.2c0 .1 0 .3.1.4.1.2.3.4.4.5.2.1.4.6.6.6.2 0 .4-.1.5-.1.2 0 .4 0 .6-.1.2-.1.1-.3.3-.5.1-.1.3 0 .4-.1.2-.1.3-.3.4-.5v-.2c0-.1.1-.2.1-.3 0-.1-.1-.1-.1-.2v-.3c0-.2 0-.4-.1-.5-.4-.7-1.2-.9-2-.8-.2 0-.3.1-.4.2-.2.1-.1.2-.3.2-.1 0-.2.1-.2.2v.3c0 .1 0 .1 0 0M8.1-71.7v.2l-.2.2c-.1.1-.1.3-.1.4-.2.1 0 .2 0 .3v.2c0 .1 0 .3.1.4.1.2.3.4.4.5.2.1.4.6.6.6.2 0 .4-.1.5-.1.2 0 .4 0 .6-.1.2-.1.1-.3.3-.5.1-.1.3 0 .4-.1.2-.1.3-.3.4-.5v-.2c0-.1.1-.2.1-.3 0-.1-.1-.1-.1-.2v-.3c0-.2 0-.4-.1-.5-.4-.7-1.2-.9-2-.8-.2 0-.3.1-.4.2-.2.1-.1.2-.3.2-.1 0-.2.1-.2.2v.2c0 .1 0 .1 0 0M.4-71.7v.2c-.1.1-.1.1-.2.1-.1.1-.1.3-.1.4-.2.1 0 .2 0 .3v.2c0 .1 0 .3.1.4.1.2.3.4.4.5.2.2.4.6.6.7.2 0 .4-.1.5-.1.2 0 .4 0 .6-.1.2-.1.1-.3.3-.5.1-.1.3 0 .4-.1.2-.1.3-.3.4-.5v-.2c0-.1.1-.2.1-.3 0-.1-.1-.1-.1-.2v-.3c0-.2 0-.4-.1-.5-.4-.7-1.2-.9-2-.8-.2 0-.3.1-.4.2-.2.1-.1.2-.3.2-.1 0-.2.1-.2.2v.2c0 .1 0 .1 0 0"/><g><path class="st2" d="M69.4-71.7v.2c-.1.1-.1.1-.2.1-.1.1-.1.3-.1.4-.2.1 0 .2 0 .3v.2c0 .1 0 .3.1.4.1.2.3.4.4.5.2.1.4.6.6.6.2 0 .4-.1.5-.1.2 0 .4 0 .6-.1.2-.1.1-.3.3-.5.1-.1.3 0 .4-.1.2-.1.3-.3.4-.5v-.2c0-.1.1-.2.1-.3 0-.1-.1-.1-.1-.2v-.3c0-.2 0-.4-.1-.5-.4-.7-1.2-.9-2-.8-.2 0-.3.1-.4.2-.2.1-.1.2-.3.2-.1 0-.2.1-.2.2v.3c0 .1 0 .1 0 0"/></g><path class="st2" d="M.5-71.7v.2c-.1.1-.1.1-.2.1-.1.1-.1.3-.1.4-.2.1 0 .2 0 .3v.2c0 .1 0 .3.1.4.1.2.3.4.4.5.2.2.3.6.6.7.2 0 .4-.1.5-.1.2 0 .4 0 .6-.1.2-.1.1-.3.3-.5.1-.1.3 0 .4-.1.2-.1.3-.3.4-.5v-.2c0-.1.1-.2.1-.3 0-.1-.1-.1-.1-.2v-.3c0-.2 0-.4-.1-.5-.4-.7-1.2-.9-2-.8-.2 0-.3.1-.4.2-.2.1-.1.2-.3.2-.1 0-.2.1-.2.2v.2c0 .1 0 .1 0 0"/><g><path class="st2" d="M69.4-64v.2c-.1.1-.1.1-.2.1-.1.1-.1.3-.1.4-.2.1 0 .2 0 .3v.2c0 .1 0 .3.1.4.1.2.3.4.4.5.2.1.4.6.6.6.2 0 .4-.1.5-.1.2 0 .4 0 .6-.1.2-.1.1-.3.3-.5.1-.1.3 0 .4-.1.2-.1.3-.3.4-.5v-.2c0-.1.1-.2.1-.3 0-.1-.1-.1-.1-.2v-.3c0-.2 0-.4-.1-.5-.4-.7-1.2-.9-2-.8-.2 0-.3.1-.4.2-.2.1-.1.2-.3.2-.1 0-.2.1-.2.2v.3M61.8-64v.2c-.1.1-.1.1-.2.1-.1.1-.1.3-.1.4-.2.1 0 .2 0 .3v.2c0 .1 0 .3.1.4.1.2.3.4.4.5.2.1.4.6.6.6.2 0 .4-.1.5-.1.2 0 .4 0 .6-.1.2-.1.1-.3.3-.5.1-.1.3 0 .4-.1.2-.1.3-.3.4-.5v-.2c0-.1.1-.2.1-.3 0-.1-.1-.1-.1-.2v-.3c0-.2 0-.4-.1-.5-.4-.7-1.2-.9-2-.8-.2 0-.3.1-.4.2-.2.1-.1.2-.3.2-.1 0-.2.1-.2.2v.3M54.1-64v.2c-.1.1-.1.1-.2.1-.1.1-.1.3-.1.4-.2.1 0 .2 0 .3v.2c0 .1 0 .3.1.4.1.2.3.4.4.5.2.1.4.6.6.6.2 0 .4-.1.5-.1.2 0 .4 0 .6-.1.2-.1.1-.3.3-.5.1-.1.3 0 .4-.1.2-.1.3-.3.4-.5v-.2c0-.1.1-.2.1-.3 0-.1-.1-.1-.1-.2v-.3c0-.2 0-.4-.1-.5-.4-.7-1.2-.9-2-.8-.2 0-.3.1-.4.2-.2.1-.1.2-.3.2-.1 0-.2.1-.2.2v.3M46.5-64v.2c-.1.1-.1.1-.2.1-.1.1-.1.3-.1.4-.2.1 0 .2 0 .3v.2c0 .1 0 .3.1.4.1.2.3.4.4.5.2.1.4.6.6.6.2 0 .4-.1.5-.1.2 0 .4 0 .6-.1.2-.1.1-.3.3-.5.1-.1.3 0 .4-.1.2-.1.3-.3.4-.5v-.2c0-.1.1-.2.1-.3 0-.1-.1-.1-.1-.2v-.3c0-.2 0-.4-.1-.5-.4-.7-1.2-.9-2-.8-.2 0-.3.1-.4.2-.2.1-.1.2-.3.2-.1 0-.2.1-.2.2v.3M38.8-64v.2c-.1.1-.1.1-.2.1-.1.1-.1.3-.1.4-.2.1 0 .2 0 .3v.2c0 .1 0 .3.1.4.1.2.3.4.4.5.2.1.4.6.6.6.2 0 .4-.1.5-.1.2 0 .4 0 .6-.1.2-.1.1-.3.3-.5.1-.1.3 0 .4-.1.2-.1.3-.3.4-.5v-.2c0-.1.1-.2.1-.3 0-.1-.1-.1-.1-.2v-.3c0-.2 0-.4-.1-.5-.4-.7-1.2-.9-2-.8-.2 0-.3.1-.4.2-.2.1-.1.2-.3.2-.1 0-.2.1-.2.2v.3M31.1-64v.2c-.1.1-.1.1-.2.1-.1.1-.1.3-.1.4-.2.1 0 .2 0 .3v.2c0 .1 0 .3.1.4.1.2.3.4.4.5.2.1.4.6.6.6.2 0 .4-.1.5-.1.2 0 .4 0 .6-.1.2-.1.1-.3.3-.5.1-.1.3 0 .4-.1.2-.1.3-.3.4-.5v-.2c0-.1.1-.2.1-.3 0-.1-.1-.1-.1-.2v-.3c0-.2 0-.4-.1-.5-.4-.7-1.2-.9-2-.8-.2 0-.3.1-.4.2-.2.1-.1.2-.3.2-.1 0-.2.1-.2.2v.3M23.5-64v.2c-.1.1-.1.1-.2.1-.1.1-.1.3-.1.4-.2.1 0 .2 0 .3v.2c0 .1 0 .3.1.4.1.2.3.4.4.5.2.1.4.6.6.6.2 0 .4-.1.5-.1.2 0 .4 0 .6-.1.2-.1.1-.3.3-.5.1-.1.3 0 .4-.1.2-.1.3-.3.4-.5v-.2c0-.1.1-.2.1-.3 0-.1-.1-.1-.1-.2v-.3c0-.2 0-.4-.1-.5-.4-.7-1.2-.9-2-.8-.2 0-.3.1-.4.2-.2.1-.1.2-.3.2-.1 0-.2.1-.2.2v.3M15.8-64v.2c-.1.1-.1.1-.2.1-.1.1-.1.3-.1.4-.2.1 0 .2 0 .3v.2c0 .1 0 .3.1.4.1.2.3.4.4.5.2.1.4.6.6.6.2 0 .4-.1.5-.1.2 0 .4 0 .6-.1.2-.1.1-.3.3-.5.1-.1.3 0 .4-.1.2-.1.3-.3.4-.5v-.2c0-.1.1-.2.1-.3 0-.1-.1-.1-.1-.2v-.3c0-.2 0-.4-.1-.5-.4-.7-1.2-.9-2-.8-.2 0-.3.1-.4.2-.2.1-.1.2-.3.2-.1 0-.2.1-.2.2v.3M8.2-64v.2c-.1.1-.2.1-.2.1-.1.1-.1.3-.1.4-.2.1 0 .2 0 .3v.2c0 .1 0 .3.1.4 0 .2.2.4.3.5.2.1.4.6.6.6.2 0 .4-.1.5-.1.2 0 .4 0 .6-.1.2-.1.1-.3.3-.5.1-.1.3 0 .4-.1.2-.1.3-.3.4-.5v-.2c0-.1.1-.2.1-.3 0-.1-.1-.1-.1-.2v-.3c0-.2 0-.4-.1-.5-.4-.7-1.2-.9-2-.8-.2 0-.3.1-.4.2-.2.1-.1.2-.3.2-.1 0-.2.1-.2.2.1.3.1.2.1.3-.1 0-.1 0 0 0M.5-64v.2c-.1.1-.1.1-.2.1-.1.1-.1.3-.1.4-.2.1 0 .2 0 .3v.2c0 .1 0 .3.1.4.1.2.3.4.4.5.2.1.4.6.6.6.2 0 .4-.1.5-.1.2 0 .4 0 .6-.1.2-.1.1-.3.3-.5.1 0 .3.1.4 0 .2-.1.3-.3.4-.5v-.2c0-.1.1-.2.1-.3 0-.1-.1-.1-.1-.2v-.3c0-.2 0-.4-.1-.5-.4-.7-1.2-.9-2-.8-.2 0-.3.1-.4.2-.2.1-.1.2-.3.2-.1 0-.2.1-.2.2v.2"/><g><path class="st2" d="M69.4-56.3v.2c-.1.1-.1.1-.2.1-.1.1-.1.3-.1.4-.2.1 0 .2 0 .3v.2c0 .1 0 .3.1.4.1.2.3.4.4.5.2.1.4.6.6.6.2 0 .4-.1.5-.1.2 0 .4 0 .6-.1.2-.1.1-.3.3-.5.1-.1.3 0 .4-.1.2-.1.3-.3.4-.5v-.2c0-.1.1-.2.1-.3 0-.1-.1-.1-.1-.2v-.3c0-.2 0-.4-.1-.5-.4-.7-1.2-.9-2-.8-.2 0-.3.1-.4.2-.2.1-.1.2-.3.2-.1 0-.2.1-.2.2v.3M61.8-56.3v.2c-.1.1-.1.1-.2.1-.1.1-.1.3-.1.4-.2.1 0 .2 0 .3v.2c0 .1 0 .3.1.4.1.2.3.4.4.5.2.1.4.6.6.6.2 0 .4-.1.5-.1.2 0 .4 0 .6-.1.2-.1.1-.3.3-.5.1-.1.3 0 .4-.1.2-.1.3-.3.4-.5v-.2c0-.1.1-.2.1-.3 0-.1-.1-.1-.1-.2v-.3c0-.2 0-.4-.1-.5-.4-.7-1.2-.9-2-.8-.2 0-.3.1-.4.2-.2.1-.1.2-.3.2-.1 0-.2.1-.2.2v.3M54.1-56.3v.2c-.1 0-.1 0-.2.1s-.1.3-.1.4c-.2.1 0 .2 0 .3v.2c0 .1 0 .3.1.4.1.2.3.4.4.5.2.1.4.6.6.6.2 0 .4-.1.5-.1.2 0 .4 0 .6-.1.2-.1.1-.3.3-.5.1-.1.3 0 .4-.1.2-.1.3-.3.4-.5v-.2c0-.1.1-.2.1-.3 0-.1-.1-.1-.1-.2v-.3c0-.2 0-.4-.1-.5-.4-.7-1.2-.9-2-.8-.2 0-.3.1-.4.2-.2.1-.1.2-.3.2-.1 0-.2.1-.2.2v.3M46.5-56.3v.2c-.1.1-.1.1-.2.1-.1.1-.1.3-.1.4-.2.1 0 .2 0 .3v.2c0 .1 0 .3.1.4.1.2.3.4.4.5.2.1.4.6.6.6.2 0 .4-.1.5-.1.2 0 .4 0 .6-.1.2-.1.1-.3.3-.5.1-.1.3 0 .4-.1.2-.1.3-.3.4-.5v-.2c0-.1.1-.2.1-.3 0-.1-.1-.1-.1-.2v-.3c0-.2 0-.4-.1-.5-.4-.7-1.2-.9-2-.8-.2 0-.3.1-.4.2-.2.1-.1.2-.3.2-.1 0-.2.1-.2.2v.3M38.8-56.3v.2c-.1.1-.1.1-.2.1-.1.1-.1.3-.1.4-.2.1 0 .2 0 .3v.2c0 .1 0 .3.1.4.1.2.3.4.4.5.2.1.4.6.6.6.2 0 .4-.1.5-.1.2 0 .4 0 .6-.1.2-.1.1-.3.3-.5.1-.1.3 0 .4-.1.2-.1.3-.3.4-.5v-.2c0-.1.1-.2.1-.3 0-.1-.1-.1-.1-.2v-.3c0-.2 0-.4-.1-.5-.4-.7-1.2-.9-2-.8-.2 0-.3.1-.4.2-.2.1-.1.2-.3.2-.1 0-.2.1-.2.2v.3M31.1-56.3v.2c-.1.1-.1.1-.2.1-.1.1-.1.3-.1.4-.2.1 0 .2 0 .3v.2c0 .1 0 .3.1.4.1.2.3.4.4.5.2.1.4.6.6.6.2 0 .4-.1.5-.1.2 0 .4 0 .6-.1.2-.1.1-.3.3-.5.1-.1.3 0 .4-.1.2-.1.3-.3.4-.5v-.2c0-.1.1-.2.1-.3 0-.1-.1-.1-.1-.2v-.3c0-.2 0-.4-.1-.5-.4-.7-1.2-.9-2-.8-.2 0-.3.1-.4.2-.2.1-.1.2-.3.2-.1 0-.2.1-.2.2v.3M23.5-56.3v.2c-.1.1-.1.1-.2.1-.1.1-.1.3-.1.4-.2.1 0 .2 0 .3v.2c0 .1 0 .3.1.4.1.2.3.4.4.5.2.1.4.6.6.6.2 0 .4-.1.5-.1.2 0 .4 0 .6-.1.2-.1.1-.3.3-.5.1-.1.3 0 .4-.1.2-.1.3-.3.4-.5v-.2c0-.1.1-.2.1-.3 0-.1-.1-.1-.1-.2v-.3c0-.2 0-.4-.1-.5-.4-.7-1.2-.9-2-.8-.2 0-.3.1-.4.2-.2.1-.1.2-.3.2-.1 0-.2.1-.2.2v.3M15.8-56.3v.2c-.1.1-.1.1-.2.1-.1.1-.1.3-.1.4-.2.1 0 .2 0 .3v.2c0 .1 0 .3.1.4.1.2.3.4.4.5.2.1.4.6.6.6.2 0 .4-.1.5-.1.2 0 .4 0 .6-.1.2-.1.1-.3.3-.5.1-.1.3 0 .4-.1.2-.1.3-.3.4-.5v-.2c0-.1.1-.2.1-.3 0-.1-.1-.1-.1-.2v-.3c0-.2 0-.4-.1-.5-.4-.7-1.2-.9-2-.8-.2 0-.3.1-.4.2-.2.1-.1.2-.3.2-.1 0-.2.1-.2.2v.3M8.2-56.3v.2c-.1 0-.2 0-.2.1-.1.1-.1.3-.1.4-.2.1 0 .2 0 .3v.2c0 .1 0 .3.1.4.1.2.3.4.4.5.2.1.4.6.6.6.2 0 .4-.1.5-.1.2 0 .4 0 .6-.1.2-.1.1-.3.3-.5.1-.1.3 0 .4-.1.2-.1.3-.3.4-.5v-.2c0-.1.1-.2.1-.3 0-.1-.1-.1-.1-.2v-.3c0-.2 0-.4-.1-.5-.4-.7-1.2-.9-2-.8-.2 0-.3.1-.4.2-.2.1-.1.2-.3.2-.1 0-.2.1-.2.2v.3c-.1 0-.1 0 0 0M.5-56.3v.2c-.1.1-.1.1-.2.1-.1.1-.1.3-.1.4-.2.1 0 .2 0 .3v.2c0 .1 0 .3.1.4.1.2.3.4.4.5.2.1.4.6.6.6.2 0 .4-.1.5-.1.2 0 .4 0 .6-.1.2-.1.1-.3.3-.5.1-.1.3 0 .4-.1.2-.1.3-.3.4-.5v-.2c0-.1.1-.2.1-.3 0-.1-.1-.1-.1-.2v-.3c0-.2 0-.4-.1-.5-.4-.7-1.2-.9-2-.8-.2 0-.3.1-.4.2-.2.1-.1.2-.3.2-.1 0-.2.1-.2.2v.3"/></g><g><path class="st2" d="M69.4-48.7v.2c-.1.1-.1.1-.2.1-.1.1-.1.3-.1.4-.2.1 0 .2 0 .3v.2c0 .1 0 .3.1.4.1.2.3.4.4.5.2.1.4.6.6.6.2 0 .4-.1.5-.1.2 0 .4 0 .6-.1.2-.1.1-.3.3-.5.1-.1.3 0 .4-.1.2-.1.3-.3.4-.5v-.2c0-.1.1-.2.1-.3 0-.1-.1-.1-.1-.2v-.3c0-.2 0-.4-.1-.5-.4-.7-1.2-.9-2-.8-.2 0-.3.1-.4.2-.2.1-.1.2-.3.2-.1 0-.2.1-.2.2v.3M61.8-48.7v.2c-.1.1-.1.1-.2.1-.1.1-.1.3-.1.4-.2.1 0 .2 0 .3v.2c0 .1 0 .3.1.4.1.2.3.4.4.5.2.1.4.6.6.6.2 0 .4-.1.5-.1.2 0 .4 0 .6-.1.2-.1.1-.3.3-.5.1-.1.3 0 .4-.1.2-.1.3-.3.4-.5v-.2c0-.1.1-.2.1-.3 0-.1-.1-.1-.1-.2v-.3c0-.2 0-.4-.1-.5-.4-.7-1.2-.9-2-.8-.2 0-.3.1-.4.2-.2.1-.1.2-.3.2-.1 0-.2.1-.2.2v.3M54.1-48.7v.2c-.1.1-.1.1-.2.1-.1.1-.1.3-.1.4-.2.1 0 .2 0 .3v.2c0 .1 0 .3.1.4.1.2.3.4.4.5.2.1.4.6.6.6.2 0 .4-.1.5-.1.2 0 .4 0 .6-.1.2-.1.1-.3.3-.5.1-.1.3 0 .4-.1.2-.1.3-.3.4-.5v-.2c0-.1.1-.2.1-.3 0-.1-.1-.1-.1-.2v-.3c0-.2 0-.4-.1-.5-.4-.7-1.2-.9-2-.8-.2 0-.3.1-.4.2-.2.1-.1.2-.3.2-.1 0-.2.1-.2.2v.3M46.5-48.7v.2c-.1.1-.1.1-.2.1-.1.1-.1.3-.1.4-.2.1 0 .2 0 .3v.2c0 .1 0 .3.1.4.1.2.3.4.4.5.2.1.4.6.6.6.2 0 .4-.1.5-.1.2 0 .4 0 .6-.1.2-.1.1-.3.3-.5.1-.1.3 0 .4-.1.2-.1.3-.3.4-.5v-.2c0-.1.1-.2.1-.3 0-.1-.1-.1-.1-.2v-.3c0-.2 0-.4-.1-.5-.4-.7-1.2-.9-2-.8-.2 0-.3.1-.4.2-.2.1-.1.2-.3.2-.1 0-.2.1-.2.2v.3M38.8-48.7v.2c-.1.1-.1.1-.2.1-.1.1-.1.3-.1.4-.2.1 0 .2 0 .3v.2c0 .1 0 .3.1.4.1.2.3.4.4.5.2.1.4.6.6.6.2 0 .4-.1.5-.1.2 0 .4 0 .6-.1.2-.1.1-.3.3-.5.1-.1.3 0 .4-.1.2-.1.3-.3.4-.5v-.2c0-.1.1-.2.1-.3 0-.1-.1-.1-.1-.2v-.3c0-.2 0-.4-.1-.5-.4-.7-1.2-.9-2-.8-.2 0-.3.1-.4.2-.2.1-.1.2-.3.2-.1 0-.2.1-.2.2v.3M31.1-48.7v.2c-.1.1-.1.1-.2.1-.1.1-.1.3-.1.4-.2.1 0 .2 0 .3v.2c0 .1 0 .3.1.4.1.2.3.4.4.5.2.1.4.6.6.6.2 0 .4-.1.5-.1.2 0 .4 0 .6-.1.2-.1.1-.3.3-.5.1-.1.3 0 .4-.1.2-.1.3-.3.4-.5v-.2c0-.1.1-.2.1-.3 0-.1-.1-.1-.1-.2v-.3c0-.2 0-.4-.1-.5-.4-.7-1.2-.9-2-.8-.2 0-.3.1-.4.2-.2.1-.1.2-.3.2-.1 0-.2.1-.2.2v.3M23.5-48.7v.2c-.1.1-.1.1-.2.1-.1.1-.1.3-.1.4-.2.1 0 .2 0 .3v.2c0 .1 0 .3.1.4.1.2.3.4.4.5.2.1.4.6.6.6.2 0 .4-.1.5-.1.2 0 .4 0 .6-.1.2-.1.1-.3.3-.5.1-.1.3 0 .4-.1.2-.1.3-.3.4-.5v-.2c0-.1.1-.2.1-.3 0-.1-.1-.1-.1-.2v-.3c0-.2 0-.4-.1-.5-.4-.7-1.2-.9-2-.8-.2 0-.3.1-.4.2-.2.1-.1.2-.3.2-.1 0-.2.1-.2.2v.3M15.8-48.7v.2c-.1.1-.1.1-.2.1-.1.1-.1.3-.1.4-.2.1 0 .2 0 .3v.2c0 .1 0 .3.1.4.1.2.3.4.4.5.2.1.4.6.6.6.2 0 .4-.1.5-.1.2 0 .4 0 .6-.1.2-.1.1-.3.3-.5.1-.1.3 0 .4-.1.2-.1.3-.3.4-.5v-.2c0-.1.1-.2.1-.3 0-.1-.1-.1-.1-.2v-.3c0-.2 0-.4-.1-.5-.4-.7-1.2-.9-2-.8-.2 0-.3.1-.4.2-.2.1-.1.2-.3.2-.1 0-.2.1-.2.2v.3M8.2-48.7v.2c-.1.1-.2.1-.2.1-.1.1-.1.3-.1.4-.2.1 0 .2 0 .3v.2c0 .1 0 .3.1.4.1.2.3.4.4.5.1.2.3.6.5.6s.4-.1.5-.1c.2 0 .4 0 .6-.1.2-.1.1-.3.3-.5.1-.1.3 0 .4-.1.2-.1.3-.3.4-.5v-.2c0-.1.1-.2.1-.3 0-.1-.1-.1-.1-.2v-.3c0-.2 0-.4-.1-.5-.4-.7-1.2-.9-2-.8-.2 0-.3.1-.4.2-.2.1-.1.2-.3.2-.1 0-.2.1-.2.2.1.3.1.2.1.3-.1 0-.1 0 0 0M.5-48.7v.2c-.1.1-.1.1-.2.1-.1.1-.1.3-.1.4-.2.1 0 .2 0 .3v.2c0 .1 0 .3.1.4.1.2.3.4.4.5.2.2.3.6.6.6.2 0 .4-.1.5-.1.2 0 .4 0 .6-.1.2-.1.1-.3.3-.5.1-.1.3 0 .4-.1.2-.1.3-.3.4-.5v-.2c0-.1.1-.2.1-.3 0-.1-.1-.1-.1-.2v-.3c0-.2 0-.4-.1-.5-.4-.7-1.2-.9-2-.8-.2 0-.3.1-.4.2-.2.1-.1.2-.3.2-.1 0-.2.1-.2.2v.3"/></g><g><path class="st2" d="M69.4-41v.2c-.1.1-.1.1-.2.1-.1.1-.1.3-.1.4-.2.1 0 .2 0 .3v.2c0 .1 0 .3.1.4.1.2.3.4.4.5.2.1.4.6.6.6.2 0 .4-.1.5-.1.2 0 .4 0 .6-.1.2-.1.1-.3.3-.5.1-.1.3 0 .4-.1.2-.1.3-.3.4-.5v-.2c0-.1.1-.2.1-.3 0-.1-.1-.1-.1-.2v-.3c0-.2 0-.4-.1-.5-.4-.7-1.2-.9-2-.8-.2 0-.3.1-.4.2-.2.1-.1.2-.3.2-.1 0-.2.1-.2.2v.3M61.8-41v.2c-.1.1-.1.1-.2.1-.1.1-.1.3-.1.4-.2.1 0 .2 0 .3v.2c0 .1 0 .3.1.4.1.2.3.4.4.5.2.1.4.6.6.6.2 0 .4-.1.5-.1.2 0 .4 0 .6-.1.2-.1.1-.3.3-.5.1-.1.3 0 .4-.1.2-.1.3-.3.4-.5v-.2c0-.1.1-.2.1-.3 0-.1-.1-.1-.1-.2v-.3c0-.2 0-.4-.1-.5-.4-.7-1.2-.9-2-.8-.2 0-.3.1-.4.2-.2.1-.1.2-.3.2-.1 0-.2.1-.2.2v.3M54.1-41v.2c-.1.1-.1.1-.2.1-.1.1-.1.3-.1.4-.2.1 0 .2 0 .3v.2c0 .1 0 .3.1.4.1.2.3.4.4.5.2.1.4.6.6.6.2 0 .4-.1.5-.1.2 0 .4 0 .6-.1.2-.1.1-.3.3-.5.1-.1.3 0 .4-.1.2-.1.3-.3.4-.5v-.2c0-.1.1-.2.1-.3 0-.1-.1-.1-.1-.2v-.3c0-.2 0-.4-.1-.5-.4-.7-1.2-.9-2-.8-.2 0-.3.1-.4.2-.2.1-.1.2-.3.2-.1 0-.2.1-.2.2v.3M46.5-41v.2c-.1.1-.1.1-.2.1-.1.1-.1.3-.1.4-.2.1 0 .2 0 .3v.2c0 .1 0 .3.1.4.1.2.3.4.4.5.2.1.4.6.6.6.2 0 .4-.1.5-.1.2 0 .4 0 .6-.1.2-.1.1-.3.3-.5.1-.1.3 0 .4-.1.2-.1.3-.3.4-.5v-.2c0-.1.1-.2.1-.3 0-.1-.1-.1-.1-.2v-.3c0-.2 0-.4-.1-.5-.4-.7-1.2-.9-2-.8-.2 0-.3.1-.4.2-.2.1-.1.2-.3.2-.1 0-.2.1-.2.2v.3M38.8-41v.2c-.1.1-.1.1-.2.1-.1.1-.1.3-.1.4-.2.1 0 .2 0 .3v.2c0 .1 0 .3.1.4.1.2.3.4.4.5.2.1.4.6.6.6.2 0 .4-.1.5-.1.2 0 .4 0 .6-.1.2-.1.1-.3.3-.5.1-.1.3 0 .4-.1.2-.1.3-.3.4-.5v-.2c0-.1.1-.2.1-.3 0-.1-.1-.1-.1-.2v-.3c0-.2 0-.4-.1-.5-.4-.7-1.2-.9-2-.8-.2 0-.3.1-.4.2-.2.1-.1.2-.3.2-.1 0-.2.1-.2.2v.3M31.1-41v.2c-.1.1-.1.1-.2.1-.1.1-.1.3-.1.4-.2.1 0 .2 0 .3v.2c0 .1 0 .3.1.4.1.2.3.4.4.5.2.1.4.6.6.6.2 0 .4-.1.5-.1.2 0 .4 0 .6-.1.2-.1.1-.3.3-.5.1-.1.3 0 .4-.1.2-.1.3-.3.4-.5v-.2c0-.1.1-.2.1-.3 0-.1-.1-.1-.1-.2v-.3c0-.2 0-.4-.1-.5-.4-.7-1.2-.9-2-.8-.2 0-.3.1-.4.2-.2.1-.1.2-.3.2-.1 0-.2.1-.2.2v.3M23.5-41v.2c-.1.1-.1.1-.2.1-.1.1-.1.3-.1.4-.2.1 0 .2 0 .3v.2c0 .1 0 .3.1.4.1.2.3.4.4.5.2.1.4.6.6.6.2 0 .4-.1.5-.1.2 0 .4 0 .6-.1.2-.1.1-.3.3-.5.1-.1.3 0 .4-.1.2-.1.3-.3.4-.5v-.2c0-.1.1-.2.1-.3 0-.1-.1-.1-.1-.2v-.3c0-.2 0-.4-.1-.5-.4-.7-1.2-.9-2-.8-.2 0-.3.1-.4.2-.2.1-.1.2-.3.2-.1 0-.2.1-.2.2v.3M15.8-41v.2c-.1.1-.1.1-.2.1-.1.1-.1.3-.1.4-.2.1 0 .2 0 .3v.2c0 .1 0 .3.1.4.1.2.3.4.4.5.2.1.4.6.6.6.2 0 .4-.1.5-.1.2 0 .4 0 .6-.1.2-.1.1-.3.3-.5.1-.1.3 0 .4-.1.2-.1.3-.3.4-.5v-.2c0-.1.1-.2.1-.3 0-.1-.1-.1-.1-.2v-.3c0-.2 0-.4-.1-.5-.4-.7-1.2-.9-2-.8-.2 0-.3.1-.4.2-.2.1-.1.2-.3.2-.1 0-.2.1-.2.2v.3M8.2-41v.2c-.1 0-.2 0-.2.1-.1.1-.1.3-.1.4-.2.1 0 .2 0 .3v.2c0 .1 0 .3.1.4.1.2.3.4.4.5.2.1.4.6.6.6.2 0 .4-.1.5-.1.2 0 .4 0 .6-.1.2-.1.1-.3.3-.5.1-.1.3 0 .4-.1.2-.1.3-.3.4-.5v-.2c0-.1.1-.2.1-.3 0-.1-.1-.1-.1-.2v-.3c0-.2 0-.4-.1-.5-.4-.7-1.2-.9-2-.8-.2 0-.3.1-.4.2-.2.1-.1.2-.3.2-.1 0-.2.1-.2.2v.3c-.1 0-.1 0 0 0M.5-41v.2c-.1.1-.1.1-.2.1-.1.1-.1.3-.1.4-.2.1 0 .2 0 .3v.2c0 .1 0 .3.1.4.1.2.3.4.4.5.2.1.4.6.6.6.2 0 .4-.1.5-.1.2 0 .4 0 .6-.1.2-.1.1-.3.3-.5h.4c.2-.1.3-.3.4-.5v-.2c0-.1.1-.2.1-.3 0-.1-.1-.1-.1-.2v-.3c0-.2 0-.4-.1-.5-.4-.7-1.2-.9-2-.8-.2 0-.3.1-.4.2-.2.1-.1.2-.3.2-.1 0-.2.1-.2.2v.2"/></g><g><path class="st2" d="M69.4-33.4v.2c-.1.1-.1.1-.2.1-.1.1-.1.3-.1.4-.2.1 0 .2 0 .3v.2c0 .1 0 .3.1.4.1.2.3.4.4.5.2.1.4.6.6.6.2 0 .4-.1.5-.1.2 0 .4 0 .6-.1.2-.1.1-.3.3-.5.1-.1.3 0 .4-.1.2-.1.3-.3.4-.5v-.2c0-.1.1-.2.1-.3 0-.1-.1-.1-.1-.2v-.3c0-.2 0-.4-.1-.5-.4-.7-1.2-.9-2-.8-.2 0-.3.1-.4.2-.2.1-.1.2-.3.2-.1 0-.2.1-.2.2v.3M61.8-33.4v.2c-.1.1-.1.1-.2.1-.1.1-.1.3-.1.4-.2.1 0 .2 0 .3v.2c0 .1 0 .3.1.4.1.2.3.4.4.5.2.1.4.6.6.6.2 0 .4-.1.5-.1.2 0 .4 0 .6-.1.2-.1.1-.3.3-.5.1-.1.3 0 .4-.1.2-.1.3-.3.4-.5v-.2c0-.1.1-.2.1-.3 0-.1-.1-.1-.1-.2v-.3c0-.2 0-.4-.1-.5-.4-.7-1.2-.9-2-.8-.2 0-.3.1-.4.2-.2.1-.1.2-.3.2-.1 0-.2.1-.2.2v.3M54.1-33.4v.2c-.1.1-.1.1-.2.1-.1.1-.1.3-.1.4-.2.1 0 .2 0 .3v.2c0 .1 0 .3.1.4.1.2.3.4.4.5.2.1.4.6.6.6.2 0 .4-.1.5-.1.2 0 .4 0 .6-.1.2-.1.1-.3.3-.5.1-.1.3 0 .4-.1.2-.1.3-.3.4-.5v-.2c0-.1.1-.2.1-.3 0-.1-.1-.1-.1-.2v-.3c0-.2 0-.4-.1-.5-.4-.7-1.2-.9-2-.8-.2 0-.3.1-.4.2-.2.1-.1.2-.3.2-.1 0-.2.1-.2.2v.3M46.5-33.4v.2c-.1.1-.1.1-.2.1-.1.1-.1.3-.1.4-.2.1 0 .2 0 .3v.2c0 .1 0 .3.1.4.1.2.3.4.4.5.2.1.4.6.6.6.2 0 .4-.1.5-.1.2 0 .4 0 .6-.1.2-.1.1-.3.3-.5.1-.1.3 0 .4-.1.2-.1.3-.3.4-.5v-.2c0-.1.1-.2.1-.3 0-.1-.1-.1-.1-.2v-.3c0-.2 0-.4-.1-.5-.4-.7-1.2-.9-2-.8-.2 0-.3.1-.4.2-.2.1-.1.2-.3.2-.1 0-.2.1-.2.2v.3M38.8-33.4v.2c-.1.1-.1.1-.2.1-.1.1-.1.3-.1.4-.2.1 0 .2 0 .3v.2c0 .1 0 .3.1.4.1.2.3.4.4.5.2.1.4.6.6.6.2 0 .4-.1.5-.1.2 0 .4 0 .6-.1.2-.1.1-.3.3-.5.1-.1.3 0 .4-.1.2-.1.3-.3.4-.5v-.2c0-.1.1-.2.1-.3 0-.1-.1-.1-.1-.2v-.3c0-.2 0-.4-.1-.5-.4-.7-1.2-.9-2-.8-.2 0-.3.1-.4.2-.2.1-.1.2-.3.2-.1 0-.2.1-.2.2v.3M31.1-33.4v.2c-.1.1-.1.1-.2.1-.1.1-.1.3-.1.4-.2.1 0 .2 0 .3v.2c0 .1 0 .3.1.4.1.2.3.4.4.5.2.1.4.6.6.6.2 0 .4-.1.5-.1.2 0 .4 0 .6-.1.2-.1.1-.3.3-.5.1-.1.3 0 .4-.1.2-.1.3-.3.4-.5v-.2c0-.1.1-.2.1-.3 0-.1-.1-.1-.1-.2v-.3c0-.2 0-.4-.1-.5-.4-.7-1.2-.9-2-.8-.2 0-.3.1-.4.2-.2.1-.1.2-.3.2-.1 0-.2.1-.2.2v.3M23.5-33.4v.2c-.1.1-.1.1-.2.1-.1.1-.1.3-.1.4-.2.1 0 .2 0 .3v.2c0 .1 0 .3.1.4.1.2.3.4.4.5.2.1.4.6.6.6.2 0 .4-.1.5-.1.2 0 .4 0 .6-.1.2-.1.1-.3.3-.5.1-.1.3 0 .4-.1.2-.1.3-.3.4-.5v-.2c0-.1.1-.2.1-.3 0-.1-.1-.1-.1-.2v-.3c0-.2 0-.4-.1-.5-.4-.7-1.2-.9-2-.8-.2 0-.3.1-.4.2-.2.1-.1.2-.3.2-.1 0-.2.1-.2.2v.3M15.8-33.4v.2c-.1.1-.1.1-.2.1-.1.1-.1.3-.1.4-.2.1 0 .2 0 .3v.2c0 .1 0 .3.1.4.1.2.3.4.4.5.2.1.4.6.6.6.2 0 .4-.1.5-.1.2 0 .4 0 .6-.1.2-.1.1-.3.3-.5.1-.1.3 0 .4-.1.2-.1.3-.3.4-.5v-.2c0-.1.1-.2.1-.3 0-.1-.1-.1-.1-.2v-.3c0-.2 0-.4-.1-.5-.4-.7-1.2-.9-2-.8-.2 0-.3.1-.4.2-.2.1-.1.2-.3.2-.1 0-.2.1-.2.2v.3M8.2-33.4v.2c-.1.1-.2.1-.2.1-.1.1-.1.3-.1.4-.2.1 0 .2 0 .3v.2c0 .1 0 .3.1.4.1.2.3.4.4.5.2.1.4.6.6.6.2 0 .4-.1.5-.1.2 0 .4 0 .6-.1.2-.1.1-.3.3-.5.1-.1.3 0 .4-.1.2-.1.3-.3.4-.5v-.2c0-.1.1-.2.1-.3 0-.1-.1-.1-.1-.2v-.3c0-.2 0-.4-.1-.5-.4-.7-1.2-.9-2-.8-.2 0-.3.1-.4.2-.2.1-.1.2-.3.2-.1 0-.2.1-.2.2v.3c-.1 0-.1 0 0 0M.5-33.4v.2c-.1.1-.1.1-.2.1-.1.1-.1.3-.1.4-.2.1 0 .2 0 .3v.2c0 .1 0 .3.1.4.1.2.3.4.4.5.2.1.4.6.6.6.2 0 .4-.1.5-.1.2 0 .4 0 .6-.1.2-.1.1-.3.3-.5.1-.1.3 0 .4-.1.2-.1.3-.3.4-.5v-.2c0-.1.1-.2.1-.3 0-.1-.1-.1-.1-.2v-.3c0-.2 0-.4-.1-.5-.4-.7-1.2-.9-2-.8-.2 0-.3.1-.4.2-.2.1-.1.2-.3.2-.1 0-.2.1-.2.2v.3"/></g><g><path class="st2" d="M69.4-25.7v.2c-.1.1-.1.1-.2.1-.1.1-.1.3-.1.4-.2.1 0 .2 0 .3v.2c0 .1 0 .3.1.4.1.2.3.4.4.5.2.1.4.6.6.6.2 0 .4-.1.5-.1.2 0 .4 0 .6-.1.2-.1.1-.3.3-.5.1-.1.3 0 .4-.1.2-.1.3-.3.4-.5v-.2c0-.1.1-.2.1-.3 0-.1-.1-.1-.1-.2v-.3c0-.2 0-.4-.1-.5-.4-.7-1.2-.9-2-.8-.2 0-.3.1-.4.2-.2.1-.1.2-.3.2-.1 0-.2.1-.2.2v.3M61.8-25.7v.2c-.1.1-.1.1-.2.1-.1.1-.1.3-.1.4-.2.1 0 .2 0 .3v.2c0 .1 0 .3.1.4.1.2.3.4.4.5.2.1.4.6.6.6.2 0 .4-.1.5-.1.2 0 .4 0 .6-.1.2-.1.1-.3.3-.5.1-.1.3 0 .4-.1.2-.1.3-.3.4-.5v-.2c0-.1.1-.2.1-.3 0-.1-.1-.1-.1-.2v-.3c0-.2 0-.4-.1-.5-.4-.7-1.2-.9-2-.8-.2 0-.3.1-.4.2-.2.1-.1.2-.3.2-.1 0-.2.1-.2.2v.3M54.1-25.7v.2c-.1.1-.1.1-.2.1-.1.1-.1.3-.1.4-.2.1 0 .2 0 .3v.2c0 .1 0 .3.1.4.1.2.3.4.4.5.2.1.4.6.6.6.2 0 .4-.1.5-.1.2 0 .4 0 .6-.1.2-.1.1-.3.3-.5.1-.1.3 0 .4-.1.2-.1.3-.3.4-.5v-.2c0-.1.1-.2.1-.3 0-.1-.1-.1-.1-.2v-.3c0-.2 0-.4-.1-.5-.4-.7-1.2-.9-2-.8-.2 0-.3.1-.4.2-.2.1-.1.2-.3.2-.1 0-.2.1-.2.2v.3M46.5-25.7v.2c-.1.1-.1.1-.2.1-.1.1-.1.3-.1.4-.2.1 0 .2 0 .3v.2c0 .1 0 .3.1.4.1.2.3.4.4.5.2.1.4.6.6.6.2 0 .4-.1.5-.1.2 0 .4 0 .6-.1.2-.1.1-.3.3-.5.1-.1.3 0 .4-.1.2-.1.3-.3.4-.5v-.2c0-.1.1-.2.1-.3 0-.1-.1-.1-.1-.2v-.3c0-.2 0-.4-.1-.5-.4-.7-1.2-.9-2-.8-.2 0-.3.1-.4.2-.2.1-.1.2-.3.2-.1 0-.2.1-.2.2v.3M38.8-25.7v.2c-.1.1-.1.1-.2.1-.1.1-.1.3-.1.4-.2.1 0 .2 0 .3v.2c0 .1 0 .3.1.4.1.2.3.4.4.5.2.1.4.6.6.6.2 0 .4-.1.5-.1.2 0 .4 0 .6-.1.2-.1.1-.3.3-.5.1-.1.3 0 .4-.1.2-.1.3-.3.4-.5v-.2c0-.1.1-.2.1-.3 0-.1-.1-.1-.1-.2v-.3c0-.2 0-.4-.1-.5-.4-.7-1.2-.9-2-.8-.2 0-.3.1-.4.2-.2.1-.1.2-.3.2-.1 0-.2.1-.2.2v.3M31.1-25.7v.2c-.1.1-.1.1-.2.1-.1.1-.1.3-.1.4-.2.1 0 .2 0 .3v.2c0 .1 0 .3.1.4.1.2.3.4.4.5.2.1.4.6.6.6.2 0 .4-.1.5-.1.2 0 .4 0 .6-.1.2-.1.1-.3.3-.5.1-.1.3 0 .4-.1.2-.1.3-.3.4-.5v-.2c0-.1.1-.2.1-.3 0-.1-.1-.1-.1-.2v-.3c0-.2 0-.4-.1-.5-.4-.7-1.2-.9-2-.8-.2 0-.3.1-.4.2-.2.1-.1.2-.3.2-.1 0-.2.1-.2.2v.3M23.5-25.7v.2c-.1.1-.1.1-.2.1-.1.1-.1.3-.1.4-.2.1 0 .2 0 .3v.2c0 .1 0 .3.1.4.1.2.3.4.4.5.2.1.4.6.6.6.2 0 .4-.1.5-.1.2 0 .4 0 .6-.1.2-.1.1-.3.3-.5.1-.1.3 0 .4-.1.2-.1.3-.3.4-.5v-.2c0-.1.1-.2.1-.3 0-.1-.1-.1-.1-.2v-.3c0-.2 0-.4-.1-.5-.4-.7-1.2-.9-2-.8-.2 0-.3.1-.4.2-.2.1-.1.2-.3.2-.1 0-.2.1-.2.2v.3M15.8-25.7v.2c-.1.1-.1.1-.2.1-.1.1-.1.3-.1.4-.2.1 0 .2 0 .3v.2c0 .1 0 .3.1.4.1.2.3.4.4.5.2.1.4.6.6.6.2 0 .4-.1.5-.1.2 0 .4 0 .6-.1.2-.1.1-.3.3-.5.1-.1.3 0 .4-.1.2-.1.3-.3.4-.5v-.2c0-.1.1-.2.1-.3 0-.1-.1-.1-.1-.2v-.3c0-.2 0-.4-.1-.5-.4-.7-1.2-.9-2-.8-.2 0-.3.1-.4.2-.2.1-.1.2-.3.2-.1 0-.2.1-.2.2v.3M8.2-25.7v.2c-.1.1-.2 0-.2.1-.1.1-.1.3-.1.4-.2.1 0 .2 0 .3v.2c0 .1 0 .3.1.4 0 .1.2.3.3.5.2.1.4.6.6.6.2 0 .4-.1.5-.1.2 0 .4 0 .6-.1.2-.1.1-.3.3-.5.1-.1.3 0 .4-.1.2-.1.3-.3.4-.5v-.2c0-.1.1-.2.1-.3 0-.1-.1-.1-.1-.2v-.3c0-.2 0-.4-.1-.5-.4-.7-1.2-.9-2-.8-.2 0-.3.1-.4.2-.2.1-.1.2-.3.2-.1 0-.2.1-.2.2.1.2.1.2.1.3-.1 0-.1 0 0 0M.5-25.7v.2c-.1.1-.1.1-.2.1-.1.1-.1.3-.1.4-.2.1 0 .2 0 .3v.2c0 .1 0 .3.1.4.1.2.3.4.4.5.2.1.3.5.6.6.2 0 .4-.1.5-.1.2 0 .4 0 .6-.1.2-.1.1-.3.3-.5.1-.1.3 0 .4-.1.2-.1.3-.3.4-.5v-.2c0-.1.1-.2.1-.3 0-.1-.1-.1-.1-.2v-.3c0-.2 0-.4-.1-.5-.4-.7-1.2-.9-2-.8-.2 0-.3.1-.4.2-.2.1-.1.2-.3.2-.1 0-.2.1-.2.2v.3"/></g><g><path class="st2" d="M69.4-18.1v.2c-.1.1-.1.1-.2.1-.1.1-.1.3-.1.4-.2.1 0 .2 0 .3v.2c0 .1 0 .3.1.4.1.2.3.4.4.5.2.1.4.6.6.6.2 0 .4-.1.5-.1.2 0 .4 0 .6-.1.2-.1.1-.3.3-.5.1-.1.3 0 .4-.1.2-.1.3-.3.4-.5v-.2c0-.1.1-.2.1-.3 0-.1-.1-.1-.1-.2v-.3c0-.2 0-.4-.1-.5-.4-.7-1.2-.9-2-.8-.2 0-.3.1-.4.2-.2.1-.1.2-.3.2-.1 0-.2.1-.2.2v.3c0 .1 0 0 0 0M61.8-18.1v.2c-.1.1-.1.1-.2.1-.1.1-.1.3-.1.4-.2.1 0 .2 0 .3v.2c0 .1 0 .3.1.4.1.2.3.4.4.5.2.1.4.6.6.6.2 0 .4-.1.5-.1.2 0 .4 0 .6-.1.2-.1.1-.3.3-.5.1-.1.3 0 .4-.1.2-.1.3-.3.4-.5v-.2c0-.1.1-.2.1-.3 0-.1-.1-.1-.1-.2v-.3c0-.2 0-.4-.1-.5-.4-.7-1.2-.9-2-.8-.2 0-.3.1-.4.2-.2.1-.1.2-.3.2-.1 0-.2.1-.2.2v.3c0 .1 0 0 0 0M54.1-18.1v.2c-.1.1-.1.1-.2.1-.1.1-.1.3-.1.4-.2.1 0 .2 0 .3v.2c0 .1 0 .3.1.4.1.2.3.4.4.5.2.1.4.6.6.6.2 0 .4-.1.5-.1.2 0 .4 0 .6-.1.2-.1.1-.3.3-.5.1-.1.3 0 .4-.1.2-.1.3-.3.4-.5v-.2c0-.1.1-.2.1-.3 0-.1-.1-.1-.1-.2v-.3c0-.2 0-.4-.1-.5-.4-.7-1.2-.9-2-.8-.2 0-.3.1-.4.2-.2.1-.1.2-.3.2-.1 0-.2.1-.2.2v.3c0 .1 0 0 0 0M46.5-18.1v.2c-.1.1-.1.1-.2.1-.1.1-.1.3-.1.4-.2.1 0 .2 0 .3v.2c0 .1 0 .3.1.4.1.2.3.4.4.5.2.1.4.6.6.6.2 0 .4-.1.5-.1.2 0 .4 0 .6-.1.2-.1.1-.3.3-.5.1-.1.3 0 .4-.1.2-.1.3-.3.4-.5v-.2c0-.1.1-.2.1-.3 0-.1-.1-.1-.1-.2v-.3c0-.2 0-.4-.1-.5-.4-.7-1.2-.9-2-.8-.2 0-.3.1-.4.2-.2.1-.1.2-.3.2-.1 0-.2.1-.2.2v.3c0 .1 0 0 0 0M38.8-18.1v.2c-.1.1-.1.1-.2.1-.1.1-.1.3-.1.4-.2.1 0 .2 0 .3v.2c0 .1 0 .3.1.4.1.2.3.4.4.5.2.1.4.6.6.6.2 0 .4-.1.5-.1.2 0 .4 0 .6-.1.2-.1.1-.3.3-.5.1-.1.3 0 .4-.1.2-.1.3-.3.4-.5v-.2c0-.1.1-.2.1-.3 0-.1-.1-.1-.1-.2v-.3c0-.2 0-.4-.1-.5-.4-.7-1.2-.9-2-.8-.2 0-.3.1-.4.2-.2.1-.1.2-.3.2-.1 0-.2.1-.2.2v.3c0 .1 0 0 0 0M31.1-18.1v.2c-.1.1-.1.1-.2.1-.1.1-.1.3-.1.4-.2.1 0 .2 0 .3v.2c0 .1 0 .3.1.4.1.2.3.4.4.5.2.1.4.6.6.6.2 0 .4-.1.5-.1.2 0 .4 0 .6-.1.2-.1.1-.3.3-.5.1-.1.3 0 .4-.1.2-.1.3-.3.4-.5v-.2c0-.1.1-.2.1-.3 0-.1-.1-.1-.1-.2v-.3c0-.2 0-.4-.1-.5-.4-.7-1.2-.9-2-.8-.2 0-.3.1-.4.2-.2.1-.1.2-.3.2-.1 0-.2.1-.2.2v.3c0 .1 0 0 0 0M23.5-18.1v.2c-.1.1-.1.1-.2.1-.1.1-.1.3-.1.4-.2.1 0 .2 0 .3v.2c0 .1 0 .3.1.4.1.2.3.4.4.5.2.1.4.6.6.6.2 0 .4-.1.5-.1.2 0 .4 0 .6-.1.2-.1.1-.3.3-.5.1-.1.3 0 .4-.1.2-.1.3-.3.4-.5v-.2c0-.1.1-.2.1-.3 0-.1-.1-.1-.1-.2v-.3c0-.2 0-.4-.1-.5-.4-.7-1.2-.9-2-.8-.2 0-.3.1-.4.2-.2.1-.1.2-.3.2-.1 0-.2.1-.2.2v.3c0 .1 0 0 0 0M15.8-18.1v.2c-.1.1-.1.1-.2.1-.1.1-.1.3-.1.4-.2.1 0 .2 0 .3v.2c0 .1 0 .3.1.4.1.2.3.4.4.5.2.1.4.6.6.6.2 0 .4-.1.5-.1.2 0 .4 0 .6-.1.2-.1.1-.3.3-.5.1-.1.3 0 .4-.1.2-.1.3-.3.4-.5v-.2c0-.1.1-.2.1-.3 0-.1-.1-.1-.1-.2v-.3c0-.2 0-.4-.1-.5-.4-.7-1.2-.9-2-.8-.2 0-.3.1-.4.2-.2.1-.1.2-.3.2-.1 0-.2.1-.2.2v.3c0 .1 0 0 0 0M8.2-18.1v.2c-.1.1-.2.1-.2.1-.1.1-.1.3-.1.4-.2.1 0 .2 0 .3v.2c0 .1 0 .3.1.4 0 .2.2.4.3.5.2.1.4.6.6.6.2 0 .4-.1.5-.1.2 0 .4 0 .6-.1.2-.1.1-.3.3-.5.1-.1.3 0 .4-.1.2-.1.3-.3.4-.5v-.2c0-.1.1-.2.1-.3 0-.1-.1-.1-.1-.2v-.3c0-.2 0-.4-.1-.5-.4-.7-1.2-.9-2-.8-.2 0-.3.1-.4.2-.2.1-.1.2-.3.2-.1 0-.2.1-.2.2.1.3.1.2.1.3-.1.1-.1 0 0 0M.5-18.1v.2c-.1.1-.1.1-.2.1-.1.1-.1.3-.1.4-.2.1 0 .2 0 .3v.2c0 .1 0 .3.1.4.1.2.3.4.4.5.2.1.4.6.6.6.2 0 .4-.1.5-.1.2 0 .4 0 .6-.1.2-.1.1-.3.3-.5.1 0 .3.1.4.1.2-.1.3-.3.4-.5v-.2c0-.1.1-.2.1-.3 0-.1-.1-.1-.1-.2v-.3c0-.2 0-.4-.1-.5-.4-.7-1.2-.9-2-.8-.2 0-.3.1-.4.2-.2.1-.1.2-.3.2-.1 0-.2.1-.2.2v.1c0 .1 0 0 0 0"/></g><g><path class="st2" d="M69.4-10.4v.2c-.1.1-.1.1-.2.1-.1.1-.1.3-.1.4-.2.1 0 .2 0 .3v.2c0 .1 0 .3.1.4.1.2.3.4.4.5.2.1.4.6.6.6.2 0 .4-.1.5-.1.2 0 .4 0 .6-.1.2-.1.1-.3.3-.5.1-.1.3 0 .4-.1.2-.1.3-.3.4-.5v-.2c0-.1.1-.2.1-.3 0-.1-.1-.1-.1-.2v-.3c0-.2 0-.4-.1-.5-.4-.7-1.2-.9-2-.8-.2 0-.3.1-.4.2-.2.1-.1.2-.3.2-.1 0-.2.1-.2.2v.3M61.8-10.4v.2c-.1.1-.1.1-.2.1-.1.1-.1.3-.1.4-.2.1 0 .2 0 .3v.2c0 .1 0 .3.1.4.1.2.3.4.4.5.2.1.4.6.6.6.2 0 .4-.1.5-.1.2 0 .4 0 .6-.1.2-.1.1-.3.3-.4.1-.1.3 0 .4-.1.2-.1.3-.3.4-.5v-.2c0-.1.1-.2.1-.3 0-.1-.1-.1-.1-.2v-.3c0-.2 0-.4-.1-.5-.4-.7-1.2-.9-2-.8-.2 0-.3.1-.4.2-.2.1-.1.2-.3.2-.1 0-.2.1-.2.2v.2M54.1-10.4v.2c-.1.1-.1.1-.2.1-.1.1-.1.3-.1.4-.2.1 0 .2 0 .3v.2c0 .1 0 .3.1.4.1.2.3.4.4.5.2.1.4.6.6.6.2 0 .4-.1.5-.1.2 0 .4 0 .6-.1.2-.1.1-.3.3-.5.1-.1.3 0 .4-.1.2-.1.3-.3.4-.5v-.2c0-.1.1-.2.1-.3 0-.1-.1-.1-.1-.2v-.3c0-.2 0-.4-.1-.5-.4-.7-1.2-.9-2-.8-.2 0-.3.1-.4.2-.2.1-.1.2-.3.2-.1 0-.2.1-.2.2v.3M46.5-10.4v.2c-.1.1-.1.1-.2.1-.1.1-.1.3-.1.4-.2.1 0 .2 0 .3v.2c0 .1 0 .3.1.4.1.2.3.4.4.5.2.1.4.6.6.6.2 0 .4-.1.5-.1.2 0 .4 0 .6-.1.2-.1.1-.3.3-.5.1-.1.3 0 .4-.1.2-.1.3-.3.4-.5v-.2c0-.1.1-.2.1-.3 0-.1-.1-.1-.1-.2v-.3c0-.2 0-.4-.1-.5-.4-.7-1.2-.9-2-.8-.2 0-.3.1-.4.2-.2.1-.1.2-.3.2-.1 0-.2.1-.2.2v.3M38.8-10.4v.2c-.1.1-.1.1-.2.1-.1.1-.1.3-.1.4-.2.1 0 .2 0 .3v.2c0 .1 0 .3.1.4.1.2.3.4.4.5.2.1.4.6.6.6.2 0 .4-.1.5-.1.2 0 .4 0 .6-.1.2-.1.1-.3.3-.4.1-.1.3 0 .4-.1.2-.1.3-.3.4-.5v-.2c0-.1.1-.2.1-.3 0-.1-.1-.1-.1-.2v-.3c0-.2 0-.4-.1-.5-.4-.7-1.2-.9-2-.8-.2 0-.3.1-.4.2-.2.1-.1.2-.3.2-.1 0-.2.1-.2.2v.2M31.1-10.4v.2c-.1.1-.1.1-.2.1-.1.1-.1.3-.1.4-.2.1 0 .2 0 .3v.2c0 .1 0 .3.1.4.1.2.3.4.4.5.2.1.4.6.6.6.2 0 .4-.1.5-.1.2 0 .4 0 .6-.1.2-.1.1-.3.3-.5.1-.1.3 0 .4-.1.2-.1.3-.3.4-.5v-.2c0-.1.1-.2.1-.3 0-.1-.1-.1-.1-.2v-.3c0-.2 0-.4-.1-.5-.4-.7-1.2-.9-2-.8-.2 0-.3.1-.4.2-.2.1-.1.2-.3.2-.1 0-.2.1-.2.2v.3M23.5-10.4v.2c-.1.1-.1.1-.2.1-.1.1-.1.3-.1.4-.2.1 0 .2 0 .3v.2c0 .1 0 .3.1.4.1.2.3.4.4.5.2.1.4.6.6.6.2 0 .4-.1.5-.1.2 0 .4 0 .6-.1.2-.1.1-.3.3-.5.1-.1.3 0 .4-.1.2-.1.3-.3.4-.5v-.2c0-.1.1-.2.1-.3 0-.1-.1-.1-.1-.2v-.3c0-.2 0-.4-.1-.5-.4-.7-1.2-.9-2-.8-.2 0-.3.1-.4.2-.2.1-.1.2-.3.2-.1 0-.2.1-.2.2v.3M15.8-10.4v.2c-.1.1-.1.1-.2.1-.1.1-.1.3-.1.4-.2.1 0 .2 0 .3v.2c0 .1 0 .3.1.4.1.2.3.4.4.5.2.1.4.6.6.6.2 0 .4-.1.5-.1.2 0 .4 0 .6-.1.2-.1.1-.3.3-.4.1-.1.3 0 .4-.1.2-.1.3-.3.4-.5v-.2c0-.1.1-.2.1-.3 0-.1-.1-.1-.1-.2v-.3c0-.2 0-.4-.1-.5-.4-.7-1.2-.9-2-.8-.2 0-.3.1-.4.2-.2.1-.1.2-.3.2-.1 0-.2.1-.2.2v.2M8.2-10.4v.2c-.1.1-.2 0-.2.1-.1.1-.1.3-.1.3-.2.1 0 .2 0 .3v.2c0 .1 0 .3.1.4 0 .2.2.4.3.6.2.1.4.6.6.6.2 0 .4-.1.5-.1.2 0 .4 0 .6-.1.2-.1.1-.3.3-.5.1-.1.3 0 .4-.1.2-.1.3-.3.4-.5v-.2c0-.1.1-.2.1-.3 0-.1-.1-.1-.1-.2v-.3c0-.2 0-.4-.1-.5-.4-.7-1.2-.9-2-.8-.2 0-.3.1-.4.2-.2.1-.1.2-.3.2-.1 0-.2.1-.2.2.1.2.1.2.1.3-.1 0-.1 0 0 0M.5-10.4v.2c-.1.1-.1.1-.2.1 0 .1-.1.3-.1.3-.2.1 0 .2 0 .3v.2c0 .1 0 .3.1.4.1.2.3.4.4.5.2.2.3.6.6.7.2 0 .4-.1.5-.1.2 0 .4 0 .6-.1.2-.1.1-.3.3-.4.1-.1.3 0 .4-.1.2-.1.3-.3.4-.5v-.2c0-.1.1-.2.1-.3 0-.1-.1-.1-.1-.2v-.3c0-.2 0-.4-.1-.5-.4-.7-1.2-.9-2-.8-.2 0-.3.1-.4.2-.2.1-.1.2-.3.2-.1 0-.2.1-.2.2v.2"/></g></g><g><path class="st2" d="M69.4-2.8v.2c-.1.1-.1.1-.2.1-.1.1-.1.3-.1.4-.2.1 0 .2 0 .3v.2c0 .1 0 .3.1.4.1.2.3.4.4.5.2.2.4.6.6.7.2 0 .4-.1.5-.1.2 0 .4 0 .6-.1.2-.1.1-.3.3-.5.1-.1.3 0 .4-.1.2-.1.3-.3.4-.5v-.2c0-.1.1-.2.1-.3 0-.1-.1-.1-.1-.2v-.3c0-.2 0-.4-.1-.5-.4-.7-1.2-.9-2-.8-.2 0-.3.1-.4.2-.2.1-.1.2-.3.2-.1 0-.2.1-.2.2v.2c0 .1 0 0 0 0M61.8-2.8v.2c-.1.1-.1.1-.2.1-.1.1-.1.3-.1.4-.2.1 0 .2 0 .3v.2c0 .1 0 .3.1.4 0 .2.2.4.4.5.2.1.4.6.6.6.2 0 .4-.1.5-.1.2 0 .4 0 .6-.1.2-.1.1-.3.3-.5.1-.1.3 0 .4-.1.2-.1.3-.3.4-.5v-.2c0-.1.1-.2.1-.3 0-.1-.1-.1-.1-.2v-.3c0-.2 0-.4-.1-.5-.4-.7-1.2-.9-2-.8-.2 0-.3.1-.4.2-.2.1-.1.2-.3.2-.1 0-.2.1-.2.2v.3c0 .1 0 0 0 0M54.1-2.8v.2c-.1.1-.1.1-.2.1-.1.1-.1.3-.1.4-.2.1 0 .2 0 .3v.2c0 .1 0 .3.1.4.1.2.2.4.4.5.2.1.4.6.6.6.2 0 .4-.1.5-.1.2 0 .4 0 .6-.1.2-.1.1-.3.3-.5.1-.1.3 0 .4-.1.2.1.3-.1.4-.3v-.2c0-.1.1-.2.1-.3 0-.1-.1-.1-.1-.2v-.3c0-.2 0-.4-.1-.5-.4-.7-1.2-.9-2-.8-.2 0-.3.1-.4.2-.2.1-.1.2-.3.2-.1 0-.2.1-.2.2v.1c0 .1 0 0 0 0M46.5-2.8v.2c-.1.1-.1.1-.2.1-.1.1-.1.3-.1.4-.2.1 0 .2 0 .3v.2c0 .1 0 .3.1.4.1.2.3.4.4.5.1.2.3.6.5.7.2 0 .4-.1.5-.1.2 0 .4 0 .6-.1.2-.1.1-.3.3-.5.1-.1.3 0 .4-.1.2-.1.3-.3.4-.5v-.2c0-.1.1-.2.1-.3 0-.1-.1-.1-.1-.2v-.3c0-.2 0-.4-.1-.5-.4-.7-1.2-.9-2-.8-.2 0-.3.1-.4.2-.2.1-.1.2-.3.2-.1 0-.2.1-.2.2.1.2.1.1.1.2M38.8-2.8v.2c-.1.1-.1.1-.2.1-.1.1-.1.3-.1.4-.2.1 0 .2 0 .3v.2c0 .1 0 .3.1.4 0 .2.2.4.4.5.2.1.4.6.6.6.2 0 .4-.1.5-.1.2 0 .4 0 .6-.1.2-.1.1-.3.3-.5.1-.1.3 0 .4-.1.2-.1.3-.3.4-.5v-.2c0-.1.1-.2.1-.3 0-.1-.1-.1-.1-.2v-.3c0-.2 0-.4-.1-.5-.4-.7-1.2-.9-2-.8-.2 0-.3.1-.4.2-.2.1-.1.2-.3.2-.1 0-.2.1-.2.2v.3c0 .1 0 0 0 0M31.1-2.8v.2c-.1.1-.1.1-.2.1-.1.1-.1.3-.1.4-.2.1 0 .2 0 .3v.2c0 .1 0 .3.1.4.1.2.2.4.4.5.2.1.4.6.6.6.2 0 .4-.1.5-.1.2 0 .4 0 .6-.1.2-.1.1-.3.3-.5.1-.1.3 0 .4-.1.2-.1.3-.3.4-.5v-.2c0-.1.1-.2.1-.3 0-.1-.1-.1-.1-.2v-.3c0-.2 0-.4-.1-.5-.4-.7-1.2-.9-2-.8-.2 0-.3.1-.4.2-.2.1-.1.2-.3.2-.1 0-.2.1-.2.2v.3c0 .1 0 0 0 0M23.5-2.8v.2c-.1.1-.1.1-.2.1-.1.1-.1.3-.1.4-.2.1 0 .2 0 .3v.2c0 .1 0 .3.1.4.1.2.3.4.4.5.1.2.3.6.6.7.2 0 .4-.1.5-.1.2 0 .4 0 .6-.1.2-.1.1-.3.3-.5.1-.1.3 0 .4-.1.2-.1.3-.3.4-.5v-.2c0-.1.1-.2.1-.3 0-.1-.1-.1-.1-.2v-.3c0-.2 0-.4-.1-.5-.4-.7-1.2-.9-2-.8-.2 0-.3.1-.4.2-.2.1-.1.2-.3.2-.1 0-.2.1-.2.2v.2c0 .1 0 0 0 0M15.8-2.8v.2c-.1.1-.1.1-.2.1-.1.1-.1.3-.1.4-.2.1 0 .2 0 .3v.2c0 .1 0 .3.1.4.1.2.2.4.4.5.2.1.4.6.6.6.2 0 .4-.1.5-.1.2 0 .4 0 .6-.1.2-.1.1-.3.3-.5.1-.1.3 0 .4-.1.2-.1.3-.3.4-.5v-.2c0-.1.1-.2.1-.3 0-.1-.1-.1-.1-.2v-.3c0-.2 0-.4-.1-.5-.4-.7-1.2-.9-2-.8-.2 0-.3.1-.4.2-.2.1-.1.2-.3.2-.1 0-.2.1-.2.2v.3c0 .1 0 0 0 0M8.2-2.8v.2c-.1.1-.2.1-.2.1-.1.1-.1.3-.1.4-.2.1 0 .2 0 .3v.2c0 .1 0 .3.1.4 0 .2.2.4.3.5.2.2.4.6.6.7.2 0 .4-.1.5-.1.2 0 .4 0 .6-.1.2-.1.1-.3.3-.5.1-.1.3 0 .4-.1.2-.1.3-.3.4-.5v-.2c0-.1.1-.2.1-.3 0-.1-.1-.1-.1-.2v-.3c0-.2 0-.4-.1-.5-.4-.7-1.2-.9-2-.8 0 .1-.2.2-.3.2-.2.1-.1.2-.3.3-.1 0-.2.1-.2.2v.1c-.1.1-.1 0 0 0M.5-2.8v.2c-.1.1-.1.1-.2.1 0 .1-.1.3-.1.4-.2.1 0 .2 0 .3v.2c0 .1 0 .3.1.4 0 .2.2.4.4.5.2.2.3.6.6.7.2 0 .4-.1.5-.1.2 0 .4 0 .6-.1.2-.1.1-.3.3-.5.1-.1.3 0 .4-.1.2 0 .3-.2.4-.4v-.2c0-.1.1-.2.1-.3 0-.1-.1-.1-.1-.2v-.3c0-.2 0-.4-.1-.5-.4-.7-1.2-.9-2-.8-.1 0-.2.1-.4.1-.1.1-.1.2-.3.3-.1 0-.2.1-.2.2v.1c0 .1 0 0 0 0"/></g></pattern><path class="st3" d="M323.5-63h57.4v57.4h-57.4z"/><path class="st4" d="M380.7-63h57.4v57.4h-57.4z"/><path class="st5" d="M266.2-63h57.4v57.4h-57.4z"/><path class="st6" d="M209-63h57.4v57.4H209z"/><path class="st7" d="M323.8-3.8h57.4v57.4h-57.4z"/><path class="st8" d="M381.1-3.8h57.4v57.4h-57.4z"/><path class="st9" d="M266.6-3.7H324v57.4h-57.4z"/><path class="st10" d="M209.4-3.9h57.4v57.4h-57.4z"/><path class="st11" d="M437.9-63h57.4v57.4h-57.4z"/><path class="st12" d="M438.3-3.6h57.4v57.4h-57.4z"/><radialGradient id="SVGID_1_" cx="134.169" cy="168.15" r="131.144" gradientUnits="userSpaceOnUse"><stop offset="0" stop-color="#fbc90d"/><stop offset="1" stop-color="#fdb913"/></radialGradient><path class="st13" d="M263.9 112.4c-7.9 4.8-14.4 4.5-19.6-.6-1.7-1.6-3.4-3.9-5.4-6.8-2.3-3.5-4.3-6.1-6-7.7-3-3-6.7-4.7-11.3-5.1-4.6-.4-9.3.5-14.2 2.7 2.1-4.4 3-8.9 2.9-13.5-.2-4.6-1.8-8.5-5.1-11.8-1.8-1.8-4.4-3.8-7.8-6.1-2.9-1.9-5.2-3.7-6.9-5.4-2.2-2.2-3.5-5.1-3.9-8.6-.3-3.5.8-7.1 3.5-10.7l-1.6-1.6c-.1.1-.2.3-.3.4 0-.2.1-.4.1-.5h-2.1c-2.2 9-7 13.4-14.3 13.4-2.3 0-5.2-.3-8.7-1-4.1-.9-7.3-1.3-9.7-1.3-4.2 0-8.1 1.5-11.6 4.4-3.5 3-6.2 6.9-8.1 12-1.6-4.6-4.1-8.5-7.5-11.6-3.3-3.2-7.3-4.7-11.9-4.7-2.5 0-5.8.4-9.9 1.2-3.4.7-6.3 1-8.7 1-3.2 0-6.1-1.1-8.8-3.3-2.7-2.2-4.4-5.6-5.1-10.1h-2.3c0 .2.1.4.1.5-.1-.1-.2-.3-.3-.4l-1.5 1.5c4.8 7.8 4.5 14.4-.6 19.6-1.6 1.6-3.9 3.4-6.8 5.4-3.5 2.3-6.1 4.3-7.8 6-3 3-4.6 6.7-5.1 11.3-.4 4.6.5 9.3 2.7 14.2-4.4-2.1-8.9-3-13.5-2.9-4.6.1-8.5 1.8-11.8 5.1-1.8 1.8-3.8 4.4-6.1 7.8-1.9 2.9-3.8 5.2-5.4 6.9-2.2 2.2-5.1 3.5-8.6 3.9-3.5.3-7-.8-10.7-3.5L3 113.9c.1.1.1.1.2.1v1.8c8.9 2.2 13.4 7 13.4 14.3 0 2.3-.3 5.2-1 8.7-.8 4.1-1.3 7.3-1.3 9.7 0 4.2 1.5 8 4.4 11.6 2.9 3.5 6.9 6.2 12 8.1-4.6 1.7-8.4 4.2-11.6 7.5-3.2 3.4-4.7 7.3-4.7 11.9 0 2.5.4 5.8 1.2 9.9.7 3.4 1 6.3 1 8.7 0 3.1-1.1 6.1-3.3 8.8-2.2 2.7-5.6 4.4-10.1 5.1v2.3c.1 0 .2-.1.3-.1-.2.1-.4.2-.5.4l1.4 1.5c7.9-4.8 14.4-4.6 19.6.6 1.6 1.6 3.4 3.9 5.4 6.8 2.3 3.5 4.3 6.1 6 7.7 3 3 6.7 4.7 11.3 5.1 4.6.4 9.3-.5 14.2-2.7-2.1 4.4-3 8.9-2.9 13.5.1 4.6 1.8 8.5 5 11.7 1.8 1.8 4.4 3.8 7.8 6.1 2.9 1.9 5.2 3.7 6.9 5.4 2.2 2.2 3.5 5.1 3.9 8.6.3 3.5-.8 7.1-3.5 10.7l1.6 1.6c.2-.2.3-.4.4-.7h1.4c2.2-8.9 7-13.4 14.3-13.4 2.3 0 5.2.3 8.7 1 4.1.8 7.3 1.2 9.7 1.2 4.2 0 8-1.5 11.5-4.4 3.5-2.9 6.2-6.9 8.1-12 1.7 4.6 4.2 8.4 7.5 11.6 3.4 3.2 7.3 4.7 11.9 4.7 2.5 0 5.8-.4 9.9-1.2 3.4-.7 6.3-1 8.7-1 3.1 0 6.1 1.1 8.8 3.3 2.7 2.2 4.4 5.6 5.1 10.1h2c0 .1.1.2.1.2l1.4-1.5c-4.8-7.9-4.5-14.4.7-19.6 1.6-1.6 3.9-3.4 6.8-5.4 3.5-2.3 6.1-4.3 7.7-6 3-3 4.7-6.7 5-11.3.4-4.6-.5-9.3-2.7-14.2 4.4 2.1 8.9 3 13.5 2.9 4.6-.1 8.5-1.8 11.8-5.1 1.8-1.8 3.8-4.4 6.1-7.8 1.9-2.9 3.8-5.2 5.4-6.9 2.2-2.2 5.1-3.5 8.5-3.9 3.5-.3 7.1.8 10.8 3.5l1.6-1.6c.2 0 .3.1.5.1v-2.1c-8.9-2.2-13.4-7-13.4-14.3 0-2.3.3-5.2 1-8.7.8-4.1 1.3-7.3 1.3-9.7 0-4.2-1.5-8.1-4.4-11.6-2.9-3.5-6.9-6.2-12-8.1 4.6-1.7 8.4-4.2 11.6-7.5 3.2-3.3 4.7-7.3 4.7-11.9 0-2.5-.4-5.8-1.2-9.9-.7-3.4-1-6.3-1-8.7 0-3.2 1.1-6.1 3.3-8.8 2.2-2.7 5.6-4.4 10.1-5.1v-2c.1-.1.1-.1.2-.1l-1.2-1z"/><path class="st2" d="M156.6 248.7c-.6.6-1.7.9-2.5.7l-78.5-21.5c-.8-.2-1.6-1-1.8-1.8l-20.6-78.7c-.2-.8.1-1.9.7-2.5l57.8-57.3c.6-.6 1.7-.9 2.5-.7l78.6 21.4c.8.2 1.6 1 1.8 1.8l20.6 78.7c.2.8-.1 1.9-.7 2.5l-57.9 57.4zm-22.4-135.3c-30.3 0-54.8 24.5-54.8 54.8 0 30.3 24.5 54.8 54.8 54.8 30.3 0 54.8-24.6 54.8-54.8-.1-30.3-24.6-54.8-54.8-54.8z"/><path d="M352.3 106.1H336c-4.5 0-8.2 3.6-8.2 8v19.1h13.7c5.4 0 8.1 3.9 8.1 8s-2.6 8.2-8.1 8.2h-13.7v56.9c0 5.4-3.9 8.2-8.1 8.2-4.1 0-8.2-2.8-8.2-8.2v-56.9h-2.6c-5.4 0-8.1-4.1-8.1-8.2s2.6-8 8.1-8h2.6v-19.1c0-13.5 11-24.3 24.5-24.3h16.3c5.4 0 8.1 3.9 8.1 8 0 4.2-2.6 8.3-8.1 8.3zM406.6 157.6c-3.9 0-8.1-2.6-8.1-8.1h-8.2c-4.5 0-8.1 3.6-8.1 8.1v48.9c0 5.4-4.1 8.2-8.2 8.2-3.9 0-8.1-2.8-8.1-8v-48.9c0-13.7 10.9-24.5 24.3-24.5h16.3c4.5 0 8.2 3.7 8.2 8v8.2c.2 5.5-3.9 8.1-8.1 8.1zM474.2 214.7h-21.7c-13.5 0-24.5-11-24.5-24.5v-32.6c0-13.5 11-24.3 24.5-24.3h21.7c13.5 0 24.3 10.9 24.3 24.3v32.6c.1 13.5-10.8 24.5-24.3 24.5zm8.1-57.1c0-4.5-3.6-8.1-8.1-8.1h-21.7c-4.5 0-8.2 3.6-8.2 8.1v32.6c0 4.5 3.7 8.2 8.2 8.2h21.7c4.5 0 8.1-3.7 8.1-8.2v-32.6zM583.6 214.7c-4.1 0-8.2-2.8-8.2-8.2v-48.9c0-4.5-3.6-8.1-8.1-8.1h-21.7c-4.5 0-8.2 3.6-8.2 8.1v48.9c0 5.4-3.9 8.2-8.1 8.2-4.1 0-8.2-2.8-8.2-8.2v-48.9c0-13.5 11-24.3 24.5-24.3h21.7c13.5 0 24.3 10.9 24.3 24.3v48.9c.1 5.4-3.9 8.2-8 8.2zM656.5 214.7h-10.9c-13.5 0-24.5-11-24.5-24.5v-40.6h-2.6c-5.4 0-8.1-4.1-8.1-8.2s2.6-8 8.1-8h2.6v-24.5c0-5.4 4.1-8 8.2-8s8 2.6 8 8v24.5H651c5.4 0 8 3.9 8 8s-2.6 8.2-8 8.2h-13.7v40.6c0 4.5 3.7 8.2 8.2 8.2h10.9c5.4 0 8 3.9 8 8.1.1 4.1-2.5 8.2-7.9 8.2zM742.1 214.7h-38.2c-13.5 0-24.3-11-24.3-24.5v-32.6c0-13.5 10.9-24.3 24.3-24.3h21.7c13.5 0 24.5 11 24.5 24.5v2.6c0 13.5-11 24.5-24.5 24.5h-29.8v5.2c0 4.5 3.6 8.2 8.1 8.2h38.2c5.4 0 8 4.1 8 8.2 0 4.3-2.6 8.2-8 8.2zm-8.3-56.9c0-4.5-3.7-8.2-8.2-8.2h-21.7c-4.5 0-8.1 3.6-8.1 8.1v11.1h29.8c4.5 0 8.2-3.7 8.2-8.2v-2.8zM835.1 214.7h-38.2c-13.5 0-24.3-11-24.3-24.5v-32.6c0-13.5 10.9-24.3 24.3-24.3h21.7c13.5 0 24.5 11 24.5 24.5v2.6c0 13.5-11.1 24.5-24.5 24.5h-29.8v5.2c0 4.5 3.6 8.2 8.1 8.2h38.2c5.4 0 8.1 4.1 8.1 8.2 0 4.3-2.6 8.2-8.1 8.2zm-8.2-56.9c0-4.5-3.7-8.2-8.2-8.2H797c-4.5 0-8.1 3.6-8.1 8.1v11.1h29.8c4.5 0 8.2-3.7 8.2-8.2v-2.8zM906.3 157.6c-3.9 0-8-2.6-8-8.1H890c-4.5 0-8.1 3.6-8.1 8.1v48.9c0 5.4-4.1 8.2-8.2 8.2-3.9 0-8.1-2.8-8.1-8v-48.9c0-13.7 10.9-24.5 24.3-24.5h16.3c4.5 0 8.2 3.7 8.2 8v8.2c.1 5.5-4 8.1-8.1 8.1zM961 214.7h-27.2c-5.4 0-8.1-4.1-8.1-8.2s2.6-8.1 8.1-8.1H961c4.5 0 8.2-3.7 8.2-8.2 0-4.5-3.7-8.1-8.2-8.1h-9.9c-13.5 0-24.3-11-24.3-24.5s10.9-24.3 24.3-24.3h25.3c5.4 0 8.2 3.9 8.2 8s-2.8 8.2-8.2 8.2h-25.3c-4.5 0-8 3.6-8 8.1s3.6 8.2 8 8.2h9.9c13.5 0 24.5 10.9 24.5 24.3s-11 24.6-24.5 24.6z"/><g><path class="st14" d="M327 237.6l-1.8 10.5c-.4 2.4-2.1 5-5.2 5h-1.2c-3.1 0-4.8-2.6-5.2-5l-1.8-10.5v-.4c0-1.1.9-1.7 1.8-1.7.8 0 1.5.4 1.7 1.5l1.7 10.5c.2 1.5 1 2.1 1.8 2.1h1.2c.7 0 1.6-.6 1.8-2.1l1.7-10.5c.2-1 .9-1.5 1.7-1.5.9 0 1.8.6 1.8 1.7v.4zM341.4 253.1h-4.7c-2.9 0-5.3-2.4-5.3-5.3v-.6c0-2.9 2.4-5.3 5.3-5.3h6.4v-1.2c0-1-.8-1.7-1.7-1.7h-7.6c-1.2 0-1.7-.9-1.7-1.8s.6-1.7 1.7-1.7h7.6c2.9 0 5.2 2.3 5.2 5.2v7c.1 3-2.3 5.4-5.2 5.4zm1.8-7.6h-6.4c-1 0-1.8.8-1.8 1.8v.6c0 1 .8 1.8 1.8 1.8h4.7c1 0 1.7-.8 1.7-1.8v-2.4zM363.8 253.1c-.4 0-.8-.1-1.2-.5l-7.6-7v5.7c0 1.2-.8 1.8-1.7 1.8s-1.8-.6-1.8-1.8v-23.4c0-1.2.9-1.7 1.8-1.7s1.7.6 1.7 1.7v14l6.5-5.9c.4-.4.8-.5 1.2-.5 1 0 1.8.9 1.8 1.8 0 .4-.2.9-.6 1.3l-5.6 5.1 6.8 6.3c.4.4.6.8.6 1.3-.1 1-.9 1.8-1.9 1.8zM383.6 237.6l-1.8 10.5c-.4 2.4-2.1 5-5.2 5h-1.2c-3.1 0-4.8-2.6-5.2-5l-1.8-10.5v-.4c0-1.1.9-1.7 1.8-1.7.8 0 1.5.4 1.7 1.5l1.7 10.5c.2 1.5 1 2.1 1.8 2.1h1.2c.7 0 1.6-.6 1.8-2.1l1.7-10.5c.2-1 .9-1.5 1.7-1.5.9 0 1.8.6 1.8 1.7.1.2.1.3 0 .4zM401.6 253.1h-8.2c-2.9 0-5.2-2.4-5.2-5.3v-7c0-2.9 2.3-5.2 5.2-5.2h4.7c2.9 0 5.3 2.4 5.3 5.3v.6c0 2.9-2.4 5.3-5.3 5.3h-6.4v1.1c0 1 .8 1.8 1.7 1.8h8.2c1.2 0 1.7.9 1.7 1.8 0 .8-.5 1.6-1.7 1.6zm-1.8-12.3c0-1-.8-1.8-1.8-1.8h-4.7c-1 0-1.7.8-1.7 1.7v2.4h6.4c1 0 1.8-.8 1.8-1.8v-.5zM416.9 240.8c-.8 0-1.7-.6-1.7-1.7h-1.8c-1 0-1.7.8-1.7 1.7v10.5c0 1.2-.9 1.8-1.8 1.8-.8 0-1.7-.6-1.7-1.7v-10.5c0-2.9 2.3-5.3 5.2-5.3h3.5c1 0 1.8.8 1.8 1.7v1.8c0 1.1-.9 1.7-1.8 1.7zM435 253.1h-8.2c-2.9 0-5.2-2.4-5.2-5.3v-7c0-2.9 2.3-5.2 5.2-5.2h4.7c2.9 0 5.3 2.4 5.3 5.3v.6c0 2.9-2.4 5.3-5.3 5.3h-6.4v1.1c0 1 .8 1.8 1.7 1.8h8.2c1.2 0 1.7.9 1.7 1.8.1.8-.5 1.6-1.7 1.6zm-1.7-12.3c0-1-.8-1.8-1.8-1.8h-4.7c-1 0-1.7.8-1.7 1.7v2.4h6.4c1 0 1.8-.8 1.8-1.8v-.5zM455.1 253.1c-.9 0-1.8-.6-1.8-1.8v-10.5c0-1-.8-1.7-1.7-1.7h-4.7c-1 0-1.8.8-1.8 1.7v10.5c0 1.2-.8 1.8-1.7 1.8-.9 0-1.8-.6-1.8-1.8v-10.5c0-2.9 2.4-5.2 5.3-5.2h4.7c2.9 0 5.2 2.3 5.2 5.2v10.5c0 1.2-.8 1.8-1.7 1.8zM469.4 253.1h-7c-1.2 0-1.7-.9-1.7-1.8s.6-1.7 1.7-1.7h1.7v-12.3c0-1.2.9-1.7 1.8-1.7s1.7.6 1.7 1.7v12.3h1.8c1.2 0 1.7.8 1.7 1.7.1.9-.5 1.8-1.7 1.8zm-3.5-21.7c-.9 0-1.8-.6-1.8-1.7v-1.8c0-1.2.9-1.7 1.8-1.7s1.7.6 1.7 1.7v1.8c0 1.2-.8 1.7-1.7 1.7zM484.9 261.3h-7.6c-1.2 0-1.8-.8-1.8-1.7 0-.9.6-1.8 1.8-1.8h7.6c1 0 1.8-.8 1.8-1.7v-2.9h-6.5c-2.9 0-5.2-2.4-5.2-5.3v-7c0-2.9 2.3-5.2 5.2-5.2h8.2c.9 0 1.8.8 1.8 1.7V256c0 2.9-2.4 5.3-5.3 5.3zm1.8-22.2h-6.5c-1 0-1.7.8-1.7 1.7v7c0 1 .8 1.8 1.7 1.8h6.5v-10.5zM502.8 253.1h-7c-1.2 0-1.7-.9-1.7-1.8s.6-1.7 1.7-1.7h1.7v-12.3c0-1.2.9-1.7 1.8-1.7s1.7.6 1.7 1.7v12.3h1.8c1.2 0 1.7.8 1.7 1.7 0 .9-.5 1.8-1.7 1.8zm-3.5-21.7c-.9 0-1.8-.6-1.8-1.7v-1.8c0-1.2.9-1.7 1.8-1.7s1.7.6 1.7 1.7v1.8c0 1.2-.8 1.7-1.7 1.7zM521.9 253.1c-.9 0-1.8-.6-1.8-1.8v-10.5c0-1-.8-1.7-1.7-1.7h-4.7c-1 0-1.8.8-1.8 1.7v10.5c0 1.2-.8 1.8-1.7 1.8s-1.8-.6-1.8-1.8v-10.5c0-2.9 2.4-5.2 5.3-5.2h4.7c2.9 0 5.2 2.3 5.2 5.2v10.5c0 1.2-.9 1.8-1.7 1.8zM538.4 261.3h-7.6c-1.2 0-1.8-.8-1.8-1.7 0-.9.6-1.8 1.8-1.8h7.6c1 0 1.8-.8 1.8-1.7v-2.9h-6.5c-2.9 0-5.2-2.4-5.2-5.3v-7c0-2.9 2.3-5.2 5.2-5.2h8.2c.9 0 1.8.8 1.8 1.7V256c0 2.9-2.4 5.3-5.3 5.3zm1.7-22.2h-6.5c-1 0-1.7.8-1.7 1.7v7c0 1 .8 1.8 1.7 1.8h6.5v-10.5zM575.4 237.6l-1.8 10.5c-.4 2.4-2.1 5-5.2 5h-1.2c-3.1 0-4.8-2.6-5.2-5l-1.8-10.5v-.4c0-1.1.9-1.7 1.8-1.7.8 0 1.5.4 1.7 1.5l1.7 10.5c.2 1.5 1 2.1 1.8 2.1h1.2c.7 0 1.6-.6 1.8-2.1L572 237c.2-1 .9-1.5 1.7-1.5.9 0 1.8.6 1.8 1.7 0 .2 0 .3-.1.4zM589.9 253.1h-4.7c-2.9 0-5.3-2.4-5.3-5.3v-7c0-2.9 2.4-5.2 5.3-5.2h4.7c2.9 0 5.2 2.3 5.2 5.2v7c0 2.9-2.3 5.3-5.2 5.3zm1.7-12.3c0-1-.8-1.7-1.7-1.7h-4.7c-1 0-1.8.8-1.8 1.7v7c0 1 .8 1.8 1.8 1.8h4.7c1 0 1.7-.8 1.7-1.8v-7zM609.9 253.1h-4.7c-2.9 0-5.3-2.4-5.3-5.3v-7c0-2.9 2.4-5.2 5.3-5.2h4.7c2.9 0 5.2 2.3 5.2 5.2v7c.1 2.9-2.3 5.3-5.2 5.3zm1.8-12.3c0-1-.8-1.7-1.7-1.7h-4.7c-1 0-1.8.8-1.8 1.7v7c0 1 .8 1.8 1.8 1.8h4.7c1 0 1.7-.8 1.7-1.8v-7zM628.8 240.8c-.8 0-1.7-.6-1.7-1.7h-1.8c-1 0-1.7.8-1.7 1.7v10.5c0 1.2-.9 1.8-1.8 1.8-.8 0-1.7-.6-1.7-1.7v-10.5c0-2.9 2.3-5.3 5.2-5.3h3.5c1 0 1.8.8 1.8 1.7v1.8c0 1.1-.9 1.7-1.8 1.7zM655 229.7h-3.5c-1 0-1.8.8-1.8 1.7v4.1h2.9c1.2 0 1.7.8 1.7 1.7 0 .9-.6 1.8-1.7 1.8h-2.9v12.3c0 1.2-.8 1.8-1.7 1.8-.9 0-1.8-.6-1.8-1.8V239h-.6c-1.2 0-1.7-.9-1.7-1.8s.6-1.7 1.7-1.7h.6v-4.1c0-2.9 2.4-5.2 5.3-5.2h3.5c1.2 0 1.7.8 1.7 1.7s-.5 1.8-1.7 1.8zM666.7 240.8c-.8 0-1.7-.6-1.7-1.7h-1.8c-1 0-1.7.8-1.7 1.7v10.5c0 1.2-.9 1.8-1.8 1.8-.8 0-1.7-.6-1.7-1.7v-10.5c0-2.9 2.3-5.3 5.2-5.3h3.5c1 0 1.8.8 1.8 1.7v1.8c0 1.1-.9 1.7-1.8 1.7zM681.3 253.1h-4.7c-2.9 0-5.3-2.4-5.3-5.3v-7c0-2.9 2.4-5.2 5.3-5.2h4.7c2.9 0 5.2 2.3 5.2 5.2v7c0 2.9-2.3 5.3-5.2 5.3zm1.7-12.3c0-1-.8-1.7-1.7-1.7h-4.7c-1 0-1.8.8-1.8 1.7v7c0 1 .8 1.8 1.8 1.8h4.7c1 0 1.7-.8 1.7-1.8v-7zM704.8 253.1c-.9 0-1.8-.6-1.8-1.8v-10.5c0-1-.8-1.7-1.7-1.7h-4.7c-1 0-1.8.8-1.8 1.7v10.5c0 1.2-.8 1.8-1.7 1.8-.9 0-1.8-.6-1.8-1.8v-10.5c0-2.9 2.4-5.2 5.3-5.2h4.7c2.9 0 5.2 2.3 5.2 5.2v10.5c.1 1.2-.8 1.8-1.7 1.8zM720.5 253.1h-2.3c-2.9 0-5.3-2.4-5.3-5.3V239h-.6c-1.2 0-1.7-.9-1.7-1.8s.6-1.7 1.7-1.7h.6v-5.3c0-1.2.9-1.7 1.8-1.7s1.7.6 1.7 1.7v5.3h2.9c1.2 0 1.7.8 1.7 1.7 0 .9-.6 1.8-1.7 1.8h-2.9v8.8c0 1 .8 1.8 1.8 1.8h2.3c1.2 0 1.7.8 1.7 1.7.1.9-.5 1.8-1.7 1.8zM731.8 246.1h-7c-1.2 0-1.7-.9-1.7-1.8s.6-1.7 1.7-1.7h7c1.2 0 1.7.8 1.7 1.7.1.9-.5 1.8-1.7 1.8zM749.5 253.1h-8.2c-2.9 0-5.2-2.4-5.2-5.3v-7c0-2.9 2.3-5.2 5.2-5.2h4.7c2.9 0 5.3 2.4 5.3 5.3v.6c0 2.9-2.4 5.3-5.3 5.3h-6.4v1.1c0 1 .8 1.8 1.7 1.8h8.2c1.2 0 1.7.9 1.7 1.8 0 .8-.5 1.6-1.7 1.6zm-1.8-12.3c0-1-.8-1.8-1.8-1.8h-4.7c-1 0-1.7.8-1.7 1.7v2.4h6.4c1 0 1.8-.8 1.8-1.8v-.5zM769.5 253.1c-.9 0-1.8-.6-1.8-1.8v-10.5c0-1-.8-1.7-1.7-1.7h-4.7c-1 0-1.8.8-1.8 1.7v10.5c0 1.2-.8 1.8-1.7 1.8-.9 0-1.8-.6-1.8-1.8v-10.5c0-2.9 2.4-5.2 5.3-5.2h4.7c2.9 0 5.2 2.3 5.2 5.2v10.5c.1 1.2-.8 1.8-1.7 1.8zM786.1 253.1h-4.7c-2.9 0-5.3-2.3-5.3-5.2v-7c0-2.9 2.3-5.3 5.2-5.3h6.5V228c0-1.2.9-1.8 1.7-1.8.9 0 1.8.6 1.8 1.7v19.9c0 3-2.3 5.3-5.2 5.3zm1.7-14h-6.4c-1 0-1.8.8-1.8 1.7v7c0 1 .8 1.8 1.7 1.8h4.7c1 0 1.8-.8 1.8-1.7v-8.8zM818.3 253.1h-4.7c-2.9 0-5.3-2.3-5.3-5.2v-7c0-2.9 2.3-5.3 5.2-5.3h6.5V228c0-1.2.9-1.8 1.7-1.8.9 0 1.8.6 1.8 1.7v19.9c0 3-2.3 5.3-5.2 5.3zm1.7-14h-6.4c-1 0-1.8.8-1.8 1.7v7c0 1 .8 1.8 1.7 1.8h4.7c1 0 1.8-.8 1.8-1.7v-8.8zM841.8 253.1h-8.2c-2.9 0-5.2-2.4-5.2-5.3v-7c0-2.9 2.3-5.2 5.2-5.2h4.7c2.9 0 5.3 2.4 5.3 5.3v.6c0 2.9-2.4 5.3-5.3 5.3h-6.4v1.1c0 1 .8 1.8 1.7 1.8h8.2c1.2 0 1.7.9 1.7 1.8.1.8-.5 1.6-1.7 1.6zm-1.7-12.3c0-1-.8-1.8-1.8-1.8h-4.7c-1 0-1.7.8-1.7 1.7v2.4h6.4c1 0 1.8-.8 1.8-1.8v-.5zM863.2 237.6l-1.8 10.5c-.4 2.4-2.1 5-5.2 5H855c-3.1 0-4.8-2.6-5.2-5l-1.8-10.5v-.4c0-1.1.9-1.7 1.8-1.7.8 0 1.5.4 1.7 1.5l1.7 10.5c.2 1.5 1 2.1 1.8 2.1h1.2c.7 0 1.6-.6 1.8-2.1l1.7-10.5c.2-1 .9-1.5 1.7-1.5.9 0 1.8.6 1.8 1.7.1.2.1.3 0 .4zM881.2 253.1H873c-2.9 0-5.2-2.4-5.2-5.3v-7c0-2.9 2.3-5.2 5.2-5.2h4.7c2.9 0 5.3 2.4 5.3 5.3v.6c0 2.9-2.4 5.3-5.3 5.3h-6.4v1.1c0 1 .8 1.8 1.7 1.8h8.2c1.2 0 1.7.9 1.7 1.8 0 .8-.5 1.6-1.7 1.6zm-1.8-12.3c0-1-.8-1.8-1.8-1.8H873c-1 0-1.7.8-1.7 1.7v2.4h6.4c1 0 1.8-.8 1.8-1.8v-.5zM894.2 253.1H893c-2.9 0-5.3-2.4-5.3-5.3v-19.9c0-1.2.9-1.7 1.8-1.7s1.7.6 1.7 1.7v19.9c0 1 .8 1.8 1.8 1.8h1.2c1.2 0 1.7.8 1.7 1.7.1.9-.5 1.8-1.7 1.8zM908.4 253.1h-4.7c-2.9 0-5.3-2.4-5.3-5.3v-7c0-2.9 2.4-5.2 5.3-5.2h4.7c2.9 0 5.2 2.3 5.2 5.2v7c0 2.9-2.3 5.3-5.2 5.3zm1.7-12.3c0-1-.8-1.7-1.7-1.7h-4.7c-1 0-1.8.8-1.8 1.7v7c0 1 .8 1.8 1.8 1.8h4.7c1 0 1.7-.8 1.7-1.8v-7zM928.4 253.1H922v6.5c0 1.2-.9 1.7-1.7 1.7-.9 0-1.8-.6-1.8-1.7v-18.7c0-2.9 2.3-5.3 5.2-5.3h4.7c2.9 0 5.3 2.3 5.3 5.2v7c0 3-2.4 5.3-5.3 5.3zm1.8-12.3c0-1-.8-1.8-1.7-1.8h-4.7c-1 0-1.8.8-1.8 1.7v8.8h6.4c1 0 1.8-.8 1.8-1.7v-7zM952 253.1h-8.2c-2.9 0-5.2-2.4-5.2-5.3v-7c0-2.9 2.3-5.2 5.2-5.2h4.7c2.9 0 5.3 2.4 5.3 5.3v.6c0 2.9-2.4 5.3-5.3 5.3H942v1.1c0 1 .8 1.8 1.7 1.8h8.2c1.2 0 1.7.9 1.7 1.8.1.8-.4 1.6-1.6 1.6zm-1.8-12.3c0-1-.8-1.8-1.8-1.8h-4.7c-1 0-1.7.8-1.7 1.7v2.4h6.4c1 0 1.8-.8 1.8-1.8v-.5zM967.3 240.8c-.8 0-1.7-.6-1.7-1.7h-1.8c-1 0-1.7.8-1.7 1.7v10.5c0 1.2-.9 1.8-1.8 1.8-.8 0-1.7-.6-1.7-1.7v-10.5c0-2.9 2.3-5.3 5.2-5.3h3.5c1 0 1.8.8 1.8 1.7v1.8c0 1.1-.9 1.7-1.8 1.7zM979.1 253.1h-5.8c-1.2 0-1.7-.9-1.7-1.8s.6-1.7 1.7-1.7h5.8c1 0 1.8-.8 1.8-1.8s-.8-1.7-1.8-1.7H977c-2.9 0-5.2-2.4-5.2-5.3s2.3-5.2 5.2-5.2h5.4c1.2 0 1.8.8 1.8 1.7 0 .9-.6 1.8-1.8 1.8H977c-1 0-1.7.8-1.7 1.7s.8 1.8 1.7 1.8h2.1c2.9 0 5.3 2.3 5.3 5.2 0 2.9-2.4 5.3-5.3 5.3z"/></g></svg>