<svg width="256" height="70" viewBox="0 0 256 70" xmlns="http://www.w3.org/2000/svg" preserveAspectRatio="xMidYMid"><g fill="#11110F"><path d="M49.311 30.145H27.797c-.555 0-1.005.451-1.005 1.006v10.52c0 .554.45 1.006 1.005 1.006h8.393v13.068s-1.885.643-7.095.643c-6.147 0-14.733-2.246-14.733-21.128 0-18.886 8.94-21.37 17.335-21.37 7.267 0 10.397 1.279 12.389 1.895.626.192 1.205-.431 1.205-.987l2.4-10.163a.938.938 0 0 0-.385-.785C46.498 3.273 41.562.51 29.096.51 14.732.511 0 6.621 0 35.996 0 65.372 16.868 69.75 31.081 69.75c11.77 0 18.909-5.03 18.909-5.03.294-.162.326-.573.326-.762V31.151c0-.555-.45-1.006-1.005-1.006M160.128 4.188c0-.56-.443-1.011-.998-1.011h-12.114c-.554 0-1.004.451-1.004 1.011l.004 23.41h-18.883V4.189c0-.56-.445-1.011-1-1.011H114.02c-.55 0-1 .451-1 1.011v63.389c0 .559.45 1.014 1 1.014h12.114c.554 0 1-.455 1-1.014V40.463h18.882l-.033 27.114c0 .559.449 1.014 1.003 1.014h12.143c.555 0 .998-.455 1-1.014V4.188M72.132 12.663c0-4.362-3.498-7.887-7.812-7.887-4.31 0-7.81 3.525-7.81 7.887 0 4.357 3.5 7.892 7.81 7.892 4.314 0 7.812-3.535 7.812-7.892M71.17 54.238v-29.26c0-.556-.448-1.01-1.002-1.01H58.093c-.554 0-1.05.572-1.05 1.127v41.921c0 1.232.768 1.599 1.761 1.599h10.88c1.194 0 1.486-.586 1.486-1.618V54.238M206.427 23.968h-12.021c-.552 0-1 .454-1 1.014v31.081s-3.054 2.234-7.389 2.234c-4.334 0-5.484-1.966-5.484-6.21V24.982c0-.56-.448-1.014-1-1.014h-12.2a1.01 1.01 0 0 0-1.002 1.014v29.157c0 12.606 7.026 15.69 16.691 15.69 7.93 0 14.322-4.38 14.322-4.38s.305 2.308.442 2.582c.138.273.497.549.885.549l7.761-.035a1.01 1.01 0 0 0 1.002-1.011l-.004-42.552c0-.56-.45-1.014-1.003-1.014M234.124 58.321c-4.17-.126-6.998-2.019-6.998-2.019V36.23s2.79-1.71 6.213-2.017c4.33-.387 8.5.92 8.5 11.247 0 10.89-1.882 13.038-7.715 12.862zm4.741-35.714c-6.827 0-11.471 3.046-11.471 3.046V4.188c0-.56-.448-1.011-1-1.011h-12.148c-.552 0-1.001.451-1.001 1.011v63.389c0 .559.449 1.014 1.003 1.014h8.428c.38 0 .667-.195.88-.538.209-.34.511-2.923.511-2.923s4.968 4.708 14.371 4.708c11.04 0 17.371-5.6 17.371-25.14 0-19.538-10.112-22.091-16.944-22.091zM106.035 23.86H96.95l-.014-12.005c0-.454-.234-.682-.76-.682H83.793c-.481 0-.74.212-.74.675v12.405s-6.205 1.498-6.625 1.62a1.006 1.006 0 0 0-.725.965v7.796c0 .561.448 1.013 1.002 1.013h6.348v18.754c0 13.93 9.771 15.298 16.365 15.298 3.012 0 6.616-.968 7.211-1.187.36-.132.57-.505.57-.91l.01-8.575c0-.559-.473-1.012-1.005-1.012-.53 0-1.884.216-3.279.216-4.463 0-5.975-2.076-5.975-4.762l-.001-17.822h9.087c.554 0 1.003-.452 1.003-1.013V24.87c0-.56-.449-1.01-1.003-1.01"/></g></svg>