<svg width="256" height="256" viewBox="0 0 256 256" xmlns="http://www.w3.org/2000/svg" preserveAspectRatio="xMidYMid"><path d="M13.905.012H242.09c7.414 0 13.424 6.01 13.424 13.425V241.62c0 7.415-6.01 13.425-13.424 13.425H13.905C6.49 255.046.48 249.036.48 241.62V13.437C.48 6.022 6.49.012 13.905.012" fill="#CD3C28"/><path d="M143.73 51.332h-13.418c5.204 4.238 15.52 12.425 15.52 29.386 0 16.498-9.508 24.317-19.015 31.667-2.944 2.896-6.339 6.028-6.339 10.938 0 4.899 3.395 7.576 5.882 9.591l8.16 6.231c9.958 8.258 19.01 15.846 19.01 31.24 0 20.964-21.251 42.313-60.184 42.313-32.83 0-48.025-15.547-48.025-32.06 0-8.035 4.064-19.398 17.436-27.215 14.023-8.472 33.05-9.583 43.235-10.263-3.175-4.015-6.795-8.25-6.795-15.158 0-3.79 1.139-6.025 2.267-8.699-2.5.219-4.98.44-7.247.44-23.994 0-37.58-17.625-37.58-35.01 0-10.259 3.193-22.38 12.919-30.627C82.464 43.623 98.958 42.36 111.19 42.36l47.197.01-14.657 8.962zM84.68 152.987c-4.98 1.784-19.466 7.132-19.466 22.971s15.626 27.219 39.846 27.219c21.727 0 33.282-10.279 33.282-24.088 0-11.395-7.47-17.398-24.69-29.449-1.803-.229-2.936-.229-5.191-.229-2.042 0-14.273.451-23.781 3.576zM97.393 50.495c-5.894 0-12.226 2.34-15.858 6.804-3.846 4.687-4.974 11.26-4.974 17.066 0 14.938 8.83 39.699 28.303 39.699 5.656 0 11.757-3.232 15.39-6.804 5.204-5.142 5.655-11.709 5.655-15.724 0-16.06-9.733-41.041-28.516-41.041zM192.25 95.659h-11.456v22.412h-22.413v10.957h22.413v22.412h11.456v-22.412h22.411v-10.957H192.25V95.659" fill="#FFF"/></svg>