<svg width="256" height="256" viewBox="0 0 256 256" xmlns="http://www.w3.org/2000/svg" preserveAspectRatio="xMidYMid"><path d="M226.468 256H29.532C13.224 256 0 242.772 0 226.452V29.532C0 13.223 13.224 0 29.532 0h196.936C242.778 0 256 13.222 256 29.533v196.919c0 16.32-13.221 29.548-29.532 29.548zm-98.47-177.234c-27.19 0-49.23 22.038-49.23 49.23 0 27.187 22.04 49.235 49.23 49.235 27.192 0 49.236-22.048 49.236-49.236 0-27.191-22.044-49.229-49.235-49.229zm98.47-39.389c0-5.434-4.41-9.844-9.856-9.844h-29.533c-5.439 0-9.845 4.41-9.845 9.844v29.544c0 5.435 4.406 9.845 9.845 9.845h29.533c5.446 0 9.856-4.41 9.856-9.845V39.377zm0 68.92h-22.286c1.624 6.303 2.582 12.889 2.582 19.698 0 43.51-35.263 78.771-78.765 78.771-43.5 0-78.766-35.261-78.766-78.77 0-6.81.964-13.396 2.588-19.7H29.532v108.317c0 5.43 4.41 9.839 9.856 9.839h177.224c5.446 0 9.856-4.408 9.856-9.839V108.297z" fill="#343433"/></svg>