<svg width="256" height="163" viewBox="0 0 256 163" xmlns="http://www.w3.org/2000/svg" preserveAspectRatio="xMidYMid"><path d="M9.464 13.264c0 2.802-1.706 4.875-4.633 4.875-2.437 0-4.266-2.073-4.266-4.875 0-2.683 1.95-4.876 4.51-4.876 2.683 0 4.389 2.193 4.389 4.876zM2.718 159.768V47.701H7.31v112.067H2.718zM160.1 79.92c0 56.5-31.365 82.183-65.697 82.183-35.072 0-63.474-27.781-63.474-79.846 0-53.463 29.39-82.182 65.943-82.182C132.684.073 160.1 28.323 160.1 79.921zM35.584 81.089c0 42.84 20.763 76.12 59.036 76.12 38.539 0 60.643-34.304 60.643-76.607 0-39.23-17.711-75.031-58.126-75.031-40.416 0-61.553 33.708-61.553 75.518zM176.96 147.625c7.706 5.137 21.008 10.097 32.448 10.097 21.713 0 41.023-15.19 41.023-37.548 0-20.748-12.863-31.574-34.703-40.874-19.546-8.323-37.12-17.357-37.12-39.537 0-23.111 18.209-39.456 42.957-39.456 13.308 0 23.347 3.735 28.017 7.004l-1.858 4.03c-3.969-2.8-14.694-6.367-26.366-6.367-26.155 0-37.548 19.763-37.548 34.312 0 20.095 15.577 26.815 35.656 36.387 23.347 11.44 35.719 21.525 35.719 43.473 0 23.58-16.808 42.723-46.692 42.723-12.377 0-26.616-4.202-33.62-9.572l2.086-4.672z"/></svg>