<svg width="512" height="130" viewBox="0 0 512 130" xmlns="http://www.w3.org/2000/svg" preserveAspectRatio="xMidYMid"><path d="M0 19.164h19.987v72.804h37.01v18.443H0V19.164M75.43 17.811c6.153 0 11.146 4.993 11.146 11.14 0 6.157-4.993 11.138-11.146 11.138-6.145 0-11.138-4.981-11.138-11.138 0-6.147 4.993-11.14 11.138-11.14zm-9.606 30.74h19.213v61.837H65.824V48.55zM95.662 48.558h18.442v8.452h.256c2.56-4.865 8.837-9.985 18.186-9.985 19.469 0 23.054 12.803 23.054 29.45v33.913h-19.212V80.322c0-7.176-.132-16.395-9.994-16.395-9.987 0-11.52 7.816-11.52 15.88v30.58H95.661V48.559M165.344 19.158h19.205v54.535l21.757-25.17h23.547l-25.198 28.63 24.67 33.258h-24.143L184.8 79.844h-.251v30.567h-19.205V19.158" fill="#1A1918"/><path d="M286.552 99.68c-6.153 7.816-16.262 12.302-26.256 12.302-19.207 0-34.577-12.814-34.577-32.664s15.37-32.654 34.577-32.654c17.94 0 29.204 12.804 29.204 32.654v6.02H244.93c1.526 7.3 7.04 12.04 14.47 12.04 6.278 0 10.501-3.203 13.705-7.56l13.446 9.862zM270.29 72.278c.126-6.405-4.868-11.783-11.79-11.783-8.45 0-13.062 5.764-13.569 11.783h25.36zM362.567 110.377h-17.68v-8.2h-.249c-2.955 4.482-10.376 9.736-19.088 9.736-18.448 0-30.613-13.315-30.613-32.144 0-17.293 10.758-33.173 28.43-33.173 7.947 0 15.375 2.176 19.73 8.194h.253V19.158h19.217v91.219zM329.51 63.502c-9.598 0-15.36 6.41-15.36 15.75 0 9.36 5.762 15.755 15.36 15.755 9.615 0 15.377-6.395 15.377-15.754 0-9.341-5.762-15.75-15.377-15.75z" fill="#1A1918"/><path d="M501.764 0H391.343c-5.277 0-9.564 4.182-9.564 9.34v110.885c0 5.161 4.287 9.35 9.564 9.35h110.42c5.286 0 9.593-4.189 9.593-9.35V9.339c0-5.157-4.307-9.339-9.592-9.339" fill="#006087"/><path d="M410.603 17.839c6.146 0 11.138 4.993 11.138 11.14 0 6.151-4.992 11.146-11.138 11.146-6.158 0-11.144-4.995-11.144-11.146 0-6.147 4.986-11.14 11.144-11.14zm-9.613 30.739h19.219v61.837H400.99V48.578zM432.263 48.578h18.436v8.448h.256c2.565-4.86 8.834-9.987 18.184-9.987 19.461 0 23.054 12.807 23.054 29.457v33.919h-19.205V80.344c0-7.175-.132-16.398-9.987-16.398-10.002 0-11.533 7.812-11.533 15.878v30.59h-19.205V48.579" fill="#FFF"/></svg>