<svg width="256" height="357" viewBox="0 0 256 357" xmlns="http://www.w3.org/2000/svg" preserveAspectRatio="xMidYMid"><path d="M215.787 4.498c10.6 0 19.192 8.593 19.192 19.192 0 10.6-8.592 19.193-19.192 19.193s-19.193-8.593-19.193-19.193c0-10.6 8.592-19.192 19.193-19.192M127.888 66.725c60.902 0 110.272 32.22 110.272 71.967s-49.37 71.968-110.272 71.968c-60.9 0-110.27-32.221-110.27-71.968 0-39.747 49.37-71.967 110.27-71.967" fill="#FFF"/><path d="M127.888 210.66c-18.676 0-36.263-3.035-51.679-8.382-2.233 12.394-3.456 25.806-3.456 39.81 0 53.36 17.733 98.026 41.665 110.488h26.942c23.922-12.462 41.664-57.127 41.664-110.488 0-14.004-1.223-27.417-3.456-39.81-15.416 5.347-33.004 8.382-51.68 8.382" fill="#FFF"/><path d="M175.997 324.805c-4.009 0-7.811.704-11.24 1.959-4.71 8.752-10.152 15.855-16.114 20.871.075 1.701.422 3.327.934 4.905h52.856c.56-1.775.964-3.604.964-5.541 0-12.246-12.264-22.194-27.4-22.194M90.94 326.62c-3.328-1.165-6.996-1.815-10.853-1.815-15.128 0-27.383 9.948-27.383 22.194 0 1.937.397 3.766.973 5.54h52.83c.48-1.5.827-3.041.928-4.65-6.114-5.057-11.689-12.3-16.495-21.269M72.753 242.088c0-11.566.847-22.719 2.395-33.239-16.126 6.113-27.823 24.293-27.823 45.773 0 24.003 14.606 43.888 33.675 47.416-5.226-17.404-8.247-37.935-8.247-59.95M180.61 208.715c1.561 10.558 2.414 21.757 2.414 33.373 0 22.04-3.028 42.592-8.267 60.008 19.25-3.338 34.046-23.316 34.046-47.474 0-21.644-11.877-39.934-28.194-45.907M47.428 89.487c-4.466-5.273-11.132-8.625-18.584-8.625-13.446 0-24.346 10.9-24.346 24.347 0 9.925 5.942 18.457 14.46 22.248 3.5-14.568 13.697-27.685 28.47-37.97M227.996 80.862c-7.672 0-14.51 3.552-18.973 9.098 14.545 10.308 24.539 23.394 27.894 37.902 9.031-3.56 15.425-12.357 15.425-22.653 0-13.446-10.9-24.347-24.346-24.347" fill="#FFF"/><path d="M255.922 105.209c0-15.399-12.528-27.927-27.926-27.927a27.784 27.784 0 0 0-19.52 7.964c-.22-.146-.435-.295-.658-.44-20.044-13.083-46.217-20.66-74.22-21.568l16.04-50.701 43.4 10.216c-.012.31-.023.623-.023.937 0 12.557 10.215 22.773 22.772 22.773 12.557 0 22.772-10.216 22.772-22.773 0-12.556-10.215-22.772-22.772-22.772-9.758 0-18.098 6.17-21.334 14.813L148.046 4.807a3.583 3.583 0 0 0-4.234 2.405l-17.699 55.947c-29.478.296-57.173 7.953-78.154 21.647l-.034.023a27.867 27.867 0 0 0-19.08-7.547C13.444 77.282.917 89.81.917 105.21c0 10.028 5.402 19.211 13.966 24.164a51.82 51.82 0 0 0-.847 9.32c0 20.472 12.047 39.61 33.922 53.886 7.325 4.78 15.47 8.825 24.221 12.079-.092.555-.192 1.105-.28 1.662-16.924 7.488-28.155 26.59-28.155 48.302 0 12.275 3.679 24.163 10.358 33.473 6.261 8.728 14.774 14.701 24.15 17.007 1.832 5.818 3.914 11.303 6.222 16.383a37.437 37.437 0 0 0-4.387-.26c-17.073 0-30.964 11.562-30.964 25.774 0 2.094.377 4.269 1.149 6.648a3.58 3.58 0 0 0 3.404 2.473h59.796l.068.036h28.695l.068-.036h60.13a3.58 3.58 0 0 0 3.414-2.505c.77-2.449 1.128-4.552 1.128-6.616 0-14.212-13.897-25.774-30.98-25.774-1.59 0-3.163.1-4.713.298 2.304-5.067 4.384-10.537 6.215-16.34 9.46-2.22 18.061-8.162 24.4-16.917 6.762-9.338 10.485-21.285 10.485-33.644 0-21.934-11.381-41.098-28.533-48.463-.08-.503-.17-1-.252-1.501 8.752-3.254 16.896-7.298 24.22-12.08 21.875-14.275 33.922-33.413 33.922-53.886a51.86 51.86 0 0 0-.753-8.762c9.162-4.79 14.935-14.194 14.935-24.721zm-40.135-97.13c8.608 0 15.612 7.002 15.612 15.611 0 8.61-7.004 15.613-15.612 15.613S200.174 32.3 200.174 23.69c0-8.609 7.005-15.612 15.613-15.612zM8.078 105.208c0-11.451 9.316-20.767 20.766-20.767 4.802 0 9.395 1.655 13.063 4.63-12.514 9.518-21.078 20.815-25.15 33.02a20.799 20.799 0 0 1-8.679-16.883zm113.56 108.916c.888.031 1.778.055 2.67.073.174.004.346.01.52.013a173.78 173.78 0 0 0 6.121 0c.174-.003.348-.009.522-.013.891-.018 1.78-.042 2.667-.073l.235-.01c14.865-.547 29.201-2.976 42.365-7.112l.33 2.236a219.924 219.924 0 0 1 1.775 16.19l.016.242c.091 1.269.172 2.54.241 3.813.015.273.026.545.04.818.056 1.1.108 2.198.148 3.3.02.582.034 1.169.05 1.754.023.812.051 1.624.066 2.44.026 1.427.04 2.858.04 4.292 0 1.44-.016 2.874-.042 4.305-.012.652-.032 1.303-.05 1.955a218.64 218.64 0 0 1-.063 2.15 241.528 241.528 0 0 1-.169 3.813c-.874 16.585-3.52 32.544-7.785 46.734a150.808 150.808 0 0 1-3.516 10.344c-1.942 5.074-4.088 9.758-6.398 14.009-.114.212-.23.421-.346.631-.174.313-.347.627-.522.936l-.193.336c-3.692 6.443-7.776 11.804-12.115 15.893l-.177.165a43.042 43.042 0 0 1-1.6 1.425c-1.942 1.649-3.929 3.047-5.949 4.176h-25.261c-1.912-1.068-3.792-2.377-5.633-3.909-.23-.191-.458-.388-.687-.587-.124-.108-.25-.213-.373-.323-.151-.134-.3-.273-.451-.41-4.57-4.163-8.868-9.729-12.733-16.485-.052-.094-.106-.186-.16-.28-.192-.339-.382-.683-.573-1.027l-.304-.555c-2.308-4.247-4.45-8.927-6.39-13.994a151.243 151.243 0 0 1-3.526-10.384c-4.257-14.176-6.898-30.126-7.77-46.698-.02-.373-.04-.744-.056-1.118a217.484 217.484 0 0 1-.178-4.85c-.016-.65-.036-1.299-.048-1.95a237.15 237.15 0 0 1-.043-4.302c0-1.431.015-2.858.04-4.283.016-.795.042-1.587.064-2.38.017-.602.03-1.205.052-1.806.04-1.072.09-2.143.145-3.214.014-.296.026-.593.041-.889.068-1.244.147-2.485.235-3.723l.021-.315c.394-5.44.98-10.822 1.759-16.107l.283-1.918c.022-.15.042-.3.066-.45 13.165 4.136 27.503 6.565 42.37 7.113l.229.009zm-45.816 82.687c-14.55-5.89-24.917-22.897-24.917-42.19 0-17.041 7.759-32.16 19.82-39.614a231.671 231.671 0 0 0-.343 3.169l-.059.6c-.169 1.705-.318 3.417-.45 5.136-.039.505-.079 1.01-.114 1.516a227.296 227.296 0 0 0-.297 5.046c-.032.663-.065 1.326-.091 1.99a233.947 233.947 0 0 0-.15 5.092c-.028 1.51-.048 3.02-.048 4.531a241.932 241.932 0 0 0 .095 6.634c.006.238.011.477.018.715.031.987.068 1.97.11 2.953l.059 1.23c.029.594.06 1.186.093 1.777.028.496.055.992.086 1.488.023.363.049.726.074 1.09.08 1.204.169 2.405.268 3.602l.03.36c1.023 12.178 2.977 23.951 5.816 34.875zm23.062 52.148H56.455a11.652 11.652 0 0 1-.17-1.961c0-10.264 10.677-18.614 23.803-18.614 2.894 0 5.71.404 8.39 1.2 4.126 7.454 8.733 13.613 13.729 18.409l.364.35c.215.202.427.419.644.616h-4.331zm100.933-1.961c0 .622-.057 1.269-.175 1.96H152.56c.212-.191.418-.404.629-.6l.406-.391c4.958-4.767 9.534-10.88 13.634-18.264a29.247 29.247 0 0 1 8.768-1.319c13.134 0 23.82 8.35 23.82 18.614zm-14.79-132.191c12.135 7.388 20.196 22.849 20.196 39.814 0 19.523-10.54 36.61-25.309 42.34 2.856-10.947 4.822-22.75 5.851-34.96a225.375 225.375 0 0 0 .269-3.501c.038-.537.076-1.074.11-1.613.029-.477.056-.955.083-1.432.033-.61.065-1.221.095-1.835a242.011 242.011 0 0 0 .168-4.175c.007-.228.012-.458.018-.687.024-.857.043-1.717.058-2.579l.014-.897c.014-1.062.024-2.127.024-3.195a237.465 237.465 0 0 0-.077-5.883c-.03-1.232-.07-2.461-.118-3.69-.026-.649-.057-1.295-.088-1.943-.046-.955-.096-1.91-.153-2.861-.047-.77-.097-1.538-.15-2.305-.04-.562-.084-1.123-.128-1.684-.13-1.682-.278-3.358-.443-5.025-.023-.23-.044-.458-.068-.687a216.956 216.956 0 0 0-.352-3.202zm-4.226-16.748l-2.407.835c-13.43 4.659-28.398 7.405-43.66 8.04l-.472.02c-.862.032-1.725.057-2.588.077-.225.005-.45.012-.676.016a161.765 161.765 0 0 1-6.22 0c-.225-.004-.448-.01-.673-.016-.864-.02-1.728-.045-2.592-.077l-.466-.02c-15.262-.635-30.232-3.38-43.664-8.04l-2.394-.83c-32.111-11.8-53.792-33.994-53.792-59.373 0-3.368.389-6.678 1.126-9.917l.116-.482c3.217-13.39 12.565-25.794 27.034-35.868l2.318-1.614c19.371-12.647 46.328-20.507 76.097-20.507 30.107 0 57.336 8.038 76.753 20.937l2.312 1.638c14.24 10.094 23.396 22.47 26.477 35.79l.02.086a44.595 44.595 0 0 1 1.13 9.937c0 25.376-21.675 47.566-53.78 59.368zm58.41-75.366c-3.928-12.254-12.375-23.61-24.792-33.197a20.657 20.657 0 0 1 13.577-5.055c11.45 0 20.766 9.316 20.766 20.767 0 7.214-3.645 13.72-9.55 17.485z"/><path d="M89.69 106.693c-9.794 0-18.011 8.217-18.011 18.01 0 9.796 8.217 17.745 18.012 17.745 9.793 0 17.742-7.95 17.742-17.744s-7.949-18.01-17.742-18.01M167.419 106.693c-9.8 0-18.034 8.212-18.034 18.01 0 9.8 8.234 17.745 18.034 17.745 9.8 0 17.743-7.944 17.743-17.744 0-9.799-7.943-18.01-17.743-18.01" fill="#FF4500"/><path d="M169.05 169.294a3.58 3.58 0 0 0-5.064-.002c-7.007 7.001-18.597 10.405-35.43 10.405-.048 0-.093.012-.14.014-.047-.002-.092-.014-.14-.014-16.833 0-28.42-3.404-35.42-10.404a3.58 3.58 0 0 0-5.063 5.062c8.411 8.413 21.653 12.502 40.483 12.502.048 0 .093-.013.14-.014.047.001.092.014.14.014 18.827 0 32.072-4.089 40.492-12.5a3.58 3.58 0 0 0 .002-5.063"/></svg>