<svg width="256" height="167" viewBox="0 0 256 167" xmlns="http://www.w3.org/2000/svg" preserveAspectRatio="xMidYMid"><path d="M253.524 151.303v.854c0 1.875-1.423 3.244-3.393 3.244h-25.63c-1.865 0-3.256-1.4-3.256-3.244v-32.153c0-1.854 1.443-3.245 3.319-3.245l.01.032h24.494c1.97 0 3.403 1.359 3.403 3.233v.854c0 1.875-1.433 3.234-3.403 3.234h-19.922v8.417h15.37c1.97 0 3.404 1.381 3.404 3.255v.844c0 1.886-1.433 3.244-3.403 3.244h-15.37v8.196h20.985c1.98.001 3.392 1.381 3.392 3.235z" fill="#73BA25"/><path d="M230.253 17.256c8.1.285 14.455 7.111 14.18 15.202-.148 3.92-1.79 7.543-4.657 10.22-2.865 2.686-6.595 4.076-10.535 3.94-8.09-.296-14.432-7.112-14.168-15.203.137-3.919 1.779-7.553 4.656-10.23a14.565 14.565 0 0 1 10.524-3.929zm10.334 14.897c.19-5.763-4.32-10.609-10.082-10.81a10.285 10.285 0 0 0-7.48 2.793c-2.034 1.896-3.224 4.477-3.309 7.269-.19 5.762 4.32 10.608 10.073 10.82a10.475 10.475 0 0 0 7.5-2.803c2.034-1.907 3.214-4.488 3.298-7.27z" fill="#FFF"/><path d="M230.505 21.344c5.763.2 10.272 5.046 10.082 10.809-.084 2.781-1.264 5.362-3.297 7.269a10.475 10.475 0 0 1-7.501 2.802c-5.752-.21-10.261-5.057-10.073-10.82.085-2.791 1.275-5.372 3.31-7.268a10.284 10.284 0 0 1 7.48-2.792zm6.342 8.333c0-1.717-2.076-3.097-4.635-3.097-2.559 0-4.625 1.38-4.625 3.097 0 1.696 2.065 3.087 4.625 3.087s4.635-1.39 4.635-3.087z" fill="#73BA25"/><path d="M232.212 26.58c2.56 0 4.635 1.38 4.635 3.097 0 1.696-2.076 3.087-4.635 3.087-2.559 0-4.625-1.39-4.625-3.087 0-1.717 2.065-3.097 4.625-3.097z" fill="#FFF"/><path d="M214.492 140.547v5.152c0 5.9-3.519 9.702-9.007 9.702h-20.933c-1.97 0-3.392-1.38-3.392-3.244v-.854c0-1.865 1.422-3.234 3.392-3.234h19.86c2.159 0 2.221-2.96 2.221-3.287v-3.087c0-1.01-.4-2.201-2.222-2.201h-14.55c-4.14 0-8.627-3.393-8.627-8.86v-4.773c0-3.729 3.519-9.102 9.86-9.102v.042h17.089c1.99 0 3.466 1.401 3.466 3.235v.853c0 1.854-1.466 3.245-3.394 3.245H192.39c-2.086 0-3.277 1.022-3.277 2.813v2.833c0 1.16.97 2.749 3.13 2.749h14.328c3.95.001 7.921 2.487 7.921 8.018zM170.993 116.76c1.908 0 3.394 1.495 3.394 3.4v25.316c0 5.89-4.626 10.157-11.01 10.157h-11.83c-6.384 0-11.008-4.267-11.008-10.157v-25.315a3.372 3.372 0 0 1 3.392-3.402h1.075a3.394 3.394 0 0 1 3.402 3.402v24.379a3.51 3.51 0 0 0 3.509 3.519h11.072a3.516 3.516 0 0 0 3.508-3.52v-24.377a3.408 3.408 0 0 1 3.402-3.402h1.094zM133.742 140.547v5.152c0 5.9-3.54 9.702-9.008 9.702h-20.943c-1.981 0-3.403-1.38-3.403-3.244v-.854c0-1.865 1.433-3.234 3.403-3.234h19.858c2.15 0 2.202-2.96 2.202-3.287v-3.087c0-1.01-.38-2.201-2.202-2.201H109.1c-4.161 0-8.628-3.393-8.628-8.86v-4.773c0-3.729 3.508-9.102 9.86-9.102l.022.042h17.098c1.98 0 3.466 1.401 3.466 3.235v.853c0 1.854-1.464 3.245-3.403 3.245H111.65c-2.097 0-3.287 1.022-3.287 2.813v2.833c0 1.16.969 2.749 3.129 2.749h14.317c3.95.001 7.933 2.487 7.933 8.018z" fill="#73BA25"/><path d="M253.682 52.296l1.076-.2c.294.231.252.705.157 1.127-.2.98-.674 2.76-1 3.603l-.275.695c-.378 1.032-.758 2.012-1.485 2.602-2 1.823-5.203 3.277-10.218 5.468-7.754 3.392-20.322 5.53-31.995 5.457-4.183-.095-8.229-.558-11.779-.959-10.871-1.243-18.73-2.128-20.364 7.754-2.065 12.39 9.588 27.433 9.704 27.569l-.012.412-.378.095s-18.573-8.555-19.027-8.808l-.59-.42-.474-.454c-1.402-1.347-4.214-4.37-9.924-10.988-11.073-12.8-24.03-14.486-34.018-12.052-2.433.58-5.53 2.36-7.543 4.362-5.215 5.14-4.625 15.496-4.33 19.268.348 4.267.57 4.583.664 4.93l-.063.432-.369.042-.21-.147-15.234-7.448-.58-2.487c-.39-1.643-.842-3.466-1.706-5.752C88.262 72.038 76.02 61.24 62.536 58.912c-9.113-1.57-25.727-1.75-34.523 14.854-3.677 6.932-3.456 15.96.579 23.567 4.109 7.786 11.451 12.779 20.143 13.737 8.617.939 15.096-1.053 18.731-5.762 3.666-4.752 4.351-11.22 1.749-16.488-2.792-5.656-7.006-8.66-12.863-9.153-4.457-.4-7.765 1.453-8.955 3.35-.348.59-.98 1.686-.99 3.244v.053c0 4.246 3.887 5.405 4.677 5.458.242 0 1.412-.031 2.96-.421l.748-.241.517-.18.379-.073c2.823-.516 5.541 1.148 6.331 3.898.137.504.211 1.011.211 1.516 0 1.822-.927 3.518-2.465 4.55l.063-.021-.168.095-.253.158c-.811.516-1.56.8-2.35 1.043-2.212.725-4.171 1.064-6.141 1.064-6.722-.011-16.087-5.795-16.214-16.656-.063-6.132 3.013-11.715 8.428-15.308 6.237-4.119 17.014-5.52 27.012.611 12.305 7.533 15.518 22.28 12.305 32.343-4.667 14.57-17.794 22.355-35.124 20.806-12.273-1.095-23.672-7.574-30.456-17.33-3.014-4.32-5.247-9.133-6.448-13.937-2.77-10.988.032-22.661 2.118-27.834C19.174 49.41 31.879 35.262 50.262 23.79l1.16-.727C90.526-.969 118.201 0 138.461.706c23.894.832 49.377 9.07 52.895 10.24.012-.79.149-7.912.149-7.912l.105-.242.274-.074c1.603.221 35.935 5.32 50.4 13.748 1.79 1.054 2.675 2.15 3.783 3.287 3.992 4.13 9.28 21.333 9.84 24.884l-.211.358c-.211.074-.706.442-1.37.885-3.371 2.36-11.262 7.88-21.375 6.974-9.092-.8-20.965-6.015-35.282-15.444.633 1.485 3.613 8.544 4.12 9.734l.189.232c2.076 1.074 21.966 11.209 31.837 11.009 7.962-.158 16.464-4.046 19.866-6.09zm-9.25-19.838c.276-8.09-6.078-14.917-14.18-15.202a14.565 14.565 0 0 0-10.523 3.93c-2.876 2.676-4.52 6.31-4.656 10.23-.264 8.09 6.078 14.906 14.168 15.201 3.94.137 7.67-1.253 10.535-3.94 2.866-2.676 4.51-6.3 4.657-10.219zM81.246 133.373c1.37-.652 3.076-1.454 5.33-1.454h.696c3.94 0 6.49 2.35 6.49 5.963v15.823c0 .958-.78 1.738-1.718 1.738h-.674c-.959 0-1.717-.78-1.717-1.738v-15.254a2.606 2.606 0 0 0-2.592-2.602h-5.72a2.598 2.598 0 0 0-2.592 2.602v15.254c0 .958-.78 1.738-1.717 1.738h-.674c-.96 0-1.718-.78-1.718-1.738v-20.164c0-.862.58-1.473 1.38-1.473h.664c.632 0 1.096.273 1.349.81l.474.865c.2.358.305.378.569.378.59 0 1.316-.358 2.17-.748zM69.9 137.66v4.668c0 1.992-1.16 3.172-3.077 3.172H54.845v3.518c0 1.738.98 2.645 2.845 2.645h6.637c.99 0 1.717.684 1.717 1.622v.527c0 .948-.727 1.633-1.717 1.633h-8.091c-2.992 0-5.52-2.655-5.52-5.772v-12.044c0-3.076 2.602-5.561 5.804-5.561l.01.02h7.554c3.203 0 5.816 2.507 5.816 5.573zm-4.151 4.257v-3.74c0-1.307-1.012-2.318-2.307-2.318h-6.3c-1.307 0-2.307 1.033-2.307 2.318v3.74h10.914zM29.856 149.049c0 .99.548 1.844 1.36 2.286l-.97 2.138c-.18 0-.38.317-.38.61v10.209c0 .938-.768 1.717-1.717 1.717h-.674c-.969 0-1.717-.769-1.717-1.717V133.54c0-.82.611-1.473 1.338-1.473h.769c.653 0 1.18.504 1.296.768l.506 1c.126.18.347.285.579.285l.959 2.065a2.563 2.563 0 0 0-1.349 2.287v10.577z" fill="#73BA25"/><path d="M38.41 131.93c3.951 0 6.49 2.348 6.49 5.961v11.737c0 3.676-2.486 5.952-6.49 5.952h-.705c-2.265 0-3.972-.779-5.331-1.402-.843-.388-1.56-.705-2.128-.705l.97-2.138c.368.2.79.316 1.232.316h5.72a2.592 2.592 0 0 0 2.592-2.602v-10.577a2.563 2.563 0 0 0-2.592-2.592h-5.72a2.71 2.71 0 0 0-1.243.305l-.96-2.065c.57 0 1.286-.336 2.108-.737 1.38-.653 3.076-1.465 5.341-1.465v.012h.717zM19.911 137.629v12.137c0 3.119-2.528 5.658-5.626 5.658H6.447c-3.086 0-5.604-2.54-5.604-5.658V137.63c0-3.076 2.602-5.561 5.805-5.561h7.458c3.203-.001 5.805 2.495 5.805 5.561zm-4.13 11.662V138.23c0-1.285-1.085-2.37-2.36-2.37h-6.11a2.372 2.372 0 0 0-2.36 2.37v11.062c0 1.328 1.012 2.36 2.308 2.36h6.163a2.363 2.363 0 0 0 2.36-2.36z" fill="#73BA25"/></svg>