<svg width="256" height="264" viewBox="0 0 256 264" xmlns="http://www.w3.org/2000/svg" preserveAspectRatio="xMidYMid"><path d="M188.37 263.647l-97.924-95.04-57.952 44.114L.51 196.675.533 67.212l32.085-16.136 57.996 44.148L188.3.094l67.169 26.925.023 209.805-67.12 26.823" fill="#FFF"/><path d="M238.472 38.518l-46.234-18.533-100.262 97.637L30.77 71.031 17.53 77.69l-.021 108.496 13.129 6.586 61.152-46.55 100.51 97.55 46.194-18.46-.021-186.795zM37.359 157.395l-.034-50.924 28.328 25.29-28.294 25.634zm90.63-25.653l56.635-42.338.023 85.008-56.658-42.67z" fill="#68217A"/></svg>